solid OpenSCAD_Model
  facet normal -0.998026 -0.0628013 0
    outer loop
      vertex 15 0 -6
      vertex 14.8817 1.88 4
      vertex 14.8817 1.88 -6
    endloop
  endfacet
  facet normal -0.998026 -0.0628013 0
    outer loop
      vertex 14.8817 1.88 4
      vertex 15 0 -6
      vertex 15 0 4
    endloop
  endfacet
  facet normal 0.998026 -0.0628013 0
    outer loop
      vertex -15 0 4
      vertex -14.8817 1.88 -6
      vertex -14.8817 1.88 4
    endloop
  endfacet
  facet normal 0.998026 -0.0628013 0
    outer loop
      vertex -14.8817 1.88 -6
      vertex -15 0 4
      vertex -15 0 -6
    endloop
  endfacet
  facet normal 0 -1 0
    outer loop
      vertex -0.941857 14.9704 -6
      vertex 0.941857 14.9704 4
      vertex -0.941857 14.9704 4
    endloop
  endfacet
  facet normal 0 -1 -0
    outer loop
      vertex 0.941857 14.9704 4
      vertex -0.941857 14.9704 -6
      vertex 0.941857 14.9704 -6
    endloop
  endfacet
  facet normal 0 1 -0
    outer loop
      vertex 0.941857 -14.9704 -6
      vertex -0.941857 -14.9704 4
      vertex 0.941857 -14.9704 4
    endloop
  endfacet
  facet normal 0 1 0
    outer loop
      vertex -0.941857 -14.9704 4
      vertex 0.941857 -14.9704 -6
      vertex -0.941857 -14.9704 -6
    endloop
  endfacet
  facet normal -0.684557 -0.728959 0
    outer loop
      vertex 9.56136 11.5577 -6
      vertex 10.9345 10.2682 4
      vertex 9.56136 11.5577 4
    endloop
  endfacet
  facet normal -0.684557 -0.728959 -0
    outer loop
      vertex 10.9345 10.2682 4
      vertex 9.56136 11.5577 -6
      vertex 10.9345 10.2682 -6
    endloop
  endfacet
  facet normal 0.684557 -0.728959 0
    outer loop
      vertex -10.9345 10.2682 -6
      vertex -9.56136 11.5577 4
      vertex -10.9345 10.2682 4
    endloop
  endfacet
  facet normal 0.684557 -0.728959 0
    outer loop
      vertex -9.56136 11.5577 4
      vertex -10.9345 10.2682 -6
      vertex -9.56136 11.5577 -6
    endloop
  endfacet
  facet normal 0.368104 -0.929785 0
    outer loop
      vertex -6.38669 13.5724 -6
      vertex -4.63525 14.2658 4
      vertex -6.38669 13.5724 4
    endloop
  endfacet
  facet normal 0.368104 -0.929785 0
    outer loop
      vertex -4.63525 14.2658 4
      vertex -6.38669 13.5724 -6
      vertex -4.63525 14.2658 -6
    endloop
  endfacet
  facet normal -0.951057 0.309017 0
    outer loop
      vertex 13.9466 -5.52187 -6
      vertex 14.5287 -3.73035 4
      vertex 14.5287 -3.73035 -6
    endloop
  endfacet
  facet normal -0.951057 0.309017 0
    outer loop
      vertex 14.5287 -3.73035 4
      vertex 13.9466 -5.52187 -6
      vertex 13.9466 -5.52187 4
    endloop
  endfacet
  facet normal -0.904837 -0.425758 0
    outer loop
      vertex 13.9466 5.52187 -6
      vertex 13.1446 7.22631 4
      vertex 13.1446 7.22631 -6
    endloop
  endfacet
  facet normal -0.904837 -0.425758 0
    outer loop
      vertex 13.1446 7.22631 4
      vertex 13.9466 5.52187 -6
      vertex 13.9466 5.52187 4
    endloop
  endfacet
  facet normal -0.844338 -0.535811 0
    outer loop
      vertex 13.1446 7.22631 -6
      vertex 12.1353 8.81678 4
      vertex 12.1353 8.81678 -6
    endloop
  endfacet
  facet normal -0.844338 -0.535811 0
    outer loop
      vertex 12.1353 8.81678 4
      vertex 13.1446 7.22631 -6
      vertex 13.1446 7.22631 4
    endloop
  endfacet
  facet normal -0.368104 -0.929785 0
    outer loop
      vertex 4.63525 14.2658 -6
      vertex 6.38669 13.5724 4
      vertex 4.63525 14.2658 4
    endloop
  endfacet
  facet normal -0.368104 -0.929785 -0
    outer loop
      vertex 6.38669 13.5724 4
      vertex 4.63525 14.2658 -6
      vertex 6.38669 13.5724 -6
    endloop
  endfacet
  facet normal -0.48176 -0.876303 0
    outer loop
      vertex 6.38669 13.5724 -6
      vertex 8.0374 12.6649 4
      vertex 6.38669 13.5724 4
    endloop
  endfacet
  facet normal -0.48176 -0.876303 -0
    outer loop
      vertex 8.0374 12.6649 4
      vertex 6.38669 13.5724 -6
      vertex 8.0374 12.6649 -6
    endloop
  endfacet
  facet normal 0.904837 -0.425758 0
    outer loop
      vertex -13.9466 5.52187 4
      vertex -13.1446 7.22631 -6
      vertex -13.1446 7.22631 4
    endloop
  endfacet
  facet normal 0.904837 -0.425758 0
    outer loop
      vertex -13.1446 7.22631 -6
      vertex -13.9466 5.52187 4
      vertex -13.9466 5.52187 -6
    endloop
  endfacet
  facet normal 0.951057 -0.309017 0
    outer loop
      vertex -14.5287 3.73035 4
      vertex -13.9466 5.52187 -6
      vertex -13.9466 5.52187 4
    endloop
  endfacet
  facet normal 0.951057 -0.309017 0
    outer loop
      vertex -13.9466 5.52187 -6
      vertex -14.5287 3.73035 4
      vertex -14.5287 3.73035 -6
    endloop
  endfacet
  facet normal 0.24871 -0.968578 0
    outer loop
      vertex -4.63525 14.2658 -6
      vertex -2.81072 14.7343 4
      vertex -4.63525 14.2658 4
    endloop
  endfacet
  facet normal 0.24871 -0.968578 0
    outer loop
      vertex -2.81072 14.7343 4
      vertex -4.63525 14.2658 -6
      vertex -2.81072 14.7343 -6
    endloop
  endfacet
  facet normal -0.951057 -0.309017 0
    outer loop
      vertex 14.5287 3.73035 -6
      vertex 13.9466 5.52187 4
      vertex 13.9466 5.52187 -6
    endloop
  endfacet
  facet normal -0.951057 -0.309017 0
    outer loop
      vertex 13.9466 5.52187 4
      vertex 14.5287 3.73035 -6
      vertex 14.5287 3.73035 4
    endloop
  endfacet
  facet normal -0.982285 -0.187395 0
    outer loop
      vertex 14.8817 1.88 -6
      vertex 14.5287 3.73035 4
      vertex 14.5287 3.73035 -6
    endloop
  endfacet
  facet normal -0.982285 -0.187395 0
    outer loop
      vertex 14.5287 3.73035 4
      vertex 14.8817 1.88 -6
      vertex 14.8817 1.88 4
    endloop
  endfacet
  facet normal -0.770492 -0.63745 0
    outer loop
      vertex 12.1353 8.81678 -6
      vertex 10.9345 10.2682 4
      vertex 10.9345 10.2682 -6
    endloop
  endfacet
  facet normal -0.770492 -0.63745 0
    outer loop
      vertex 10.9345 10.2682 4
      vertex 12.1353 8.81678 -6
      vertex 12.1353 8.81678 4
    endloop
  endfacet
  facet normal -0.24871 -0.968578 0
    outer loop
      vertex 2.81072 14.7343 -6
      vertex 4.63525 14.2658 4
      vertex 2.81072 14.7343 4
    endloop
  endfacet
  facet normal -0.24871 -0.968578 -0
    outer loop
      vertex 4.63525 14.2658 4
      vertex 2.81072 14.7343 -6
      vertex 4.63525 14.2658 -6
    endloop
  endfacet
  facet normal -0.125337 -0.992114 0
    outer loop
      vertex 0.941857 14.9704 -6
      vertex 2.81072 14.7343 4
      vertex 0.941857 14.9704 4
    endloop
  endfacet
  facet normal -0.125337 -0.992114 -0
    outer loop
      vertex 2.81072 14.7343 4
      vertex 0.941857 14.9704 -6
      vertex 2.81072 14.7343 -6
    endloop
  endfacet
  facet normal -0.587778 -0.809022 0
    outer loop
      vertex 8.0374 12.6649 -6
      vertex 9.56136 11.5577 4
      vertex 8.0374 12.6649 4
    endloop
  endfacet
  facet normal -0.587778 -0.809022 -0
    outer loop
      vertex 9.56136 11.5577 4
      vertex 8.0374 12.6649 -6
      vertex 9.56136 11.5577 -6
    endloop
  endfacet
  facet normal 0.844338 -0.535811 0
    outer loop
      vertex -13.1446 7.22631 4
      vertex -12.1353 8.81678 -6
      vertex -12.1353 8.81678 4
    endloop
  endfacet
  facet normal 0.844338 -0.535811 0
    outer loop
      vertex -12.1353 8.81678 -6
      vertex -13.1446 7.22631 4
      vertex -13.1446 7.22631 -6
    endloop
  endfacet
  facet normal 0.770492 -0.63745 0
    outer loop
      vertex -12.1353 8.81678 4
      vertex -10.9345 10.2682 -6
      vertex -10.9345 10.2682 4
    endloop
  endfacet
  facet normal 0.770492 -0.63745 0
    outer loop
      vertex -10.9345 10.2682 -6
      vertex -12.1353 8.81678 4
      vertex -12.1353 8.81678 -6
    endloop
  endfacet
  facet normal 0.982285 -0.187395 0
    outer loop
      vertex -14.8817 1.88 4
      vertex -14.5287 3.73035 -6
      vertex -14.5287 3.73035 4
    endloop
  endfacet
  facet normal 0.982285 -0.187395 0
    outer loop
      vertex -14.5287 3.73035 -6
      vertex -14.8817 1.88 4
      vertex -14.8817 1.88 -6
    endloop
  endfacet
  facet normal 0 0 1
    outer loop
      vertex 20.5 0 6
      vertex 22.5 0 6
      vertex 22.3226 2.82 6
    endloop
  endfacet
  facet normal 0 0 1
    outer loop
      vertex 20.3384 2.56933 6
      vertex 22.3226 2.82 6
      vertex 21.7931 5.59552 6
    endloop
  endfacet
  facet normal 0 0 1
    outer loop
      vertex 22.5 0 6
      vertex 20.5 0 6
      vertex 22.3226 -2.82 6
    endloop
  endfacet
  facet normal 0 0 1
    outer loop
      vertex 19.856 5.09814 6
      vertex 21.7931 5.59552 6
      vertex 20.92 8.2828 6
    endloop
  endfacet
  facet normal -0 0 1
    outer loop
      vertex 20.3384 -2.56933 6
      vertex 22.3226 -2.82 6
      vertex 20.5 0 6
    endloop
  endfacet
  facet normal 0 0 1
    outer loop
      vertex 22.3226 -2.82 6
      vertex 20.3384 -2.56933 6
      vertex 21.7931 -5.59552 6
    endloop
  endfacet
  facet normal 0 0 1
    outer loop
      vertex 22.3226 2.82 6
      vertex 20.3384 2.56933 6
      vertex 20.5 0 6
    endloop
  endfacet
  facet normal 0 0 1
    outer loop
      vertex 21.7931 5.59552 6
      vertex 19.856 5.09814 6
      vertex 20.3384 2.56933 6
    endloop
  endfacet
  facet normal 0 0 1
    outer loop
      vertex 19.0604 7.54655 6
      vertex 20.92 8.2828 6
      vertex 19.7169 10.8395 6
    endloop
  endfacet
  facet normal 0 0 1
    outer loop
      vertex 20.92 8.2828 6
      vertex 19.0604 7.54655 6
      vertex 19.856 5.09814 6
    endloop
  endfacet
  facet normal 0 0 1
    outer loop
      vertex 17.9643 9.87595 6
      vertex 19.7169 10.8395 6
      vertex 18.2029 13.2252 6
    endloop
  endfacet
  facet normal 0 0 1
    outer loop
      vertex 19.7169 10.8395 6
      vertex 17.9643 9.87595 6
      vertex 19.0604 7.54655 6
    endloop
  endfacet
  facet normal 0 0 1
    outer loop
      vertex 18.2029 13.2252 6
      vertex 16.5848 12.0496 6
      vertex 17.9643 9.87595 6
    endloop
  endfacet
  facet normal 0 0 1
    outer loop
      vertex 16.4018 15.4023 6
      vertex 16.5848 12.0496 6
      vertex 18.2029 13.2252 6
    endloop
  endfacet
  facet normal 0 0 1
    outer loop
      vertex 16.4018 15.4023 6
      vertex 14.9439 14.0332 6
      vertex 16.5848 12.0496 6
    endloop
  endfacet
  facet normal 0 0 1
    outer loop
      vertex 14.342 17.3365 6
      vertex 14.9439 14.0332 6
      vertex 16.4018 15.4023 6
    endloop
  endfacet
  facet normal 0 0 1
    outer loop
      vertex 14.342 17.3365 6
      vertex 13.0672 15.7955 6
      vertex 14.9439 14.0332 6
    endloop
  endfacet
  facet normal 0 0 1
    outer loop
      vertex 12.0561 18.9974 6
      vertex 13.0672 15.7955 6
      vertex 14.342 17.3365 6
    endloop
  endfacet
  facet normal 0 0 1
    outer loop
      vertex 12.0561 18.9974 6
      vertex 10.9844 17.3087 6
      vertex 13.0672 15.7955 6
    endloop
  endfacet
  facet normal 0 0 1
    outer loop
      vertex 9.58003 20.3586 6
      vertex 10.9844 17.3087 6
      vertex 12.0561 18.9974 6
    endloop
  endfacet
  facet normal 0 0 1
    outer loop
      vertex 9.58003 20.3586 6
      vertex 8.72847 18.549 6
      vertex 10.9844 17.3087 6
    endloop
  endfacet
  facet normal 0 0 1
    outer loop
      vertex 6.95288 21.3988 6
      vertex 8.72847 18.549 6
      vertex 9.58003 20.3586 6
    endloop
  endfacet
  facet normal 0 0 1
    outer loop
      vertex 6.95288 21.3988 6
      vertex 6.33485 19.4967 6
      vertex 8.72847 18.549 6
    endloop
  endfacet
  facet normal 0 0 1
    outer loop
      vertex 4.21608 22.1015 6
      vertex 6.33485 19.4967 6
      vertex 6.95288 21.3988 6
    endloop
  endfacet
  facet normal 0 0 1
    outer loop
      vertex 4.21608 22.1015 6
      vertex 3.84132 20.1369 6
      vertex 6.33485 19.4967 6
    endloop
  endfacet
  facet normal 0 0 1
    outer loop
      vertex 1.41279 22.4556 6
      vertex 3.84132 20.1369 6
      vertex 4.21608 22.1015 6
    endloop
  endfacet
  facet normal 0 0 1
    outer loop
      vertex 1.41279 22.4556 6
      vertex 1.2872 20.4595 6
      vertex 3.84132 20.1369 6
    endloop
  endfacet
  facet normal 0 0 1
    outer loop
      vertex 1.41279 22.4556 6
      vertex -1.2872 20.4595 6
      vertex 1.2872 20.4595 6
    endloop
  endfacet
  facet normal -0 0 1
    outer loop
      vertex -1.41279 22.4556 6
      vertex -1.2872 20.4595 6
      vertex 1.41279 22.4556 6
    endloop
  endfacet
  facet normal 0 0 1
    outer loop
      vertex -1.41279 22.4556 6
      vertex -3.84132 20.1369 6
      vertex -1.2872 20.4595 6
    endloop
  endfacet
  facet normal -0 0 1
    outer loop
      vertex -4.21608 22.1015 6
      vertex -3.84132 20.1369 6
      vertex -1.41279 22.4556 6
    endloop
  endfacet
  facet normal 0 0 1
    outer loop
      vertex -4.21608 22.1015 6
      vertex -6.33485 19.4967 6
      vertex -3.84132 20.1369 6
    endloop
  endfacet
  facet normal -0 0 1
    outer loop
      vertex -6.95288 21.3988 6
      vertex -6.33485 19.4967 6
      vertex -4.21608 22.1015 6
    endloop
  endfacet
  facet normal 0 0 1
    outer loop
      vertex -6.95288 21.3988 6
      vertex -8.72847 18.549 6
      vertex -6.33485 19.4967 6
    endloop
  endfacet
  facet normal -0 0 1
    outer loop
      vertex -9.58003 20.3586 6
      vertex -8.72847 18.549 6
      vertex -6.95288 21.3988 6
    endloop
  endfacet
  facet normal 0 0 1
    outer loop
      vertex -9.58003 20.3586 6
      vertex -10.9844 17.3087 6
      vertex -8.72847 18.549 6
    endloop
  endfacet
  facet normal -0 0 1
    outer loop
      vertex -12.0561 18.9974 6
      vertex -10.9844 17.3087 6
      vertex -9.58003 20.3586 6
    endloop
  endfacet
  facet normal 0 0 1
    outer loop
      vertex -12.0561 18.9974 6
      vertex -13.0672 15.7955 6
      vertex -10.9844 17.3087 6
    endloop
  endfacet
  facet normal -0 0 1
    outer loop
      vertex -14.342 17.3365 6
      vertex -13.0672 15.7955 6
      vertex -12.0561 18.9974 6
    endloop
  endfacet
  facet normal 0 0 1
    outer loop
      vertex -14.342 17.3365 6
      vertex -14.9439 14.0332 6
      vertex -13.0672 15.7955 6
    endloop
  endfacet
  facet normal -0 0 1
    outer loop
      vertex -16.4018 15.4023 6
      vertex -14.9439 14.0332 6
      vertex -14.342 17.3365 6
    endloop
  endfacet
  facet normal 0 0 1
    outer loop
      vertex -16.4018 15.4023 6
      vertex -16.5848 12.0496 6
      vertex -14.9439 14.0332 6
    endloop
  endfacet
  facet normal -0 0 1
    outer loop
      vertex -18.2029 13.2252 6
      vertex -16.5848 12.0496 6
      vertex -16.4018 15.4023 6
    endloop
  endfacet
  facet normal 0 0 1
    outer loop
      vertex -16.5848 12.0496 6
      vertex -18.2029 13.2252 6
      vertex -17.9643 9.87595 6
    endloop
  endfacet
  facet normal -0 0 1
    outer loop
      vertex -19.7169 10.8395 6
      vertex -17.9643 9.87595 6
      vertex -18.2029 13.2252 6
    endloop
  endfacet
  facet normal 0 0 1
    outer loop
      vertex -17.9643 9.87595 6
      vertex -19.7169 10.8395 6
      vertex -19.0604 7.54655 6
    endloop
  endfacet
  facet normal -0 0 1
    outer loop
      vertex -20.92 8.2828 6
      vertex -19.0604 7.54655 6
      vertex -19.7169 10.8395 6
    endloop
  endfacet
  facet normal 0 0 1
    outer loop
      vertex -19.0604 7.54655 6
      vertex -20.92 8.2828 6
      vertex -19.856 5.09814 6
    endloop
  endfacet
  facet normal 0 0 1
    outer loop
      vertex -19.856 5.09814 6
      vertex -21.7931 5.59552 6
      vertex -20.3384 2.56933 6
    endloop
  endfacet
  facet normal -0 0 1
    outer loop
      vertex -21.7931 5.59552 6
      vertex -19.856 5.09814 6
      vertex -20.92 8.2828 6
    endloop
  endfacet
  facet normal -0 0 1
    outer loop
      vertex 19.856 -5.09814 6
      vertex 21.7931 -5.59552 6
      vertex 20.3384 -2.56933 6
    endloop
  endfacet
  facet normal 0 0 1
    outer loop
      vertex 21.7931 -5.59552 6
      vertex 19.856 -5.09814 6
      vertex 20.92 -8.2828 6
    endloop
  endfacet
  facet normal -0 0 1
    outer loop
      vertex 19.0604 -7.54655 6
      vertex 20.92 -8.2828 6
      vertex 19.856 -5.09814 6
    endloop
  endfacet
  facet normal 0 0 1
    outer loop
      vertex 20.92 -8.2828 6
      vertex 19.0604 -7.54655 6
      vertex 19.7169 -10.8395 6
    endloop
  endfacet
  facet normal -0 0 1
    outer loop
      vertex 17.9643 -9.87595 6
      vertex 19.7169 -10.8395 6
      vertex 19.0604 -7.54655 6
    endloop
  endfacet
  facet normal 0 0 1
    outer loop
      vertex 19.7169 -10.8395 6
      vertex 17.9643 -9.87595 6
      vertex 18.2029 -13.2252 6
    endloop
  endfacet
  facet normal -0 0 1
    outer loop
      vertex 16.5848 -12.0496 6
      vertex 18.2029 -13.2252 6
      vertex 17.9643 -9.87595 6
    endloop
  endfacet
  facet normal 0 0 1
    outer loop
      vertex 16.5848 -12.0496 6
      vertex 16.4018 -15.4023 6
      vertex 18.2029 -13.2252 6
    endloop
  endfacet
  facet normal -0 0 1
    outer loop
      vertex 14.9439 -14.0332 6
      vertex 16.4018 -15.4023 6
      vertex 16.5848 -12.0496 6
    endloop
  endfacet
  facet normal 0 0 1
    outer loop
      vertex 14.9439 -14.0332 6
      vertex 14.342 -17.3365 6
      vertex 16.4018 -15.4023 6
    endloop
  endfacet
  facet normal -0 0 1
    outer loop
      vertex 13.0672 -15.7955 6
      vertex 14.342 -17.3365 6
      vertex 14.9439 -14.0332 6
    endloop
  endfacet
  facet normal 0 0 1
    outer loop
      vertex 13.0672 -15.7955 6
      vertex 12.0561 -18.9974 6
      vertex 14.342 -17.3365 6
    endloop
  endfacet
  facet normal -0 0 1
    outer loop
      vertex 10.9844 -17.3087 6
      vertex 12.0561 -18.9974 6
      vertex 13.0672 -15.7955 6
    endloop
  endfacet
  facet normal 0 0 1
    outer loop
      vertex 10.9844 -17.3087 6
      vertex 9.58003 -20.3586 6
      vertex 12.0561 -18.9974 6
    endloop
  endfacet
  facet normal -0 0 1
    outer loop
      vertex 8.72847 -18.549 6
      vertex 9.58003 -20.3586 6
      vertex 10.9844 -17.3087 6
    endloop
  endfacet
  facet normal 0 0 1
    outer loop
      vertex 8.72847 -18.549 6
      vertex 6.95288 -21.3988 6
      vertex 9.58003 -20.3586 6
    endloop
  endfacet
  facet normal -0 0 1
    outer loop
      vertex 6.33485 -19.4967 6
      vertex 6.95288 -21.3988 6
      vertex 8.72847 -18.549 6
    endloop
  endfacet
  facet normal 0 0 1
    outer loop
      vertex 6.33485 -19.4967 6
      vertex 4.21608 -22.1015 6
      vertex 6.95288 -21.3988 6
    endloop
  endfacet
  facet normal -0 0 1
    outer loop
      vertex 3.84132 -20.1369 6
      vertex 4.21608 -22.1015 6
      vertex 6.33485 -19.4967 6
    endloop
  endfacet
  facet normal 0 0 1
    outer loop
      vertex 3.84132 -20.1369 6
      vertex 1.41279 -22.4556 6
      vertex 4.21608 -22.1015 6
    endloop
  endfacet
  facet normal -0 0 1
    outer loop
      vertex 1.2872 -20.4595 6
      vertex 1.41279 -22.4556 6
      vertex 3.84132 -20.1369 6
    endloop
  endfacet
  facet normal -0 0 1
    outer loop
      vertex -1.2872 -20.4595 6
      vertex 1.41279 -22.4556 6
      vertex 1.2872 -20.4595 6
    endloop
  endfacet
  facet normal 0 0 1
    outer loop
      vertex -1.2872 -20.4595 6
      vertex -1.41279 -22.4556 6
      vertex 1.41279 -22.4556 6
    endloop
  endfacet
  facet normal 0 0 1
    outer loop
      vertex -3.84132 -20.1369 6
      vertex -1.41279 -22.4556 6
      vertex -1.2872 -20.4595 6
    endloop
  endfacet
  facet normal 0 0 1
    outer loop
      vertex -3.84132 -20.1369 6
      vertex -4.21608 -22.1015 6
      vertex -1.41279 -22.4556 6
    endloop
  endfacet
  facet normal 0 0 1
    outer loop
      vertex -6.33485 -19.4967 6
      vertex -4.21608 -22.1015 6
      vertex -3.84132 -20.1369 6
    endloop
  endfacet
  facet normal 0 0 1
    outer loop
      vertex -6.33485 -19.4967 6
      vertex -6.95288 -21.3988 6
      vertex -4.21608 -22.1015 6
    endloop
  endfacet
  facet normal 0 0 1
    outer loop
      vertex -8.72847 -18.549 6
      vertex -6.95288 -21.3988 6
      vertex -6.33485 -19.4967 6
    endloop
  endfacet
  facet normal 0 0 1
    outer loop
      vertex -8.72847 -18.549 6
      vertex -9.58003 -20.3586 6
      vertex -6.95288 -21.3988 6
    endloop
  endfacet
  facet normal 0 0 1
    outer loop
      vertex -10.9844 -17.3087 6
      vertex -9.58003 -20.3586 6
      vertex -8.72847 -18.549 6
    endloop
  endfacet
  facet normal 0 0 1
    outer loop
      vertex -10.9844 -17.3087 6
      vertex -12.0561 -18.9974 6
      vertex -9.58003 -20.3586 6
    endloop
  endfacet
  facet normal 0 0 1
    outer loop
      vertex -13.0672 -15.7955 6
      vertex -12.0561 -18.9974 6
      vertex -10.9844 -17.3087 6
    endloop
  endfacet
  facet normal 0 0 1
    outer loop
      vertex -13.0672 -15.7955 6
      vertex -14.342 -17.3365 6
      vertex -12.0561 -18.9974 6
    endloop
  endfacet
  facet normal 0 0 1
    outer loop
      vertex -14.9439 -14.0332 6
      vertex -14.342 -17.3365 6
      vertex -13.0672 -15.7955 6
    endloop
  endfacet
  facet normal 0 0 1
    outer loop
      vertex -14.9439 -14.0332 6
      vertex -16.4018 -15.4023 6
      vertex -14.342 -17.3365 6
    endloop
  endfacet
  facet normal 0 0 1
    outer loop
      vertex -16.5848 -12.0496 6
      vertex -16.4018 -15.4023 6
      vertex -14.9439 -14.0332 6
    endloop
  endfacet
  facet normal 0 0 1
    outer loop
      vertex -18.2029 -13.2252 6
      vertex -16.5848 -12.0496 6
      vertex -17.9643 -9.87595 6
    endloop
  endfacet
  facet normal 0 0 1
    outer loop
      vertex -16.5848 -12.0496 6
      vertex -18.2029 -13.2252 6
      vertex -16.4018 -15.4023 6
    endloop
  endfacet
  facet normal 0 0 1
    outer loop
      vertex -19.7169 -10.8395 6
      vertex -17.9643 -9.87595 6
      vertex -19.0604 -7.54655 6
    endloop
  endfacet
  facet normal 0 0 1
    outer loop
      vertex -17.9643 -9.87595 6
      vertex -19.7169 -10.8395 6
      vertex -18.2029 -13.2252 6
    endloop
  endfacet
  facet normal 0 0 1
    outer loop
      vertex -20.92 -8.2828 6
      vertex -19.0604 -7.54655 6
      vertex -19.856 -5.09814 6
    endloop
  endfacet
  facet normal 0 0 1
    outer loop
      vertex -21.7931 -5.59552 6
      vertex -19.856 -5.09814 6
      vertex -20.3384 -2.56933 6
    endloop
  endfacet
  facet normal 0 0 1
    outer loop
      vertex -19.0604 -7.54655 6
      vertex -20.92 -8.2828 6
      vertex -19.7169 -10.8395 6
    endloop
  endfacet
  facet normal 0 0 1
    outer loop
      vertex -22.3226 -2.82 6
      vertex -20.3384 -2.56933 6
      vertex -20.5 0 6
    endloop
  endfacet
  facet normal -0 0 1
    outer loop
      vertex -22.3226 2.82 6
      vertex -20.3384 2.56933 6
      vertex -21.7931 5.59552 6
    endloop
  endfacet
  facet normal 0 0 1
    outer loop
      vertex -20.3384 2.56933 6
      vertex -22.3226 2.82 6
      vertex -20.5 0 6
    endloop
  endfacet
  facet normal 0 0 1
    outer loop
      vertex -19.856 -5.09814 6
      vertex -21.7931 -5.59552 6
      vertex -20.92 -8.2828 6
    endloop
  endfacet
  facet normal 0 0 1
    outer loop
      vertex -22.5 0 6
      vertex -20.5 0 6
      vertex -22.3226 2.82 6
    endloop
  endfacet
  facet normal 0 0 1
    outer loop
      vertex -20.3384 -2.56933 6
      vertex -22.3226 -2.82 6
      vertex -21.7931 -5.59552 6
    endloop
  endfacet
  facet normal 0 0 1
    outer loop
      vertex -20.5 0 6
      vertex -22.5 0 6
      vertex -22.3226 -2.82 6
    endloop
  endfacet
  facet normal 0.48176 -0.876303 0
    outer loop
      vertex -8.0374 12.6649 -6
      vertex -6.38669 13.5724 4
      vertex -8.0374 12.6649 4
    endloop
  endfacet
  facet normal 0.48176 -0.876303 0
    outer loop
      vertex -6.38669 13.5724 4
      vertex -8.0374 12.6649 -6
      vertex -6.38669 13.5724 -6
    endloop
  endfacet
  facet normal 0.587778 -0.809022 0
    outer loop
      vertex -9.56136 11.5577 -6
      vertex -8.0374 12.6649 4
      vertex -9.56136 11.5577 4
    endloop
  endfacet
  facet normal 0.587778 -0.809022 0
    outer loop
      vertex -8.0374 12.6649 4
      vertex -9.56136 11.5577 -6
      vertex -8.0374 12.6649 -6
    endloop
  endfacet
  facet normal 0.125337 -0.992114 0
    outer loop
      vertex -2.81072 14.7343 -6
      vertex -0.941857 14.9704 4
      vertex -2.81072 14.7343 4
    endloop
  endfacet
  facet normal 0.125337 -0.992114 0
    outer loop
      vertex -0.941857 14.9704 4
      vertex -2.81072 14.7343 -6
      vertex -0.941857 14.9704 -6
    endloop
  endfacet
  facet normal -0.998026 0.0628013 0
    outer loop
      vertex 14.8817 -1.88 -6
      vertex 15 0 4
      vertex 15 0 -6
    endloop
  endfacet
  facet normal -0.998026 0.0628013 0
    outer loop
      vertex 15 0 4
      vertex 14.8817 -1.88 -6
      vertex 14.8817 -1.88 4
    endloop
  endfacet
  facet normal -0.770492 0.63745 0
    outer loop
      vertex 10.9345 -10.2682 -6
      vertex 12.1353 -8.81678 4
      vertex 12.1353 -8.81678 -6
    endloop
  endfacet
  facet normal -0.770492 0.63745 0
    outer loop
      vertex 12.1353 -8.81678 4
      vertex 10.9345 -10.2682 -6
      vertex 10.9345 -10.2682 4
    endloop
  endfacet
  facet normal -0.904837 0.425758 0
    outer loop
      vertex 13.1446 -7.22631 -6
      vertex 13.9466 -5.52187 4
      vertex 13.9466 -5.52187 -6
    endloop
  endfacet
  facet normal -0.904837 0.425758 0
    outer loop
      vertex 13.9466 -5.52187 4
      vertex 13.1446 -7.22631 -6
      vertex 13.1446 -7.22631 4
    endloop
  endfacet
  facet normal -0.982285 0.187395 0
    outer loop
      vertex 14.5287 -3.73035 -6
      vertex 14.8817 -1.88 4
      vertex 14.8817 -1.88 -6
    endloop
  endfacet
  facet normal -0.982285 0.187395 0
    outer loop
      vertex 14.8817 -1.88 4
      vertex 14.5287 -3.73035 -6
      vertex 14.5287 -3.73035 4
    endloop
  endfacet
  facet normal 0 0 -1
    outer loop
      vertex 15 0 -6
      vertex 22.5 0 -6
      vertex 22.3226 -2.82 -6
    endloop
  endfacet
  facet normal 0 0 -1
    outer loop
      vertex 14.8817 -1.88 -6
      vertex 22.3226 -2.82 -6
      vertex 21.7931 -5.59552 -6
    endloop
  endfacet
  facet normal 0 0 -1
    outer loop
      vertex 22.5 0 -6
      vertex 15 0 -6
      vertex 22.3226 2.82 -6
    endloop
  endfacet
  facet normal 0 0 -1
    outer loop
      vertex 14.5287 -3.73035 -6
      vertex 21.7931 -5.59552 -6
      vertex 20.92 -8.2828 -6
    endloop
  endfacet
  facet normal 0 0 -1
    outer loop
      vertex 14.8817 1.88 -6
      vertex 22.3226 2.82 -6
      vertex 15 0 -6
    endloop
  endfacet
  facet normal 0 0 -1
    outer loop
      vertex 13.9466 -5.52187 -6
      vertex 20.92 -8.2828 -6
      vertex 19.7169 -10.8395 -6
    endloop
  endfacet
  facet normal -0 0 -1
    outer loop
      vertex 22.3226 2.82 -6
      vertex 14.8817 1.88 -6
      vertex 21.7931 5.59552 -6
    endloop
  endfacet
  facet normal 0 0 -1
    outer loop
      vertex 13.1446 -7.22631 -6
      vertex 19.7169 -10.8395 -6
      vertex 18.2029 -13.2252 -6
    endloop
  endfacet
  facet normal 0 0 -1
    outer loop
      vertex 14.5287 3.73035 -6
      vertex 21.7931 5.59552 -6
      vertex 14.8817 1.88 -6
    endloop
  endfacet
  facet normal 0 0 -1
    outer loop
      vertex 12.1353 -8.81678 -6
      vertex 18.2029 -13.2252 -6
      vertex 16.4018 -15.4023 -6
    endloop
  endfacet
  facet normal -0 0 -1
    outer loop
      vertex 21.7931 5.59552 -6
      vertex 14.5287 3.73035 -6
      vertex 20.92 8.2828 -6
    endloop
  endfacet
  facet normal 0 0 -1
    outer loop
      vertex 13.9466 5.52187 -6
      vertex 20.92 8.2828 -6
      vertex 14.5287 3.73035 -6
    endloop
  endfacet
  facet normal 0 0 -1
    outer loop
      vertex 22.3226 -2.82 -6
      vertex 14.8817 -1.88 -6
      vertex 15 0 -6
    endloop
  endfacet
  facet normal 0 0 -1
    outer loop
      vertex 21.7931 -5.59552 -6
      vertex 14.5287 -3.73035 -6
      vertex 14.8817 -1.88 -6
    endloop
  endfacet
  facet normal 0 0 -1
    outer loop
      vertex 10.9345 -10.2682 -6
      vertex 16.4018 -15.4023 -6
      vertex 14.342 -17.3365 -6
    endloop
  endfacet
  facet normal 0 0 -1
    outer loop
      vertex 20.92 -8.2828 -6
      vertex 13.9466 -5.52187 -6
      vertex 14.5287 -3.73035 -6
    endloop
  endfacet
  facet normal 0 0 -1
    outer loop
      vertex 19.7169 -10.8395 -6
      vertex 13.1446 -7.22631 -6
      vertex 13.9466 -5.52187 -6
    endloop
  endfacet
  facet normal 0 0 -1
    outer loop
      vertex 18.2029 -13.2252 -6
      vertex 12.1353 -8.81678 -6
      vertex 13.1446 -7.22631 -6
    endloop
  endfacet
  facet normal 0 0 -1
    outer loop
      vertex 9.56136 -11.5577 -6
      vertex 14.342 -17.3365 -6
      vertex 12.0561 -18.9974 -6
    endloop
  endfacet
  facet normal 0 0 -1
    outer loop
      vertex 16.4018 -15.4023 -6
      vertex 10.9345 -10.2682 -6
      vertex 12.1353 -8.81678 -6
    endloop
  endfacet
  facet normal 0 0 -1
    outer loop
      vertex 8.0374 -12.6649 -6
      vertex 12.0561 -18.9974 -6
      vertex 9.58003 -20.3586 -6
    endloop
  endfacet
  facet normal 0 0 -1
    outer loop
      vertex 14.342 -17.3365 -6
      vertex 9.56136 -11.5577 -6
      vertex 10.9345 -10.2682 -6
    endloop
  endfacet
  facet normal 0 0 -1
    outer loop
      vertex 12.0561 -18.9974 -6
      vertex 8.0374 -12.6649 -6
      vertex 9.56136 -11.5577 -6
    endloop
  endfacet
  facet normal 0 0 -1
    outer loop
      vertex 6.38669 -13.5724 -6
      vertex 9.58003 -20.3586 -6
      vertex 6.95288 -21.3988 -6
    endloop
  endfacet
  facet normal 0 0 -1
    outer loop
      vertex 9.58003 -20.3586 -6
      vertex 6.38669 -13.5724 -6
      vertex 8.0374 -12.6649 -6
    endloop
  endfacet
  facet normal 0 0 -1
    outer loop
      vertex 6.95288 -21.3988 -6
      vertex 4.63525 -14.2658 -6
      vertex 6.38669 -13.5724 -6
    endloop
  endfacet
  facet normal 0 0 -1
    outer loop
      vertex 4.21608 -22.1015 -6
      vertex 4.63525 -14.2658 -6
      vertex 6.95288 -21.3988 -6
    endloop
  endfacet
  facet normal 0 0 -1
    outer loop
      vertex 4.21608 -22.1015 -6
      vertex 2.81072 -14.7343 -6
      vertex 4.63525 -14.2658 -6
    endloop
  endfacet
  facet normal 0 0 -1
    outer loop
      vertex 1.41279 -22.4556 -6
      vertex 2.81072 -14.7343 -6
      vertex 4.21608 -22.1015 -6
    endloop
  endfacet
  facet normal 0 0 -1
    outer loop
      vertex 1.41279 -22.4556 -6
      vertex 0.941857 -14.9704 -6
      vertex 2.81072 -14.7343 -6
    endloop
  endfacet
  facet normal 0 0 -1
    outer loop
      vertex 1.41279 -22.4556 -6
      vertex -0.941857 -14.9704 -6
      vertex 0.941857 -14.9704 -6
    endloop
  endfacet
  facet normal 0 0 -1
    outer loop
      vertex -1.41279 -22.4556 -6
      vertex -0.941857 -14.9704 -6
      vertex 1.41279 -22.4556 -6
    endloop
  endfacet
  facet normal 0 0 -1
    outer loop
      vertex -1.41279 -22.4556 -6
      vertex -2.81072 -14.7343 -6
      vertex -0.941857 -14.9704 -6
    endloop
  endfacet
  facet normal 0 0 -1
    outer loop
      vertex -4.21608 -22.1015 -6
      vertex -2.81072 -14.7343 -6
      vertex -1.41279 -22.4556 -6
    endloop
  endfacet
  facet normal 0 0 -1
    outer loop
      vertex -4.21608 -22.1015 -6
      vertex -4.63525 -14.2658 -6
      vertex -2.81072 -14.7343 -6
    endloop
  endfacet
  facet normal 0 0 -1
    outer loop
      vertex -6.95288 -21.3988 -6
      vertex -4.63525 -14.2658 -6
      vertex -4.21608 -22.1015 -6
    endloop
  endfacet
  facet normal -0 0 -1
    outer loop
      vertex -4.63525 -14.2658 -6
      vertex -6.95288 -21.3988 -6
      vertex -6.38669 -13.5724 -6
    endloop
  endfacet
  facet normal 0 0 -1
    outer loop
      vertex -9.58003 -20.3586 -6
      vertex -6.38669 -13.5724 -6
      vertex -6.95288 -21.3988 -6
    endloop
  endfacet
  facet normal -0 0 -1
    outer loop
      vertex -6.38669 -13.5724 -6
      vertex -9.58003 -20.3586 -6
      vertex -8.0374 -12.6649 -6
    endloop
  endfacet
  facet normal 0 0 -1
    outer loop
      vertex -12.0561 -18.9974 -6
      vertex -8.0374 -12.6649 -6
      vertex -9.58003 -20.3586 -6
    endloop
  endfacet
  facet normal -0 0 -1
    outer loop
      vertex -8.0374 -12.6649 -6
      vertex -12.0561 -18.9974 -6
      vertex -9.56136 -11.5577 -6
    endloop
  endfacet
  facet normal 0 0 -1
    outer loop
      vertex -14.342 -17.3365 -6
      vertex -9.56136 -11.5577 -6
      vertex -12.0561 -18.9974 -6
    endloop
  endfacet
  facet normal -0 0 -1
    outer loop
      vertex -9.56136 -11.5577 -6
      vertex -14.342 -17.3365 -6
      vertex -10.9345 -10.2682 -6
    endloop
  endfacet
  facet normal 0 0 -1
    outer loop
      vertex -16.4018 -15.4023 -6
      vertex -10.9345 -10.2682 -6
      vertex -14.342 -17.3365 -6
    endloop
  endfacet
  facet normal -0 0 -1
    outer loop
      vertex -10.9345 -10.2682 -6
      vertex -16.4018 -15.4023 -6
      vertex -12.1353 -8.81678 -6
    endloop
  endfacet
  facet normal 0 0 -1
    outer loop
      vertex -18.2029 -13.2252 -6
      vertex -12.1353 -8.81678 -6
      vertex -16.4018 -15.4023 -6
    endloop
  endfacet
  facet normal -0 0 -1
    outer loop
      vertex -12.1353 -8.81678 -6
      vertex -18.2029 -13.2252 -6
      vertex -13.1446 -7.22631 -6
    endloop
  endfacet
  facet normal 0 0 -1
    outer loop
      vertex -19.7169 -10.8395 -6
      vertex -13.1446 -7.22631 -6
      vertex -18.2029 -13.2252 -6
    endloop
  endfacet
  facet normal -0 0 -1
    outer loop
      vertex -13.1446 -7.22631 -6
      vertex -19.7169 -10.8395 -6
      vertex -13.9466 -5.52187 -6
    endloop
  endfacet
  facet normal 0 0 -1
    outer loop
      vertex -20.92 -8.2828 -6
      vertex -13.9466 -5.52187 -6
      vertex -19.7169 -10.8395 -6
    endloop
  endfacet
  facet normal -0 0 -1
    outer loop
      vertex 20.92 8.2828 -6
      vertex 13.9466 5.52187 -6
      vertex 19.7169 10.8395 -6
    endloop
  endfacet
  facet normal 0 0 -1
    outer loop
      vertex 13.1446 7.22631 -6
      vertex 19.7169 10.8395 -6
      vertex 13.9466 5.52187 -6
    endloop
  endfacet
  facet normal -0 0 -1
    outer loop
      vertex 19.7169 10.8395 -6
      vertex 13.1446 7.22631 -6
      vertex 18.2029 13.2252 -6
    endloop
  endfacet
  facet normal 0 0 -1
    outer loop
      vertex 12.1353 8.81678 -6
      vertex 18.2029 13.2252 -6
      vertex 13.1446 7.22631 -6
    endloop
  endfacet
  facet normal -0 0 -1
    outer loop
      vertex 18.2029 13.2252 -6
      vertex 12.1353 8.81678 -6
      vertex 16.4018 15.4023 -6
    endloop
  endfacet
  facet normal 0 0 -1
    outer loop
      vertex 10.9345 10.2682 -6
      vertex 16.4018 15.4023 -6
      vertex 12.1353 8.81678 -6
    endloop
  endfacet
  facet normal -0 0 -1
    outer loop
      vertex 16.4018 15.4023 -6
      vertex 10.9345 10.2682 -6
      vertex 14.342 17.3365 -6
    endloop
  endfacet
  facet normal 0 0 -1
    outer loop
      vertex 9.56136 11.5577 -6
      vertex 14.342 17.3365 -6
      vertex 10.9345 10.2682 -6
    endloop
  endfacet
  facet normal -0 0 -1
    outer loop
      vertex 14.342 17.3365 -6
      vertex 9.56136 11.5577 -6
      vertex 12.0561 18.9974 -6
    endloop
  endfacet
  facet normal 0 0 -1
    outer loop
      vertex 8.0374 12.6649 -6
      vertex 12.0561 18.9974 -6
      vertex 9.56136 11.5577 -6
    endloop
  endfacet
  facet normal -0 0 -1
    outer loop
      vertex 12.0561 18.9974 -6
      vertex 8.0374 12.6649 -6
      vertex 9.58003 20.3586 -6
    endloop
  endfacet
  facet normal 0 0 -1
    outer loop
      vertex 6.38669 13.5724 -6
      vertex 9.58003 20.3586 -6
      vertex 8.0374 12.6649 -6
    endloop
  endfacet
  facet normal -0 0 -1
    outer loop
      vertex 9.58003 20.3586 -6
      vertex 6.38669 13.5724 -6
      vertex 6.95288 21.3988 -6
    endloop
  endfacet
  facet normal 0 0 -1
    outer loop
      vertex 4.63525 14.2658 -6
      vertex 6.95288 21.3988 -6
      vertex 6.38669 13.5724 -6
    endloop
  endfacet
  facet normal 0 0 -1
    outer loop
      vertex 4.63525 14.2658 -6
      vertex 4.21608 22.1015 -6
      vertex 6.95288 21.3988 -6
    endloop
  endfacet
  facet normal 0 0 -1
    outer loop
      vertex 2.81072 14.7343 -6
      vertex 4.21608 22.1015 -6
      vertex 4.63525 14.2658 -6
    endloop
  endfacet
  facet normal 0 0 -1
    outer loop
      vertex 2.81072 14.7343 -6
      vertex 1.41279 22.4556 -6
      vertex 4.21608 22.1015 -6
    endloop
  endfacet
  facet normal 0 0 -1
    outer loop
      vertex 0.941857 14.9704 -6
      vertex 1.41279 22.4556 -6
      vertex 2.81072 14.7343 -6
    endloop
  endfacet
  facet normal 0 0 -1
    outer loop
      vertex -0.941857 14.9704 -6
      vertex 1.41279 22.4556 -6
      vertex 0.941857 14.9704 -6
    endloop
  endfacet
  facet normal 0 0 -1
    outer loop
      vertex -0.941857 14.9704 -6
      vertex -1.41279 22.4556 -6
      vertex 1.41279 22.4556 -6
    endloop
  endfacet
  facet normal 0 0 -1
    outer loop
      vertex -2.81072 14.7343 -6
      vertex -1.41279 22.4556 -6
      vertex -0.941857 14.9704 -6
    endloop
  endfacet
  facet normal 0 0 -1
    outer loop
      vertex -2.81072 14.7343 -6
      vertex -4.21608 22.1015 -6
      vertex -1.41279 22.4556 -6
    endloop
  endfacet
  facet normal 0 0 -1
    outer loop
      vertex -4.63525 14.2658 -6
      vertex -4.21608 22.1015 -6
      vertex -2.81072 14.7343 -6
    endloop
  endfacet
  facet normal 0 0 -1
    outer loop
      vertex -6.95288 21.3988 -6
      vertex -4.63525 14.2658 -6
      vertex -6.38669 13.5724 -6
    endloop
  endfacet
  facet normal 0 0 -1
    outer loop
      vertex -4.63525 14.2658 -6
      vertex -6.95288 21.3988 -6
      vertex -4.21608 22.1015 -6
    endloop
  endfacet
  facet normal 0 0 -1
    outer loop
      vertex -9.58003 20.3586 -6
      vertex -6.38669 13.5724 -6
      vertex -8.0374 12.6649 -6
    endloop
  endfacet
  facet normal 0 0 -1
    outer loop
      vertex -12.0561 18.9974 -6
      vertex -8.0374 12.6649 -6
      vertex -9.56136 11.5577 -6
    endloop
  endfacet
  facet normal 0 0 -1
    outer loop
      vertex -6.38669 13.5724 -6
      vertex -9.58003 20.3586 -6
      vertex -6.95288 21.3988 -6
    endloop
  endfacet
  facet normal 0 0 -1
    outer loop
      vertex -14.342 17.3365 -6
      vertex -9.56136 11.5577 -6
      vertex -10.9345 10.2682 -6
    endloop
  endfacet
  facet normal 0 0 -1
    outer loop
      vertex -8.0374 12.6649 -6
      vertex -12.0561 18.9974 -6
      vertex -9.58003 20.3586 -6
    endloop
  endfacet
  facet normal 0 0 -1
    outer loop
      vertex -16.4018 15.4023 -6
      vertex -10.9345 10.2682 -6
      vertex -12.1353 8.81678 -6
    endloop
  endfacet
  facet normal 0 0 -1
    outer loop
      vertex -18.2029 13.2252 -6
      vertex -12.1353 8.81678 -6
      vertex -13.1446 7.22631 -6
    endloop
  endfacet
  facet normal 0 0 -1
    outer loop
      vertex -19.7169 10.8395 -6
      vertex -13.1446 7.22631 -6
      vertex -13.9466 5.52187 -6
    endloop
  endfacet
  facet normal 0 0 -1
    outer loop
      vertex -9.56136 11.5577 -6
      vertex -14.342 17.3365 -6
      vertex -12.0561 18.9974 -6
    endloop
  endfacet
  facet normal 0 0 -1
    outer loop
      vertex -20.92 8.2828 -6
      vertex -13.9466 5.52187 -6
      vertex -14.5287 3.73035 -6
    endloop
  endfacet
  facet normal 0 0 -1
    outer loop
      vertex -21.7931 5.59552 -6
      vertex -14.5287 3.73035 -6
      vertex -14.8817 1.88 -6
    endloop
  endfacet
  facet normal 0 0 -1
    outer loop
      vertex -22.3226 2.82 -6
      vertex -14.8817 1.88 -6
      vertex -15 0 -6
    endloop
  endfacet
  facet normal -0 0 -1
    outer loop
      vertex -13.9466 -5.52187 -6
      vertex -20.92 -8.2828 -6
      vertex -14.5287 -3.73035 -6
    endloop
  endfacet
  facet normal 0 0 -1
    outer loop
      vertex -10.9345 10.2682 -6
      vertex -16.4018 15.4023 -6
      vertex -14.342 17.3365 -6
    endloop
  endfacet
  facet normal 0 0 -1
    outer loop
      vertex -21.7931 -5.59552 -6
      vertex -14.5287 -3.73035 -6
      vertex -20.92 -8.2828 -6
    endloop
  endfacet
  facet normal 0 0 -1
    outer loop
      vertex -12.1353 8.81678 -6
      vertex -18.2029 13.2252 -6
      vertex -16.4018 15.4023 -6
    endloop
  endfacet
  facet normal -0 0 -1
    outer loop
      vertex -14.5287 -3.73035 -6
      vertex -21.7931 -5.59552 -6
      vertex -14.8817 -1.88 -6
    endloop
  endfacet
  facet normal 0 0 -1
    outer loop
      vertex -13.1446 7.22631 -6
      vertex -19.7169 10.8395 -6
      vertex -18.2029 13.2252 -6
    endloop
  endfacet
  facet normal 0 0 -1
    outer loop
      vertex -22.3226 -2.82 -6
      vertex -14.8817 -1.88 -6
      vertex -21.7931 -5.59552 -6
    endloop
  endfacet
  facet normal 0 0 -1
    outer loop
      vertex -13.9466 5.52187 -6
      vertex -20.92 8.2828 -6
      vertex -19.7169 10.8395 -6
    endloop
  endfacet
  facet normal -0 0 -1
    outer loop
      vertex -14.8817 -1.88 -6
      vertex -22.3226 -2.82 -6
      vertex -15 0 -6
    endloop
  endfacet
  facet normal 0 0 -1
    outer loop
      vertex -14.5287 3.73035 -6
      vertex -21.7931 5.59552 -6
      vertex -20.92 8.2828 -6
    endloop
  endfacet
  facet normal 0 0 -1
    outer loop
      vertex -22.5 0 -6
      vertex -15 0 -6
      vertex -22.3226 -2.82 -6
    endloop
  endfacet
  facet normal 0 0 -1
    outer loop
      vertex -14.8817 1.88 -6
      vertex -22.3226 2.82 -6
      vertex -21.7931 5.59552 -6
    endloop
  endfacet
  facet normal 0 0 -1
    outer loop
      vertex -15 0 -6
      vertex -22.5 0 -6
      vertex -22.3226 2.82 -6
    endloop
  endfacet
  facet normal -0.48176 0.876303 0
    outer loop
      vertex 8.0374 -12.6649 -6
      vertex 6.38669 -13.5724 4
      vertex 8.0374 -12.6649 4
    endloop
  endfacet
  facet normal -0.48176 0.876303 0
    outer loop
      vertex 6.38669 -13.5724 4
      vertex 8.0374 -12.6649 -6
      vertex 6.38669 -13.5724 -6
    endloop
  endfacet
  facet normal -0.684557 0.728959 0
    outer loop
      vertex 10.9345 -10.2682 -6
      vertex 9.56136 -11.5577 4
      vertex 10.9345 -10.2682 4
    endloop
  endfacet
  facet normal -0.684557 0.728959 0
    outer loop
      vertex 9.56136 -11.5577 4
      vertex 10.9345 -10.2682 -6
      vertex 9.56136 -11.5577 -6
    endloop
  endfacet
  facet normal -0.844338 0.535811 0
    outer loop
      vertex 12.1353 -8.81678 -6
      vertex 13.1446 -7.22631 4
      vertex 13.1446 -7.22631 -6
    endloop
  endfacet
  facet normal -0.844338 0.535811 0
    outer loop
      vertex 13.1446 -7.22631 4
      vertex 12.1353 -8.81678 -6
      vertex 12.1353 -8.81678 4
    endloop
  endfacet
  facet normal 0.770492 0.63745 0
    outer loop
      vertex -10.9345 -10.2682 4
      vertex -12.1353 -8.81678 -6
      vertex -12.1353 -8.81678 4
    endloop
  endfacet
  facet normal 0.770492 0.63745 0
    outer loop
      vertex -12.1353 -8.81678 -6
      vertex -10.9345 -10.2682 4
      vertex -10.9345 -10.2682 -6
    endloop
  endfacet
  facet normal 0.844338 0.535811 0
    outer loop
      vertex -12.1353 -8.81678 4
      vertex -13.1446 -7.22631 -6
      vertex -13.1446 -7.22631 4
    endloop
  endfacet
  facet normal 0.844338 0.535811 0
    outer loop
      vertex -13.1446 -7.22631 -6
      vertex -12.1353 -8.81678 4
      vertex -12.1353 -8.81678 -6
    endloop
  endfacet
  facet normal 0.951057 0.309017 0
    outer loop
      vertex -13.9466 -5.52187 4
      vertex -14.5287 -3.73035 -6
      vertex -14.5287 -3.73035 4
    endloop
  endfacet
  facet normal 0.951057 0.309017 0
    outer loop
      vertex -14.5287 -3.73035 -6
      vertex -13.9466 -5.52187 4
      vertex -13.9466 -5.52187 -6
    endloop
  endfacet
  facet normal -0.368104 0.929785 0
    outer loop
      vertex 6.38669 -13.5724 -6
      vertex 4.63525 -14.2658 4
      vertex 6.38669 -13.5724 4
    endloop
  endfacet
  facet normal -0.368104 0.929785 0
    outer loop
      vertex 4.63525 -14.2658 4
      vertex 6.38669 -13.5724 -6
      vertex 4.63525 -14.2658 -6
    endloop
  endfacet
  facet normal -0.24871 0.968578 0
    outer loop
      vertex 4.63525 -14.2658 -6
      vertex 2.81072 -14.7343 4
      vertex 4.63525 -14.2658 4
    endloop
  endfacet
  facet normal -0.24871 0.968578 0
    outer loop
      vertex 2.81072 -14.7343 4
      vertex 4.63525 -14.2658 -6
      vertex 2.81072 -14.7343 -6
    endloop
  endfacet
  facet normal -0.125337 0.992114 0
    outer loop
      vertex 2.81072 -14.7343 -6
      vertex 0.941857 -14.9704 4
      vertex 2.81072 -14.7343 4
    endloop
  endfacet
  facet normal -0.125337 0.992114 0
    outer loop
      vertex 0.941857 -14.9704 4
      vertex 2.81072 -14.7343 -6
      vertex 0.941857 -14.9704 -6
    endloop
  endfacet
  facet normal 0.125337 0.992114 -0
    outer loop
      vertex -0.941857 -14.9704 -6
      vertex -2.81072 -14.7343 4
      vertex -0.941857 -14.9704 4
    endloop
  endfacet
  facet normal 0.125337 0.992114 0
    outer loop
      vertex -2.81072 -14.7343 4
      vertex -0.941857 -14.9704 -6
      vertex -2.81072 -14.7343 -6
    endloop
  endfacet
  facet normal 0.368104 0.929785 -0
    outer loop
      vertex -4.63525 -14.2658 -6
      vertex -6.38669 -13.5724 4
      vertex -4.63525 -14.2658 4
    endloop
  endfacet
  facet normal 0.368104 0.929785 0
    outer loop
      vertex -6.38669 -13.5724 4
      vertex -4.63525 -14.2658 -6
      vertex -6.38669 -13.5724 -6
    endloop
  endfacet
  facet normal 0.24871 0.968578 -0
    outer loop
      vertex -2.81072 -14.7343 -6
      vertex -4.63525 -14.2658 4
      vertex -2.81072 -14.7343 4
    endloop
  endfacet
  facet normal 0.24871 0.968578 0
    outer loop
      vertex -4.63525 -14.2658 4
      vertex -2.81072 -14.7343 -6
      vertex -4.63525 -14.2658 -6
    endloop
  endfacet
  facet normal 0.684557 0.728959 -0
    outer loop
      vertex -9.56136 -11.5577 -6
      vertex -10.9345 -10.2682 4
      vertex -9.56136 -11.5577 4
    endloop
  endfacet
  facet normal 0.684557 0.728959 0
    outer loop
      vertex -10.9345 -10.2682 4
      vertex -9.56136 -11.5577 -6
      vertex -10.9345 -10.2682 -6
    endloop
  endfacet
  facet normal 0.904837 0.425758 0
    outer loop
      vertex -13.1446 -7.22631 4
      vertex -13.9466 -5.52187 -6
      vertex -13.9466 -5.52187 4
    endloop
  endfacet
  facet normal 0.904837 0.425758 0
    outer loop
      vertex -13.9466 -5.52187 -6
      vertex -13.1446 -7.22631 4
      vertex -13.1446 -7.22631 -6
    endloop
  endfacet
  facet normal 0.982285 0.187395 0
    outer loop
      vertex -14.5287 -3.73035 4
      vertex -14.8817 -1.88 -6
      vertex -14.8817 -1.88 4
    endloop
  endfacet
  facet normal 0.982285 0.187395 0
    outer loop
      vertex -14.8817 -1.88 -6
      vertex -14.5287 -3.73035 4
      vertex -14.5287 -3.73035 -6
    endloop
  endfacet
  facet normal 0.998026 0.0628013 0
    outer loop
      vertex -14.8817 -1.88 4
      vertex -15 0 -6
      vertex -15 0 4
    endloop
  endfacet
  facet normal 0.998026 0.0628013 0
    outer loop
      vertex -15 0 -6
      vertex -14.8817 -1.88 4
      vertex -14.8817 -1.88 -6
    endloop
  endfacet
  facet normal -0.587778 0.809022 0
    outer loop
      vertex 9.56136 -11.5577 -6
      vertex 8.0374 -12.6649 4
      vertex 9.56136 -11.5577 4
    endloop
  endfacet
  facet normal -0.587778 0.809022 0
    outer loop
      vertex 8.0374 -12.6649 4
      vertex 9.56136 -11.5577 -6
      vertex 8.0374 -12.6649 -6
    endloop
  endfacet
  facet normal 0.48176 0.876303 -0
    outer loop
      vertex -6.38669 -13.5724 -6
      vertex -8.0374 -12.6649 4
      vertex -6.38669 -13.5724 4
    endloop
  endfacet
  facet normal 0.48176 0.876303 0
    outer loop
      vertex -8.0374 -12.6649 4
      vertex -6.38669 -13.5724 -6
      vertex -8.0374 -12.6649 -6
    endloop
  endfacet
  facet normal 0.587778 0.809022 -0
    outer loop
      vertex -8.0374 -12.6649 -6
      vertex -9.56136 -11.5577 4
      vertex -8.0374 -12.6649 4
    endloop
  endfacet
  facet normal 0.587778 0.809022 0
    outer loop
      vertex -9.56136 -11.5577 4
      vertex -8.0374 -12.6649 -6
      vertex -9.56136 -11.5577 -6
    endloop
  endfacet
  facet normal -0.998028 -0.0627717 0
    outer loop
      vertex 20.5 0 4
      vertex 20.3384 2.56933 6
      vertex 20.3384 2.56933 4
    endloop
  endfacet
  facet normal -0.998028 -0.0627717 0
    outer loop
      vertex 20.3384 2.56933 6
      vertex 20.5 0 4
      vertex 20.5 0 6
    endloop
  endfacet
  facet normal 0.998028 -0.0627717 0
    outer loop
      vertex -20.5 0 6
      vertex -20.3384 2.56933 4
      vertex -20.3384 2.56933 6
    endloop
  endfacet
  facet normal 0.998028 -0.0627717 0
    outer loop
      vertex -20.3384 2.56933 4
      vertex -20.5 0 6
      vertex -20.5 0 4
    endloop
  endfacet
  facet normal 0 -1 0
    outer loop
      vertex -1.2872 20.4595 4
      vertex 1.2872 20.4595 6
      vertex -1.2872 20.4595 6
    endloop
  endfacet
  facet normal 0 -1 -0
    outer loop
      vertex 1.2872 20.4595 6
      vertex -1.2872 20.4595 4
      vertex 1.2872 20.4595 4
    endloop
  endfacet
  facet normal 0 1 -0
    outer loop
      vertex 1.2872 -20.4595 4
      vertex -1.2872 -20.4595 6
      vertex 1.2872 -20.4595 6
    endloop
  endfacet
  facet normal 0 1 0
    outer loop
      vertex -1.2872 -20.4595 6
      vertex 1.2872 -20.4595 4
      vertex -1.2872 -20.4595 4
    endloop
  endfacet
  facet normal -0.684539 0.728976 0
    outer loop
      vertex 14.9439 -14.0332 4
      vertex 13.0672 -15.7955 6
      vertex 14.9439 -14.0332 6
    endloop
  endfacet
  facet normal -0.684539 0.728976 0
    outer loop
      vertex 13.0672 -15.7955 6
      vertex 14.9439 -14.0332 4
      vertex 13.0672 -15.7955 4
    endloop
  endfacet
  facet normal -0.684539 -0.728976 0
    outer loop
      vertex 13.0672 15.7955 4
      vertex 14.9439 14.0332 6
      vertex 13.0672 15.7955 6
    endloop
  endfacet
  facet normal -0.684539 -0.728976 -0
    outer loop
      vertex 14.9439 14.0332 6
      vertex 13.0672 15.7955 4
      vertex 14.9439 14.0332 4
    endloop
  endfacet
  facet normal 0.684539 -0.728976 0
    outer loop
      vertex -14.9439 14.0332 4
      vertex -13.0672 15.7955 6
      vertex -14.9439 14.0332 6
    endloop
  endfacet
  facet normal 0.684539 -0.728976 0
    outer loop
      vertex -13.0672 15.7955 6
      vertex -14.9439 14.0332 4
      vertex -13.0672 15.7955 4
    endloop
  endfacet
  facet normal 0.368124 -0.929777 0
    outer loop
      vertex -8.72847 18.549 4
      vertex -6.33485 19.4967 6
      vertex -8.72847 18.549 6
    endloop
  endfacet
  facet normal 0.368124 -0.929777 0
    outer loop
      vertex -6.33485 19.4967 6
      vertex -8.72847 18.549 4
      vertex -6.33485 19.4967 4
    endloop
  endfacet
  facet normal -0.904832 -0.425769 0
    outer loop
      vertex 19.0604 7.54655 4
      vertex 17.9643 9.87595 6
      vertex 17.9643 9.87595 4
    endloop
  endfacet
  facet normal -0.904832 -0.425769 0
    outer loop
      vertex 17.9643 9.87595 6
      vertex 19.0604 7.54655 4
      vertex 19.0604 7.54655 6
    endloop
  endfacet
  facet normal -0.982287 -0.187383 0
    outer loop
      vertex 20.3384 2.56933 4
      vertex 19.856 5.09814 6
      vertex 19.856 5.09814 4
    endloop
  endfacet
  facet normal -0.982287 -0.187383 0
    outer loop
      vertex 19.856 5.09814 6
      vertex 20.3384 2.56933 4
      vertex 20.3384 2.56933 6
    endloop
  endfacet
  facet normal -0.368124 -0.929777 0
    outer loop
      vertex 6.33485 19.4967 4
      vertex 8.72847 18.549 6
      vertex 6.33485 19.4967 6
    endloop
  endfacet
  facet normal -0.368124 -0.929777 -0
    outer loop
      vertex 8.72847 18.549 6
      vertex 6.33485 19.4967 4
      vertex 8.72847 18.549 4
    endloop
  endfacet
  facet normal -0.248679 -0.968586 0
    outer loop
      vertex 3.84132 20.1369 4
      vertex 6.33485 19.4967 6
      vertex 3.84132 20.1369 6
    endloop
  endfacet
  facet normal -0.248679 -0.968586 -0
    outer loop
      vertex 6.33485 19.4967 6
      vertex 3.84132 20.1369 4
      vertex 6.33485 19.4967 4
    endloop
  endfacet
  facet normal -0.481781 -0.876292 0
    outer loop
      vertex 8.72847 18.549 4
      vertex 10.9844 17.3087 6
      vertex 8.72847 18.549 6
    endloop
  endfacet
  facet normal -0.481781 -0.876292 -0
    outer loop
      vertex 10.9844 17.3087 6
      vertex 8.72847 18.549 4
      vertex 10.9844 17.3087 4
    endloop
  endfacet
  facet normal 0.904832 -0.425769 0
    outer loop
      vertex -19.0604 7.54655 6
      vertex -17.9643 9.87595 4
      vertex -17.9643 9.87595 6
    endloop
  endfacet
  facet normal 0.904832 -0.425769 0
    outer loop
      vertex -17.9643 9.87595 4
      vertex -19.0604 7.54655 6
      vertex -19.0604 7.54655 4
    endloop
  endfacet
  facet normal 0.844317 -0.535843 0
    outer loop
      vertex -17.9643 9.87595 6
      vertex -16.5848 12.0496 4
      vertex -16.5848 12.0496 6
    endloop
  endfacet
  facet normal 0.844317 -0.535843 0
    outer loop
      vertex -16.5848 12.0496 4
      vertex -17.9643 9.87595 6
      vertex -17.9643 9.87595 4
    endloop
  endfacet
  facet normal 0.587774 -0.809025 0
    outer loop
      vertex -13.0672 15.7955 4
      vertex -10.9844 17.3087 6
      vertex -13.0672 15.7955 6
    endloop
  endfacet
  facet normal 0.587774 -0.809025 0
    outer loop
      vertex -10.9844 17.3087 6
      vertex -13.0672 15.7955 4
      vertex -10.9844 17.3087 4
    endloop
  endfacet
  facet normal 0.12531 -0.992118 0
    outer loop
      vertex -3.84132 20.1369 4
      vertex -1.2872 20.4595 6
      vertex -3.84132 20.1369 6
    endloop
  endfacet
  facet normal 0.12531 -0.992118 0
    outer loop
      vertex -1.2872 20.4595 6
      vertex -3.84132 20.1369 4
      vertex -1.2872 20.4595 4
    endloop
  endfacet
  facet normal 0 0 1
    outer loop
      vertex 15 0 4
      vertex 20.5 0 4
      vertex 20.3384 2.56933 4
    endloop
  endfacet
  facet normal 0 0 1
    outer loop
      vertex 14.8817 1.88 4
      vertex 20.3384 2.56933 4
      vertex 19.856 5.09814 4
    endloop
  endfacet
  facet normal 0 0 1
    outer loop
      vertex 20.5 0 4
      vertex 15 0 4
      vertex 20.3384 -2.56933 4
    endloop
  endfacet
  facet normal 0 0 1
    outer loop
      vertex 14.5287 3.73035 4
      vertex 19.856 5.09814 4
      vertex 19.0604 7.54655 4
    endloop
  endfacet
  facet normal -0 0 1
    outer loop
      vertex 14.8817 -1.88 4
      vertex 20.3384 -2.56933 4
      vertex 15 0 4
    endloop
  endfacet
  facet normal 0 0 1
    outer loop
      vertex 13.9466 5.52187 4
      vertex 19.0604 7.54655 4
      vertex 17.9643 9.87595 4
    endloop
  endfacet
  facet normal 0 0 1
    outer loop
      vertex 20.3384 -2.56933 4
      vertex 14.8817 -1.88 4
      vertex 19.856 -5.09814 4
    endloop
  endfacet
  facet normal 0 0 1
    outer loop
      vertex 13.1446 7.22631 4
      vertex 17.9643 9.87595 4
      vertex 16.5848 12.0496 4
    endloop
  endfacet
  facet normal -0 0 1
    outer loop
      vertex 14.5287 -3.73035 4
      vertex 19.856 -5.09814 4
      vertex 14.8817 -1.88 4
    endloop
  endfacet
  facet normal 0 0 1
    outer loop
      vertex 19.856 -5.09814 4
      vertex 14.5287 -3.73035 4
      vertex 19.0604 -7.54655 4
    endloop
  endfacet
  facet normal 0 0 1
    outer loop
      vertex 12.1353 8.81678 4
      vertex 16.5848 12.0496 4
      vertex 14.9439 14.0332 4
    endloop
  endfacet
  facet normal 0 0 1
    outer loop
      vertex 20.3384 2.56933 4
      vertex 14.8817 1.88 4
      vertex 15 0 4
    endloop
  endfacet
  facet normal 0 0 1
    outer loop
      vertex 19.856 5.09814 4
      vertex 14.5287 3.73035 4
      vertex 14.8817 1.88 4
    endloop
  endfacet
  facet normal 0 0 1
    outer loop
      vertex 19.0604 7.54655 4
      vertex 13.9466 5.52187 4
      vertex 14.5287 3.73035 4
    endloop
  endfacet
  facet normal 0 0 1
    outer loop
      vertex 17.9643 9.87595 4
      vertex 13.1446 7.22631 4
      vertex 13.9466 5.52187 4
    endloop
  endfacet
  facet normal 0 0 1
    outer loop
      vertex 10.9345 10.2682 4
      vertex 14.9439 14.0332 4
      vertex 13.0672 15.7955 4
    endloop
  endfacet
  facet normal 0 0 1
    outer loop
      vertex 16.5848 12.0496 4
      vertex 12.1353 8.81678 4
      vertex 13.1446 7.22631 4
    endloop
  endfacet
  facet normal 0 0 1
    outer loop
      vertex 9.56136 11.5577 4
      vertex 13.0672 15.7955 4
      vertex 10.9844 17.3087 4
    endloop
  endfacet
  facet normal 0 0 1
    outer loop
      vertex 14.9439 14.0332 4
      vertex 10.9345 10.2682 4
      vertex 12.1353 8.81678 4
    endloop
  endfacet
  facet normal 0 0 1
    outer loop
      vertex 13.0672 15.7955 4
      vertex 9.56136 11.5577 4
      vertex 10.9345 10.2682 4
    endloop
  endfacet
  facet normal 0 0 1
    outer loop
      vertex 8.0374 12.6649 4
      vertex 10.9844 17.3087 4
      vertex 8.72847 18.549 4
    endloop
  endfacet
  facet normal 0 0 1
    outer loop
      vertex 10.9844 17.3087 4
      vertex 8.0374 12.6649 4
      vertex 9.56136 11.5577 4
    endloop
  endfacet
  facet normal 0 0 1
    outer loop
      vertex 8.72847 18.549 4
      vertex 6.38669 13.5724 4
      vertex 8.0374 12.6649 4
    endloop
  endfacet
  facet normal 0 0 1
    outer loop
      vertex 6.33485 19.4967 4
      vertex 6.38669 13.5724 4
      vertex 8.72847 18.549 4
    endloop
  endfacet
  facet normal 0 0 1
    outer loop
      vertex 6.33485 19.4967 4
      vertex 4.63525 14.2658 4
      vertex 6.38669 13.5724 4
    endloop
  endfacet
  facet normal 0 0 1
    outer loop
      vertex 3.84132 20.1369 4
      vertex 4.63525 14.2658 4
      vertex 6.33485 19.4967 4
    endloop
  endfacet
  facet normal 0 0 1
    outer loop
      vertex 3.84132 20.1369 4
      vertex 2.81072 14.7343 4
      vertex 4.63525 14.2658 4
    endloop
  endfacet
  facet normal 0 0 1
    outer loop
      vertex 1.2872 20.4595 4
      vertex 2.81072 14.7343 4
      vertex 3.84132 20.1369 4
    endloop
  endfacet
  facet normal 0 0 1
    outer loop
      vertex 1.2872 20.4595 4
      vertex 0.941857 14.9704 4
      vertex 2.81072 14.7343 4
    endloop
  endfacet
  facet normal 0 0 1
    outer loop
      vertex 1.2872 20.4595 4
      vertex -0.941857 14.9704 4
      vertex 0.941857 14.9704 4
    endloop
  endfacet
  facet normal -0 0 1
    outer loop
      vertex -1.2872 20.4595 4
      vertex -0.941857 14.9704 4
      vertex 1.2872 20.4595 4
    endloop
  endfacet
  facet normal 0 0 1
    outer loop
      vertex -1.2872 20.4595 4
      vertex -2.81072 14.7343 4
      vertex -0.941857 14.9704 4
    endloop
  endfacet
  facet normal -0 0 1
    outer loop
      vertex -3.84132 20.1369 4
      vertex -2.81072 14.7343 4
      vertex -1.2872 20.4595 4
    endloop
  endfacet
  facet normal 0 0 1
    outer loop
      vertex -3.84132 20.1369 4
      vertex -4.63525 14.2658 4
      vertex -2.81072 14.7343 4
    endloop
  endfacet
  facet normal -0 0 1
    outer loop
      vertex -6.33485 19.4967 4
      vertex -4.63525 14.2658 4
      vertex -3.84132 20.1369 4
    endloop
  endfacet
  facet normal 0 0 1
    outer loop
      vertex -6.33485 19.4967 4
      vertex -6.38669 13.5724 4
      vertex -4.63525 14.2658 4
    endloop
  endfacet
  facet normal -0 0 1
    outer loop
      vertex -8.72847 18.549 4
      vertex -6.38669 13.5724 4
      vertex -6.33485 19.4967 4
    endloop
  endfacet
  facet normal 0 0 1
    outer loop
      vertex -6.38669 13.5724 4
      vertex -8.72847 18.549 4
      vertex -8.0374 12.6649 4
    endloop
  endfacet
  facet normal -0 0 1
    outer loop
      vertex -10.9844 17.3087 4
      vertex -8.0374 12.6649 4
      vertex -8.72847 18.549 4
    endloop
  endfacet
  facet normal 0 0 1
    outer loop
      vertex -8.0374 12.6649 4
      vertex -10.9844 17.3087 4
      vertex -9.56136 11.5577 4
    endloop
  endfacet
  facet normal -0 0 1
    outer loop
      vertex -13.0672 15.7955 4
      vertex -9.56136 11.5577 4
      vertex -10.9844 17.3087 4
    endloop
  endfacet
  facet normal 0 0 1
    outer loop
      vertex -9.56136 11.5577 4
      vertex -13.0672 15.7955 4
      vertex -10.9345 10.2682 4
    endloop
  endfacet
  facet normal -0 0 1
    outer loop
      vertex -14.9439 14.0332 4
      vertex -10.9345 10.2682 4
      vertex -13.0672 15.7955 4
    endloop
  endfacet
  facet normal 0 0 1
    outer loop
      vertex -10.9345 10.2682 4
      vertex -14.9439 14.0332 4
      vertex -12.1353 8.81678 4
    endloop
  endfacet
  facet normal -0 0 1
    outer loop
      vertex -16.5848 12.0496 4
      vertex -12.1353 8.81678 4
      vertex -14.9439 14.0332 4
    endloop
  endfacet
  facet normal 0 0 1
    outer loop
      vertex -12.1353 8.81678 4
      vertex -16.5848 12.0496 4
      vertex -13.1446 7.22631 4
    endloop
  endfacet
  facet normal -0 0 1
    outer loop
      vertex -17.9643 9.87595 4
      vertex -13.1446 7.22631 4
      vertex -16.5848 12.0496 4
    endloop
  endfacet
  facet normal 0 0 1
    outer loop
      vertex -13.1446 7.22631 4
      vertex -17.9643 9.87595 4
      vertex -13.9466 5.52187 4
    endloop
  endfacet
  facet normal -0 0 1
    outer loop
      vertex -19.0604 7.54655 4
      vertex -13.9466 5.52187 4
      vertex -17.9643 9.87595 4
    endloop
  endfacet
  facet normal 0 0 1
    outer loop
      vertex -13.9466 5.52187 4
      vertex -19.0604 7.54655 4
      vertex -14.5287 3.73035 4
    endloop
  endfacet
  facet normal -0 0 1
    outer loop
      vertex 13.9466 -5.52187 4
      vertex 19.0604 -7.54655 4
      vertex 14.5287 -3.73035 4
    endloop
  endfacet
  facet normal 0 0 1
    outer loop
      vertex 19.0604 -7.54655 4
      vertex 13.9466 -5.52187 4
      vertex 17.9643 -9.87595 4
    endloop
  endfacet
  facet normal -0 0 1
    outer loop
      vertex 13.1446 -7.22631 4
      vertex 17.9643 -9.87595 4
      vertex 13.9466 -5.52187 4
    endloop
  endfacet
  facet normal 0 0 1
    outer loop
      vertex 17.9643 -9.87595 4
      vertex 13.1446 -7.22631 4
      vertex 16.5848 -12.0496 4
    endloop
  endfacet
  facet normal -0 0 1
    outer loop
      vertex 12.1353 -8.81678 4
      vertex 16.5848 -12.0496 4
      vertex 13.1446 -7.22631 4
    endloop
  endfacet
  facet normal 0 0 1
    outer loop
      vertex 16.5848 -12.0496 4
      vertex 12.1353 -8.81678 4
      vertex 14.9439 -14.0332 4
    endloop
  endfacet
  facet normal -0 0 1
    outer loop
      vertex 10.9345 -10.2682 4
      vertex 14.9439 -14.0332 4
      vertex 12.1353 -8.81678 4
    endloop
  endfacet
  facet normal 0 0 1
    outer loop
      vertex 14.9439 -14.0332 4
      vertex 10.9345 -10.2682 4
      vertex 13.0672 -15.7955 4
    endloop
  endfacet
  facet normal -0 0 1
    outer loop
      vertex 9.56136 -11.5577 4
      vertex 13.0672 -15.7955 4
      vertex 10.9345 -10.2682 4
    endloop
  endfacet
  facet normal 0 0 1
    outer loop
      vertex 13.0672 -15.7955 4
      vertex 9.56136 -11.5577 4
      vertex 10.9844 -17.3087 4
    endloop
  endfacet
  facet normal -0 0 1
    outer loop
      vertex 8.0374 -12.6649 4
      vertex 10.9844 -17.3087 4
      vertex 9.56136 -11.5577 4
    endloop
  endfacet
  facet normal 0 0 1
    outer loop
      vertex 10.9844 -17.3087 4
      vertex 8.0374 -12.6649 4
      vertex 8.72847 -18.549 4
    endloop
  endfacet
  facet normal -0 0 1
    outer loop
      vertex 6.38669 -13.5724 4
      vertex 8.72847 -18.549 4
      vertex 8.0374 -12.6649 4
    endloop
  endfacet
  facet normal 0 0 1
    outer loop
      vertex 6.38669 -13.5724 4
      vertex 6.33485 -19.4967 4
      vertex 8.72847 -18.549 4
    endloop
  endfacet
  facet normal -0 0 1
    outer loop
      vertex 4.63525 -14.2658 4
      vertex 6.33485 -19.4967 4
      vertex 6.38669 -13.5724 4
    endloop
  endfacet
  facet normal 0 0 1
    outer loop
      vertex 4.63525 -14.2658 4
      vertex 3.84132 -20.1369 4
      vertex 6.33485 -19.4967 4
    endloop
  endfacet
  facet normal -0 0 1
    outer loop
      vertex 2.81072 -14.7343 4
      vertex 3.84132 -20.1369 4
      vertex 4.63525 -14.2658 4
    endloop
  endfacet
  facet normal 0 0 1
    outer loop
      vertex 2.81072 -14.7343 4
      vertex 1.2872 -20.4595 4
      vertex 3.84132 -20.1369 4
    endloop
  endfacet
  facet normal -0 0 1
    outer loop
      vertex 0.941857 -14.9704 4
      vertex 1.2872 -20.4595 4
      vertex 2.81072 -14.7343 4
    endloop
  endfacet
  facet normal -0 0 1
    outer loop
      vertex -0.941857 -14.9704 4
      vertex 1.2872 -20.4595 4
      vertex 0.941857 -14.9704 4
    endloop
  endfacet
  facet normal 0 0 1
    outer loop
      vertex -0.941857 -14.9704 4
      vertex -1.2872 -20.4595 4
      vertex 1.2872 -20.4595 4
    endloop
  endfacet
  facet normal 0 0 1
    outer loop
      vertex -2.81072 -14.7343 4
      vertex -1.2872 -20.4595 4
      vertex -0.941857 -14.9704 4
    endloop
  endfacet
  facet normal 0 0 1
    outer loop
      vertex -2.81072 -14.7343 4
      vertex -3.84132 -20.1369 4
      vertex -1.2872 -20.4595 4
    endloop
  endfacet
  facet normal 0 0 1
    outer loop
      vertex -4.63525 -14.2658 4
      vertex -3.84132 -20.1369 4
      vertex -2.81072 -14.7343 4
    endloop
  endfacet
  facet normal 0 0 1
    outer loop
      vertex -4.63525 -14.2658 4
      vertex -6.33485 -19.4967 4
      vertex -3.84132 -20.1369 4
    endloop
  endfacet
  facet normal 0 0 1
    outer loop
      vertex -6.38669 -13.5724 4
      vertex -6.33485 -19.4967 4
      vertex -4.63525 -14.2658 4
    endloop
  endfacet
  facet normal 0 0 1
    outer loop
      vertex -8.72847 -18.549 4
      vertex -6.38669 -13.5724 4
      vertex -8.0374 -12.6649 4
    endloop
  endfacet
  facet normal 0 0 1
    outer loop
      vertex -6.38669 -13.5724 4
      vertex -8.72847 -18.549 4
      vertex -6.33485 -19.4967 4
    endloop
  endfacet
  facet normal 0 0 1
    outer loop
      vertex -10.9844 -17.3087 4
      vertex -8.0374 -12.6649 4
      vertex -9.56136 -11.5577 4
    endloop
  endfacet
  facet normal 0 0 1
    outer loop
      vertex -13.0672 -15.7955 4
      vertex -9.56136 -11.5577 4
      vertex -10.9345 -10.2682 4
    endloop
  endfacet
  facet normal 0 0 1
    outer loop
      vertex -8.0374 -12.6649 4
      vertex -10.9844 -17.3087 4
      vertex -8.72847 -18.549 4
    endloop
  endfacet
  facet normal 0 0 1
    outer loop
      vertex -14.9439 -14.0332 4
      vertex -10.9345 -10.2682 4
      vertex -12.1353 -8.81678 4
    endloop
  endfacet
  facet normal 0 0 1
    outer loop
      vertex -9.56136 -11.5577 4
      vertex -13.0672 -15.7955 4
      vertex -10.9844 -17.3087 4
    endloop
  endfacet
  facet normal 0 0 1
    outer loop
      vertex -16.5848 -12.0496 4
      vertex -12.1353 -8.81678 4
      vertex -13.1446 -7.22631 4
    endloop
  endfacet
  facet normal 0 0 1
    outer loop
      vertex -17.9643 -9.87595 4
      vertex -13.1446 -7.22631 4
      vertex -13.9466 -5.52187 4
    endloop
  endfacet
  facet normal 0 0 1
    outer loop
      vertex -19.0604 -7.54655 4
      vertex -13.9466 -5.52187 4
      vertex -14.5287 -3.73035 4
    endloop
  endfacet
  facet normal 0 0 1
    outer loop
      vertex -19.856 -5.09814 4
      vertex -14.5287 -3.73035 4
      vertex -14.8817 -1.88 4
    endloop
  endfacet
  facet normal 0 0 1
    outer loop
      vertex -10.9345 -10.2682 4
      vertex -14.9439 -14.0332 4
      vertex -13.0672 -15.7955 4
    endloop
  endfacet
  facet normal 0 0 1
    outer loop
      vertex -20.3384 -2.56933 4
      vertex -14.8817 -1.88 4
      vertex -15 0 4
    endloop
  endfacet
  facet normal -0 0 1
    outer loop
      vertex -19.856 5.09814 4
      vertex -14.5287 3.73035 4
      vertex -19.0604 7.54655 4
    endloop
  endfacet
  facet normal 0 0 1
    outer loop
      vertex -12.1353 -8.81678 4
      vertex -16.5848 -12.0496 4
      vertex -14.9439 -14.0332 4
    endloop
  endfacet
  facet normal 0 0 1
    outer loop
      vertex -14.5287 3.73035 4
      vertex -19.856 5.09814 4
      vertex -14.8817 1.88 4
    endloop
  endfacet
  facet normal 0 0 1
    outer loop
      vertex -13.1446 -7.22631 4
      vertex -17.9643 -9.87595 4
      vertex -16.5848 -12.0496 4
    endloop
  endfacet
  facet normal -0 0 1
    outer loop
      vertex -20.3384 2.56933 4
      vertex -14.8817 1.88 4
      vertex -19.856 5.09814 4
    endloop
  endfacet
  facet normal 0 0 1
    outer loop
      vertex -13.9466 -5.52187 4
      vertex -19.0604 -7.54655 4
      vertex -17.9643 -9.87595 4
    endloop
  endfacet
  facet normal 0 0 1
    outer loop
      vertex -14.8817 1.88 4
      vertex -20.3384 2.56933 4
      vertex -15 0 4
    endloop
  endfacet
  facet normal 0 0 1
    outer loop
      vertex -14.5287 -3.73035 4
      vertex -19.856 -5.09814 4
      vertex -19.0604 -7.54655 4
    endloop
  endfacet
  facet normal 0 0 1
    outer loop
      vertex -20.5 0 4
      vertex -15 0 4
      vertex -20.3384 2.56933 4
    endloop
  endfacet
  facet normal 0 0 1
    outer loop
      vertex -14.8817 -1.88 4
      vertex -20.3384 -2.56933 4
      vertex -19.856 -5.09814 4
    endloop
  endfacet
  facet normal 0 0 1
    outer loop
      vertex -15 0 4
      vertex -20.5 0 4
      vertex -20.3384 -2.56933 4
    endloop
  endfacet
  facet normal -0.12531 0.992118 0
    outer loop
      vertex 3.84132 -20.1369 4
      vertex 1.2872 -20.4595 6
      vertex 3.84132 -20.1369 6
    endloop
  endfacet
  facet normal -0.12531 0.992118 0
    outer loop
      vertex 1.2872 -20.4595 6
      vertex 3.84132 -20.1369 4
      vertex 1.2872 -20.4595 4
    endloop
  endfacet
  facet normal -0.951049 -0.309039 0
    outer loop
      vertex 19.856 5.09814 4
      vertex 19.0604 7.54655 6
      vertex 19.0604 7.54655 4
    endloop
  endfacet
  facet normal -0.951049 -0.309039 0
    outer loop
      vertex 19.0604 7.54655 6
      vertex 19.856 5.09814 4
      vertex 19.856 5.09814 6
    endloop
  endfacet
  facet normal -0.770528 -0.637406 0
    outer loop
      vertex 16.5848 12.0496 4
      vertex 14.9439 14.0332 6
      vertex 14.9439 14.0332 4
    endloop
  endfacet
  facet normal -0.770528 -0.637406 0
    outer loop
      vertex 14.9439 14.0332 6
      vertex 16.5848 12.0496 4
      vertex 16.5848 12.0496 6
    endloop
  endfacet
  facet normal -0.844317 -0.535843 0
    outer loop
      vertex 17.9643 9.87595 4
      vertex 16.5848 12.0496 6
      vertex 16.5848 12.0496 4
    endloop
  endfacet
  facet normal -0.844317 -0.535843 0
    outer loop
      vertex 16.5848 12.0496 6
      vertex 17.9643 9.87595 4
      vertex 17.9643 9.87595 6
    endloop
  endfacet
  facet normal -0.12531 -0.992118 0
    outer loop
      vertex 1.2872 20.4595 4
      vertex 3.84132 20.1369 6
      vertex 1.2872 20.4595 6
    endloop
  endfacet
  facet normal -0.12531 -0.992118 -0
    outer loop
      vertex 3.84132 20.1369 6
      vertex 1.2872 20.4595 4
      vertex 3.84132 20.1369 4
    endloop
  endfacet
  facet normal -0.587774 -0.809025 0
    outer loop
      vertex 10.9844 17.3087 4
      vertex 13.0672 15.7955 6
      vertex 10.9844 17.3087 6
    endloop
  endfacet
  facet normal -0.587774 -0.809025 -0
    outer loop
      vertex 13.0672 15.7955 6
      vertex 10.9844 17.3087 4
      vertex 13.0672 15.7955 4
    endloop
  endfacet
  facet normal 0.770528 -0.637406 0
    outer loop
      vertex -16.5848 12.0496 6
      vertex -14.9439 14.0332 4
      vertex -14.9439 14.0332 6
    endloop
  endfacet
  facet normal 0.770528 -0.637406 0
    outer loop
      vertex -14.9439 14.0332 4
      vertex -16.5848 12.0496 6
      vertex -16.5848 12.0496 4
    endloop
  endfacet
  facet normal 0.982287 -0.187383 0
    outer loop
      vertex -20.3384 2.56933 6
      vertex -19.856 5.09814 4
      vertex -19.856 5.09814 6
    endloop
  endfacet
  facet normal 0.982287 -0.187383 0
    outer loop
      vertex -19.856 5.09814 4
      vertex -20.3384 2.56933 6
      vertex -20.3384 2.56933 4
    endloop
  endfacet
  facet normal 0.248679 -0.968586 0
    outer loop
      vertex -6.33485 19.4967 4
      vertex -3.84132 20.1369 6
      vertex -6.33485 19.4967 6
    endloop
  endfacet
  facet normal 0.248679 -0.968586 0
    outer loop
      vertex -3.84132 20.1369 6
      vertex -6.33485 19.4967 4
      vertex -3.84132 20.1369 4
    endloop
  endfacet
  facet normal -0.998028 0.0627717 0
    outer loop
      vertex 20.3384 -2.56933 4
      vertex 20.5 0 6
      vertex 20.5 0 4
    endloop
  endfacet
  facet normal -0.998028 0.0627717 0
    outer loop
      vertex 20.5 0 6
      vertex 20.3384 -2.56933 4
      vertex 20.3384 -2.56933 6
    endloop
  endfacet
  facet normal 0.844317 0.535843 0
    outer loop
      vertex -16.5848 -12.0496 6
      vertex -17.9643 -9.87595 4
      vertex -17.9643 -9.87595 6
    endloop
  endfacet
  facet normal 0.844317 0.535843 0
    outer loop
      vertex -17.9643 -9.87595 4
      vertex -16.5848 -12.0496 6
      vertex -16.5848 -12.0496 4
    endloop
  endfacet
  facet normal 0.904832 0.425769 0
    outer loop
      vertex -17.9643 -9.87595 6
      vertex -19.0604 -7.54655 4
      vertex -19.0604 -7.54655 6
    endloop
  endfacet
  facet normal 0.904832 0.425769 0
    outer loop
      vertex -19.0604 -7.54655 4
      vertex -17.9643 -9.87595 6
      vertex -17.9643 -9.87595 4
    endloop
  endfacet
  facet normal -0.368124 0.929777 0
    outer loop
      vertex 8.72847 -18.549 4
      vertex 6.33485 -19.4967 6
      vertex 8.72847 -18.549 6
    endloop
  endfacet
  facet normal -0.368124 0.929777 0
    outer loop
      vertex 6.33485 -19.4967 6
      vertex 8.72847 -18.549 4
      vertex 6.33485 -19.4967 4
    endloop
  endfacet
  facet normal 0.951049 -0.309039 0
    outer loop
      vertex -19.856 5.09814 6
      vertex -19.0604 7.54655 4
      vertex -19.0604 7.54655 6
    endloop
  endfacet
  facet normal 0.951049 -0.309039 0
    outer loop
      vertex -19.0604 7.54655 4
      vertex -19.856 5.09814 6
      vertex -19.856 5.09814 4
    endloop
  endfacet
  facet normal 0.481781 -0.876292 0
    outer loop
      vertex -10.9844 17.3087 4
      vertex -8.72847 18.549 6
      vertex -10.9844 17.3087 6
    endloop
  endfacet
  facet normal 0.481781 -0.876292 0
    outer loop
      vertex -8.72847 18.549 6
      vertex -10.9844 17.3087 4
      vertex -8.72847 18.549 4
    endloop
  endfacet
  facet normal -0.951049 0.309039 0
    outer loop
      vertex 19.0604 -7.54655 4
      vertex 19.856 -5.09814 6
      vertex 19.856 -5.09814 4
    endloop
  endfacet
  facet normal -0.951049 0.309039 0
    outer loop
      vertex 19.856 -5.09814 6
      vertex 19.0604 -7.54655 4
      vertex 19.0604 -7.54655 6
    endloop
  endfacet
  facet normal -0.982287 0.187383 0
    outer loop
      vertex 19.856 -5.09814 4
      vertex 20.3384 -2.56933 6
      vertex 20.3384 -2.56933 4
    endloop
  endfacet
  facet normal -0.982287 0.187383 0
    outer loop
      vertex 20.3384 -2.56933 6
      vertex 19.856 -5.09814 4
      vertex 19.856 -5.09814 6
    endloop
  endfacet
  facet normal -0.904832 0.425769 0
    outer loop
      vertex 17.9643 -9.87595 4
      vertex 19.0604 -7.54655 6
      vertex 19.0604 -7.54655 4
    endloop
  endfacet
  facet normal -0.904832 0.425769 0
    outer loop
      vertex 19.0604 -7.54655 6
      vertex 17.9643 -9.87595 4
      vertex 17.9643 -9.87595 6
    endloop
  endfacet
  facet normal 0.368124 0.929777 -0
    outer loop
      vertex -6.33485 -19.4967 4
      vertex -8.72847 -18.549 6
      vertex -6.33485 -19.4967 6
    endloop
  endfacet
  facet normal 0.368124 0.929777 0
    outer loop
      vertex -8.72847 -18.549 6
      vertex -6.33485 -19.4967 4
      vertex -8.72847 -18.549 4
    endloop
  endfacet
  facet normal 0.998028 0.0627717 0
    outer loop
      vertex -20.3384 -2.56933 6
      vertex -20.5 0 4
      vertex -20.5 0 6
    endloop
  endfacet
  facet normal 0.998028 0.0627717 0
    outer loop
      vertex -20.5 0 4
      vertex -20.3384 -2.56933 6
      vertex -20.3384 -2.56933 4
    endloop
  endfacet
  facet normal 0.982287 0.187383 0
    outer loop
      vertex -19.856 -5.09814 6
      vertex -20.3384 -2.56933 4
      vertex -20.3384 -2.56933 6
    endloop
  endfacet
  facet normal 0.982287 0.187383 0
    outer loop
      vertex -20.3384 -2.56933 4
      vertex -19.856 -5.09814 6
      vertex -19.856 -5.09814 4
    endloop
  endfacet
  facet normal 0.951049 0.309039 0
    outer loop
      vertex -19.0604 -7.54655 6
      vertex -19.856 -5.09814 4
      vertex -19.856 -5.09814 6
    endloop
  endfacet
  facet normal 0.951049 0.309039 0
    outer loop
      vertex -19.856 -5.09814 4
      vertex -19.0604 -7.54655 6
      vertex -19.0604 -7.54655 4
    endloop
  endfacet
  facet normal -0.481781 0.876292 0
    outer loop
      vertex 10.9844 -17.3087 4
      vertex 8.72847 -18.549 6
      vertex 10.9844 -17.3087 6
    endloop
  endfacet
  facet normal -0.481781 0.876292 0
    outer loop
      vertex 8.72847 -18.549 6
      vertex 10.9844 -17.3087 4
      vertex 8.72847 -18.549 4
    endloop
  endfacet
  facet normal -0.248679 0.968586 0
    outer loop
      vertex 6.33485 -19.4967 4
      vertex 3.84132 -20.1369 6
      vertex 6.33485 -19.4967 6
    endloop
  endfacet
  facet normal -0.248679 0.968586 0
    outer loop
      vertex 3.84132 -20.1369 6
      vertex 6.33485 -19.4967 4
      vertex 3.84132 -20.1369 4
    endloop
  endfacet
  facet normal -0.844317 0.535843 0
    outer loop
      vertex 16.5848 -12.0496 4
      vertex 17.9643 -9.87595 6
      vertex 17.9643 -9.87595 4
    endloop
  endfacet
  facet normal -0.844317 0.535843 0
    outer loop
      vertex 17.9643 -9.87595 6
      vertex 16.5848 -12.0496 4
      vertex 16.5848 -12.0496 6
    endloop
  endfacet
  facet normal -0.770528 0.637406 0
    outer loop
      vertex 14.9439 -14.0332 4
      vertex 16.5848 -12.0496 6
      vertex 16.5848 -12.0496 4
    endloop
  endfacet
  facet normal -0.770528 0.637406 0
    outer loop
      vertex 16.5848 -12.0496 6
      vertex 14.9439 -14.0332 4
      vertex 14.9439 -14.0332 6
    endloop
  endfacet
  facet normal 0.12531 0.992118 -0
    outer loop
      vertex -1.2872 -20.4595 4
      vertex -3.84132 -20.1369 6
      vertex -1.2872 -20.4595 6
    endloop
  endfacet
  facet normal 0.12531 0.992118 0
    outer loop
      vertex -3.84132 -20.1369 6
      vertex -1.2872 -20.4595 4
      vertex -3.84132 -20.1369 4
    endloop
  endfacet
  facet normal 0.684539 0.728976 -0
    outer loop
      vertex -13.0672 -15.7955 4
      vertex -14.9439 -14.0332 6
      vertex -13.0672 -15.7955 6
    endloop
  endfacet
  facet normal 0.684539 0.728976 0
    outer loop
      vertex -14.9439 -14.0332 6
      vertex -13.0672 -15.7955 4
      vertex -14.9439 -14.0332 4
    endloop
  endfacet
  facet normal 0.248679 0.968586 -0
    outer loop
      vertex -3.84132 -20.1369 4
      vertex -6.33485 -19.4967 6
      vertex -3.84132 -20.1369 6
    endloop
  endfacet
  facet normal 0.248679 0.968586 0
    outer loop
      vertex -6.33485 -19.4967 6
      vertex -3.84132 -20.1369 4
      vertex -6.33485 -19.4967 4
    endloop
  endfacet
  facet normal 0.770528 0.637406 0
    outer loop
      vertex -14.9439 -14.0332 6
      vertex -16.5848 -12.0496 4
      vertex -16.5848 -12.0496 6
    endloop
  endfacet
  facet normal 0.770528 0.637406 0
    outer loop
      vertex -16.5848 -12.0496 4
      vertex -14.9439 -14.0332 6
      vertex -14.9439 -14.0332 4
    endloop
  endfacet
  facet normal -0.587774 0.809025 0
    outer loop
      vertex 13.0672 -15.7955 4
      vertex 10.9844 -17.3087 6
      vertex 13.0672 -15.7955 6
    endloop
  endfacet
  facet normal -0.587774 0.809025 0
    outer loop
      vertex 10.9844 -17.3087 6
      vertex 13.0672 -15.7955 4
      vertex 10.9844 -17.3087 4
    endloop
  endfacet
  facet normal 0.481781 0.876292 -0
    outer loop
      vertex -8.72847 -18.549 4
      vertex -10.9844 -17.3087 6
      vertex -8.72847 -18.549 6
    endloop
  endfacet
  facet normal 0.481781 0.876292 0
    outer loop
      vertex -10.9844 -17.3087 6
      vertex -8.72847 -18.549 4
      vertex -10.9844 -17.3087 4
    endloop
  endfacet
  facet normal 0.587774 0.809025 -0
    outer loop
      vertex -10.9844 -17.3087 4
      vertex -13.0672 -15.7955 6
      vertex -10.9844 -17.3087 6
    endloop
  endfacet
  facet normal 0.587774 0.809025 0
    outer loop
      vertex -13.0672 -15.7955 6
      vertex -10.9844 -17.3087 4
      vertex -13.0672 -15.7955 4
    endloop
  endfacet
  facet normal 0.998027 0.0627837 0
    outer loop
      vertex 22.5 0 6
      vertex 22.3226 2.82 -6
      vertex 22.3226 2.82 6
    endloop
  endfacet
  facet normal 0.998027 0.0627837 0
    outer loop
      vertex 22.3226 2.82 -6
      vertex 22.5 0 6
      vertex 22.5 0 -6
    endloop
  endfacet
  facet normal -0.998027 0.0627837 0
    outer loop
      vertex -22.5 0 -6
      vertex -22.3226 2.82 6
      vertex -22.3226 2.82 -6
    endloop
  endfacet
  facet normal -0.998027 0.0627837 0
    outer loop
      vertex -22.3226 2.82 6
      vertex -22.5 0 -6
      vertex -22.5 0 6
    endloop
  endfacet
  facet normal 0 1 -0
    outer loop
      vertex 1.41279 22.4556 -6
      vertex -1.41279 22.4556 6
      vertex 1.41279 22.4556 6
    endloop
  endfacet
  facet normal 0 1 0
    outer loop
      vertex -1.41279 22.4556 6
      vertex 1.41279 22.4556 -6
      vertex -1.41279 22.4556 -6
    endloop
  endfacet
  facet normal 0 -1 0
    outer loop
      vertex -1.41279 -22.4556 -6
      vertex 1.41279 -22.4556 6
      vertex -1.41279 -22.4556 6
    endloop
  endfacet
  facet normal 0 -1 -0
    outer loop
      vertex 1.41279 -22.4556 6
      vertex -1.41279 -22.4556 -6
      vertex 1.41279 -22.4556 -6
    endloop
  endfacet
  facet normal 0.684532 0.728983 -0
    outer loop
      vertex 16.4018 15.4023 -6
      vertex 14.342 17.3365 6
      vertex 16.4018 15.4023 6
    endloop
  endfacet
  facet normal 0.684532 0.728983 0
    outer loop
      vertex 14.342 17.3365 6
      vertex 16.4018 15.4023 -6
      vertex 14.342 17.3365 -6
    endloop
  endfacet
  facet normal -0.684532 0.728983 0
    outer loop
      vertex -14.342 17.3365 -6
      vertex -16.4018 15.4023 6
      vertex -14.342 17.3365 6
    endloop
  endfacet
  facet normal -0.684532 0.728983 0
    outer loop
      vertex -16.4018 15.4023 6
      vertex -14.342 17.3365 -6
      vertex -16.4018 15.4023 -6
    endloop
  endfacet
  facet normal -0.368136 0.929772 0
    outer loop
      vertex -6.95288 21.3988 -6
      vertex -9.58003 20.3586 6
      vertex -6.95288 21.3988 6
    endloop
  endfacet
  facet normal -0.368136 0.929772 0
    outer loop
      vertex -9.58003 20.3586 6
      vertex -6.95288 21.3988 -6
      vertex -9.58003 20.3586 -6
    endloop
  endfacet
  facet normal 0.84433 -0.535824 0
    outer loop
      vertex 18.2029 -13.2252 6
      vertex 19.7169 -10.8395 -6
      vertex 19.7169 -10.8395 6
    endloop
  endfacet
  facet normal 0.84433 -0.535824 0
    outer loop
      vertex 19.7169 -10.8395 -6
      vertex 18.2029 -13.2252 6
      vertex 18.2029 -13.2252 -6
    endloop
  endfacet
  facet normal 0.904826 0.425782 0
    outer loop
      vertex 20.92 8.2828 6
      vertex 19.7169 10.8395 -6
      vertex 19.7169 10.8395 6
    endloop
  endfacet
  facet normal 0.904826 0.425782 0
    outer loop
      vertex 19.7169 10.8395 -6
      vertex 20.92 8.2828 6
      vertex 20.92 8.2828 -6
    endloop
  endfacet
  facet normal 0.368136 0.929772 -0
    outer loop
      vertex 9.58003 20.3586 -6
      vertex 6.95288 21.3988 6
      vertex 9.58003 20.3586 6
    endloop
  endfacet
  facet normal 0.368136 0.929772 0
    outer loop
      vertex 6.95288 21.3988 6
      vertex 9.58003 20.3586 -6
      vertex 6.95288 21.3988 -6
    endloop
  endfacet
  facet normal 0.481745 0.876311 -0
    outer loop
      vertex 12.0561 18.9974 -6
      vertex 9.58003 20.3586 6
      vertex 12.0561 18.9974 6
    endloop
  endfacet
  facet normal 0.481745 0.876311 0
    outer loop
      vertex 9.58003 20.3586 6
      vertex 12.0561 18.9974 -6
      vertex 9.58003 20.3586 -6
    endloop
  endfacet
  facet normal -0.904826 0.425782 0
    outer loop
      vertex -20.92 8.2828 -6
      vertex -19.7169 10.8395 6
      vertex -19.7169 10.8395 -6
    endloop
  endfacet
  facet normal -0.904826 0.425782 0
    outer loop
      vertex -19.7169 10.8395 6
      vertex -20.92 8.2828 -6
      vertex -20.92 8.2828 6
    endloop
  endfacet
  facet normal -0.248693 0.968582 0
    outer loop
      vertex -4.21608 22.1015 -6
      vertex -6.95288 21.3988 6
      vertex -4.21608 22.1015 6
    endloop
  endfacet
  facet normal -0.248693 0.968582 0
    outer loop
      vertex -6.95288 21.3988 6
      vertex -4.21608 22.1015 -6
      vertex -6.95288 21.3988 -6
    endloop
  endfacet
  facet normal 0.982285 -0.187395 0
    outer loop
      vertex 21.7931 -5.59552 6
      vertex 22.3226 -2.82 -6
      vertex 22.3226 -2.82 6
    endloop
  endfacet
  facet normal 0.982285 -0.187395 0
    outer loop
      vertex 22.3226 -2.82 -6
      vertex 21.7931 -5.59552 6
      vertex 21.7931 -5.59552 -6
    endloop
  endfacet
  facet normal 0.12532 -0.992116 0
    outer loop
      vertex 1.41279 -22.4556 -6
      vertex 4.21608 -22.1015 6
      vertex 1.41279 -22.4556 6
    endloop
  endfacet
  facet normal 0.12532 -0.992116 0
    outer loop
      vertex 4.21608 -22.1015 6
      vertex 1.41279 -22.4556 -6
      vertex 4.21608 -22.1015 -6
    endloop
  endfacet
  facet normal 0.951062 0.309001 0
    outer loop
      vertex 21.7931 5.59552 6
      vertex 20.92 8.2828 -6
      vertex 20.92 8.2828 6
    endloop
  endfacet
  facet normal 0.951062 0.309001 0
    outer loop
      vertex 20.92 8.2828 -6
      vertex 21.7931 5.59552 6
      vertex 21.7931 5.59552 -6
    endloop
  endfacet
  facet normal 0.982285 0.187395 0
    outer loop
      vertex 22.3226 2.82 6
      vertex 21.7931 5.59552 -6
      vertex 21.7931 5.59552 6
    endloop
  endfacet
  facet normal 0.982285 0.187395 0
    outer loop
      vertex 21.7931 5.59552 -6
      vertex 22.3226 2.82 6
      vertex 22.3226 2.82 -6
    endloop
  endfacet
  facet normal 0.770505 0.637434 0
    outer loop
      vertex 18.2029 13.2252 6
      vertex 16.4018 15.4023 -6
      vertex 16.4018 15.4023 6
    endloop
  endfacet
  facet normal 0.770505 0.637434 0
    outer loop
      vertex 16.4018 15.4023 -6
      vertex 18.2029 13.2252 6
      vertex 18.2029 13.2252 -6
    endloop
  endfacet
  facet normal 0.84433 0.535824 0
    outer loop
      vertex 19.7169 10.8395 6
      vertex 18.2029 13.2252 -6
      vertex 18.2029 13.2252 6
    endloop
  endfacet
  facet normal 0.84433 0.535824 0
    outer loop
      vertex 18.2029 13.2252 -6
      vertex 19.7169 10.8395 6
      vertex 19.7169 10.8395 -6
    endloop
  endfacet
  facet normal 0.248693 0.968582 -0
    outer loop
      vertex 6.95288 21.3988 -6
      vertex 4.21608 22.1015 6
      vertex 6.95288 21.3988 6
    endloop
  endfacet
  facet normal 0.248693 0.968582 0
    outer loop
      vertex 4.21608 22.1015 6
      vertex 6.95288 21.3988 -6
      vertex 4.21608 22.1015 -6
    endloop
  endfacet
  facet normal 0.12532 0.992116 -0
    outer loop
      vertex 4.21608 22.1015 -6
      vertex 1.41279 22.4556 6
      vertex 4.21608 22.1015 6
    endloop
  endfacet
  facet normal 0.12532 0.992116 0
    outer loop
      vertex 1.41279 22.4556 6
      vertex 4.21608 22.1015 -6
      vertex 1.41279 22.4556 -6
    endloop
  endfacet
  facet normal 0.587808 0.809001 -0
    outer loop
      vertex 14.342 17.3365 -6
      vertex 12.0561 18.9974 6
      vertex 14.342 17.3365 6
    endloop
  endfacet
  facet normal 0.587808 0.809001 0
    outer loop
      vertex 12.0561 18.9974 6
      vertex 14.342 17.3365 -6
      vertex 12.0561 18.9974 -6
    endloop
  endfacet
  facet normal -0.84433 0.535824 0
    outer loop
      vertex -19.7169 10.8395 -6
      vertex -18.2029 13.2252 6
      vertex -18.2029 13.2252 -6
    endloop
  endfacet
  facet normal -0.84433 0.535824 0
    outer loop
      vertex -18.2029 13.2252 6
      vertex -19.7169 10.8395 -6
      vertex -19.7169 10.8395 6
    endloop
  endfacet
  facet normal -0.770505 0.637434 0
    outer loop
      vertex -18.2029 13.2252 -6
      vertex -16.4018 15.4023 6
      vertex -16.4018 15.4023 -6
    endloop
  endfacet
  facet normal -0.770505 0.637434 0
    outer loop
      vertex -16.4018 15.4023 6
      vertex -18.2029 13.2252 -6
      vertex -18.2029 13.2252 6
    endloop
  endfacet
  facet normal -0.951062 0.309001 0
    outer loop
      vertex -21.7931 5.59552 -6
      vertex -20.92 8.2828 6
      vertex -20.92 8.2828 -6
    endloop
  endfacet
  facet normal -0.951062 0.309001 0
    outer loop
      vertex -20.92 8.2828 6
      vertex -21.7931 5.59552 -6
      vertex -21.7931 5.59552 6
    endloop
  endfacet
  facet normal -0.982285 0.187395 0
    outer loop
      vertex -22.3226 2.82 -6
      vertex -21.7931 5.59552 6
      vertex -21.7931 5.59552 -6
    endloop
  endfacet
  facet normal -0.982285 0.187395 0
    outer loop
      vertex -21.7931 5.59552 6
      vertex -22.3226 2.82 -6
      vertex -22.3226 2.82 6
    endloop
  endfacet
  facet normal -0.481745 0.876311 0
    outer loop
      vertex -9.58003 20.3586 -6
      vertex -12.0561 18.9974 6
      vertex -9.58003 20.3586 6
    endloop
  endfacet
  facet normal -0.481745 0.876311 0
    outer loop
      vertex -12.0561 18.9974 6
      vertex -9.58003 20.3586 -6
      vertex -12.0561 18.9974 -6
    endloop
  endfacet
  facet normal -0.587808 0.809001 0
    outer loop
      vertex -12.0561 18.9974 -6
      vertex -14.342 17.3365 6
      vertex -12.0561 18.9974 6
    endloop
  endfacet
  facet normal -0.587808 0.809001 0
    outer loop
      vertex -14.342 17.3365 6
      vertex -12.0561 18.9974 -6
      vertex -14.342 17.3365 -6
    endloop
  endfacet
  facet normal -0.12532 0.992116 0
    outer loop
      vertex -1.41279 22.4556 -6
      vertex -4.21608 22.1015 6
      vertex -1.41279 22.4556 6
    endloop
  endfacet
  facet normal -0.12532 0.992116 0
    outer loop
      vertex -4.21608 22.1015 6
      vertex -1.41279 22.4556 -6
      vertex -4.21608 22.1015 -6
    endloop
  endfacet
  facet normal 0.998027 -0.0627837 0
    outer loop
      vertex 22.3226 -2.82 6
      vertex 22.5 0 -6
      vertex 22.5 0 6
    endloop
  endfacet
  facet normal 0.998027 -0.0627837 0
    outer loop
      vertex 22.5 0 -6
      vertex 22.3226 -2.82 6
      vertex 22.3226 -2.82 -6
    endloop
  endfacet
  facet normal 0.684532 -0.728983 0
    outer loop
      vertex 14.342 -17.3365 -6
      vertex 16.4018 -15.4023 6
      vertex 14.342 -17.3365 6
    endloop
  endfacet
  facet normal 0.684532 -0.728983 0
    outer loop
      vertex 16.4018 -15.4023 6
      vertex 14.342 -17.3365 -6
      vertex 16.4018 -15.4023 -6
    endloop
  endfacet
  facet normal 0.904826 -0.425782 0
    outer loop
      vertex 19.7169 -10.8395 6
      vertex 20.92 -8.2828 -6
      vertex 20.92 -8.2828 6
    endloop
  endfacet
  facet normal 0.904826 -0.425782 0
    outer loop
      vertex 20.92 -8.2828 -6
      vertex 19.7169 -10.8395 6
      vertex 19.7169 -10.8395 -6
    endloop
  endfacet
  facet normal -0.998027 -0.0627837 0
    outer loop
      vertex -22.3226 -2.82 -6
      vertex -22.5 0 6
      vertex -22.5 0 -6
    endloop
  endfacet
  facet normal -0.998027 -0.0627837 0
    outer loop
      vertex -22.5 0 6
      vertex -22.3226 -2.82 -6
      vertex -22.3226 -2.82 6
    endloop
  endfacet
  facet normal 0.951062 -0.309001 0
    outer loop
      vertex 20.92 -8.2828 6
      vertex 21.7931 -5.59552 -6
      vertex 21.7931 -5.59552 6
    endloop
  endfacet
  facet normal 0.951062 -0.309001 0
    outer loop
      vertex 21.7931 -5.59552 -6
      vertex 20.92 -8.2828 6
      vertex 20.92 -8.2828 -6
    endloop
  endfacet
  facet normal 0.770505 -0.637434 0
    outer loop
      vertex 16.4018 -15.4023 6
      vertex 18.2029 -13.2252 -6
      vertex 18.2029 -13.2252 6
    endloop
  endfacet
  facet normal 0.770505 -0.637434 0
    outer loop
      vertex 18.2029 -13.2252 -6
      vertex 16.4018 -15.4023 6
      vertex 16.4018 -15.4023 -6
    endloop
  endfacet
  facet normal -0.684532 -0.728983 0
    outer loop
      vertex -16.4018 -15.4023 -6
      vertex -14.342 -17.3365 6
      vertex -16.4018 -15.4023 6
    endloop
  endfacet
  facet normal -0.684532 -0.728983 -0
    outer loop
      vertex -14.342 -17.3365 6
      vertex -16.4018 -15.4023 -6
      vertex -14.342 -17.3365 -6
    endloop
  endfacet
  facet normal -0.84433 -0.535824 0
    outer loop
      vertex -18.2029 -13.2252 -6
      vertex -19.7169 -10.8395 6
      vertex -19.7169 -10.8395 -6
    endloop
  endfacet
  facet normal -0.84433 -0.535824 0
    outer loop
      vertex -19.7169 -10.8395 6
      vertex -18.2029 -13.2252 -6
      vertex -18.2029 -13.2252 6
    endloop
  endfacet
  facet normal 0.368136 -0.929772 0
    outer loop
      vertex 6.95288 -21.3988 -6
      vertex 9.58003 -20.3586 6
      vertex 6.95288 -21.3988 6
    endloop
  endfacet
  facet normal 0.368136 -0.929772 0
    outer loop
      vertex 9.58003 -20.3586 6
      vertex 6.95288 -21.3988 -6
      vertex 9.58003 -20.3586 -6
    endloop
  endfacet
  facet normal 0.248693 -0.968582 0
    outer loop
      vertex 4.21608 -22.1015 -6
      vertex 6.95288 -21.3988 6
      vertex 4.21608 -22.1015 6
    endloop
  endfacet
  facet normal 0.248693 -0.968582 0
    outer loop
      vertex 6.95288 -21.3988 6
      vertex 4.21608 -22.1015 -6
      vertex 6.95288 -21.3988 -6
    endloop
  endfacet
  facet normal 0.587808 -0.809001 0
    outer loop
      vertex 12.0561 -18.9974 -6
      vertex 14.342 -17.3365 6
      vertex 12.0561 -18.9974 6
    endloop
  endfacet
  facet normal 0.587808 -0.809001 0
    outer loop
      vertex 14.342 -17.3365 6
      vertex 12.0561 -18.9974 -6
      vertex 14.342 -17.3365 -6
    endloop
  endfacet
  facet normal 0.481745 -0.876311 0
    outer loop
      vertex 9.58003 -20.3586 -6
      vertex 12.0561 -18.9974 6
      vertex 9.58003 -20.3586 6
    endloop
  endfacet
  facet normal 0.481745 -0.876311 0
    outer loop
      vertex 12.0561 -18.9974 6
      vertex 9.58003 -20.3586 -6
      vertex 12.0561 -18.9974 -6
    endloop
  endfacet
  facet normal -0.12532 -0.992116 0
    outer loop
      vertex -4.21608 -22.1015 -6
      vertex -1.41279 -22.4556 6
      vertex -4.21608 -22.1015 6
    endloop
  endfacet
  facet normal -0.12532 -0.992116 -0
    outer loop
      vertex -1.41279 -22.4556 6
      vertex -4.21608 -22.1015 -6
      vertex -1.41279 -22.4556 -6
    endloop
  endfacet
  facet normal -0.368136 -0.929772 0
    outer loop
      vertex -9.58003 -20.3586 -6
      vertex -6.95288 -21.3988 6
      vertex -9.58003 -20.3586 6
    endloop
  endfacet
  facet normal -0.368136 -0.929772 -0
    outer loop
      vertex -6.95288 -21.3988 6
      vertex -9.58003 -20.3586 -6
      vertex -6.95288 -21.3988 -6
    endloop
  endfacet
  facet normal -0.248693 -0.968582 0
    outer loop
      vertex -6.95288 -21.3988 -6
      vertex -4.21608 -22.1015 6
      vertex -6.95288 -21.3988 6
    endloop
  endfacet
  facet normal -0.248693 -0.968582 -0
    outer loop
      vertex -4.21608 -22.1015 6
      vertex -6.95288 -21.3988 -6
      vertex -4.21608 -22.1015 -6
    endloop
  endfacet
  facet normal -0.904826 -0.425782 0
    outer loop
      vertex -19.7169 -10.8395 -6
      vertex -20.92 -8.2828 6
      vertex -20.92 -8.2828 -6
    endloop
  endfacet
  facet normal -0.904826 -0.425782 0
    outer loop
      vertex -20.92 -8.2828 6
      vertex -19.7169 -10.8395 -6
      vertex -19.7169 -10.8395 6
    endloop
  endfacet
  facet normal -0.951062 -0.309001 0
    outer loop
      vertex -20.92 -8.2828 -6
      vertex -21.7931 -5.59552 6
      vertex -21.7931 -5.59552 -6
    endloop
  endfacet
  facet normal -0.951062 -0.309001 0
    outer loop
      vertex -21.7931 -5.59552 6
      vertex -20.92 -8.2828 -6
      vertex -20.92 -8.2828 6
    endloop
  endfacet
  facet normal -0.982285 -0.187395 0
    outer loop
      vertex -21.7931 -5.59552 -6
      vertex -22.3226 -2.82 6
      vertex -22.3226 -2.82 -6
    endloop
  endfacet
  facet normal -0.982285 -0.187395 0
    outer loop
      vertex -22.3226 -2.82 6
      vertex -21.7931 -5.59552 -6
      vertex -21.7931 -5.59552 6
    endloop
  endfacet
  facet normal -0.587808 -0.809001 0
    outer loop
      vertex -14.342 -17.3365 -6
      vertex -12.0561 -18.9974 6
      vertex -14.342 -17.3365 6
    endloop
  endfacet
  facet normal -0.587808 -0.809001 -0
    outer loop
      vertex -12.0561 -18.9974 6
      vertex -14.342 -17.3365 -6
      vertex -12.0561 -18.9974 -6
    endloop
  endfacet
  facet normal -0.770505 -0.637434 0
    outer loop
      vertex -16.4018 -15.4023 -6
      vertex -18.2029 -13.2252 6
      vertex -18.2029 -13.2252 -6
    endloop
  endfacet
  facet normal -0.770505 -0.637434 0
    outer loop
      vertex -18.2029 -13.2252 6
      vertex -16.4018 -15.4023 -6
      vertex -16.4018 -15.4023 6
    endloop
  endfacet
  facet normal -0.481745 -0.876311 0
    outer loop
      vertex -12.0561 -18.9974 -6
      vertex -9.58003 -20.3586 6
      vertex -12.0561 -18.9974 6
    endloop
  endfacet
  facet normal -0.481745 -0.876311 -0
    outer loop
      vertex -9.58003 -20.3586 6
      vertex -12.0561 -18.9974 -6
      vertex -9.58003 -20.3586 -6
    endloop
  endfacet
endsolid OpenSCAD_Model
