solid OpenSCAD_Model
  facet normal -0.998026 -0.062808 0
    outer loop
      vertex 16 0 -6
      vertex 15.8738 2.00533 4
      vertex 15.8738 2.00533 -6
    endloop
  endfacet
  facet normal -0.998026 -0.062808 0
    outer loop
      vertex 15.8738 2.00533 4
      vertex 16 0 -6
      vertex 16 0 4
    endloop
  endfacet
  facet normal 0.998026 -0.062808 0
    outer loop
      vertex -16 0 4
      vertex -15.8738 2.00533 -6
      vertex -15.8738 2.00533 4
    endloop
  endfacet
  facet normal 0.998026 -0.062808 0
    outer loop
      vertex -15.8738 2.00533 -6
      vertex -16 0 4
      vertex -16 0 -6
    endloop
  endfacet
  facet normal 0 -1 0
    outer loop
      vertex -1.00465 15.9684 -6
      vertex 1.00465 15.9684 4
      vertex -1.00465 15.9684 4
    endloop
  endfacet
  facet normal 0 -1 -0
    outer loop
      vertex 1.00465 15.9684 4
      vertex -1.00465 15.9684 -6
      vertex 1.00465 15.9684 -6
    endloop
  endfacet
  facet normal 0 1 -0
    outer loop
      vertex 1.00465 -15.9684 -6
      vertex -1.00465 -15.9684 4
      vertex 1.00465 -15.9684 4
    endloop
  endfacet
  facet normal 0 1 0
    outer loop
      vertex -1.00465 -15.9684 4
      vertex 1.00465 -15.9684 -6
      vertex -1.00465 -15.9684 -6
    endloop
  endfacet
  facet normal -0.684535 -0.72898 0
    outer loop
      vertex 10.1988 12.3282 -6
      vertex 11.6635 10.9528 4
      vertex 10.1988 12.3282 4
    endloop
  endfacet
  facet normal -0.684535 -0.72898 -0
    outer loop
      vertex 11.6635 10.9528 4
      vertex 10.1988 12.3282 -6
      vertex 11.6635 10.9528 -6
    endloop
  endfacet
  facet normal 0.684535 -0.72898 0
    outer loop
      vertex -11.6635 10.9528 -6
      vertex -10.1988 12.3282 4
      vertex -11.6635 10.9528 4
    endloop
  endfacet
  facet normal 0.684535 -0.72898 0
    outer loop
      vertex -10.1988 12.3282 4
      vertex -11.6635 10.9528 -6
      vertex -10.1988 12.3282 -6
    endloop
  endfacet
  facet normal 0.368136 -0.929772 0
    outer loop
      vertex -6.81247 14.4772 -6
      vertex -4.94427 15.2169 4
      vertex -6.81247 14.4772 4
    endloop
  endfacet
  facet normal 0.368136 -0.929772 0
    outer loop
      vertex -4.94427 15.2169 4
      vertex -6.81247 14.4772 -6
      vertex -4.94427 15.2169 -6
    endloop
  endfacet
  facet normal -0.904831 -0.425772 0
    outer loop
      vertex 14.8764 5.88999 -6
      vertex 14.0209 7.70806 4
      vertex 14.0209 7.70806 -6
    endloop
  endfacet
  facet normal -0.904831 -0.425772 0
    outer loop
      vertex 14.0209 7.70806 4
      vertex 14.8764 5.88999 -6
      vertex 14.8764 5.88999 4
    endloop
  endfacet
  facet normal -0.368136 -0.929772 0
    outer loop
      vertex 4.94427 15.2169 -6
      vertex 6.81247 14.4772 4
      vertex 4.94427 15.2169 4
    endloop
  endfacet
  facet normal -0.368136 -0.929772 -0
    outer loop
      vertex 6.81247 14.4772 4
      vertex 4.94427 15.2169 -6
      vertex 6.81247 14.4772 -6
    endloop
  endfacet
  facet normal -0.248694 -0.968582 0
    outer loop
      vertex 2.9981 15.7166 -6
      vertex 4.94427 15.2169 4
      vertex 2.9981 15.7166 4
    endloop
  endfacet
  facet normal -0.248694 -0.968582 -0
    outer loop
      vertex 4.94427 15.2169 4
      vertex 2.9981 15.7166 -6
      vertex 4.94427 15.2169 -6
    endloop
  endfacet
  facet normal -0.481759 -0.876304 0
    outer loop
      vertex 6.81247 14.4772 -6
      vertex 8.57323 13.5092 4
      vertex 6.81247 14.4772 4
    endloop
  endfacet
  facet normal -0.481759 -0.876304 -0
    outer loop
      vertex 8.57323 13.5092 4
      vertex 6.81247 14.4772 -6
      vertex 8.57323 13.5092 -6
    endloop
  endfacet
  facet normal 0.904831 -0.425772 0
    outer loop
      vertex -14.8764 5.88999 4
      vertex -14.0209 7.70806 -6
      vertex -14.0209 7.70806 4
    endloop
  endfacet
  facet normal 0.904831 -0.425772 0
    outer loop
      vertex -14.0209 7.70806 -6
      vertex -14.8764 5.88999 4
      vertex -14.8764 5.88999 -6
    endloop
  endfacet
  facet normal 0.951057 -0.309015 0
    outer loop
      vertex -15.4973 3.97904 4
      vertex -14.8764 5.88999 -6
      vertex -14.8764 5.88999 4
    endloop
  endfacet
  facet normal 0.951057 -0.309015 0
    outer loop
      vertex -14.8764 5.88999 -6
      vertex -15.4973 3.97904 4
      vertex -15.4973 3.97904 -6
    endloop
  endfacet
  facet normal 0.125318 -0.992117 0
    outer loop
      vertex -2.9981 15.7166 -6
      vertex -1.00465 15.9684 4
      vertex -2.9981 15.7166 4
    endloop
  endfacet
  facet normal 0.125318 -0.992117 0
    outer loop
      vertex -1.00465 15.9684 4
      vertex -2.9981 15.7166 -6
      vertex -1.00465 15.9684 -6
    endloop
  endfacet
  facet normal -0.125318 0.992117 0
    outer loop
      vertex 2.9981 -15.7166 -6
      vertex 1.00465 -15.9684 4
      vertex 2.9981 -15.7166 4
    endloop
  endfacet
  facet normal -0.125318 0.992117 0
    outer loop
      vertex 1.00465 -15.9684 4
      vertex 2.9981 -15.7166 -6
      vertex 1.00465 -15.9684 -6
    endloop
  endfacet
  facet normal -0.951057 -0.309015 0
    outer loop
      vertex 15.4973 3.97904 -6
      vertex 14.8764 5.88999 4
      vertex 14.8764 5.88999 -6
    endloop
  endfacet
  facet normal -0.951057 -0.309015 0
    outer loop
      vertex 14.8764 5.88999 4
      vertex 15.4973 3.97904 -6
      vertex 15.4973 3.97904 4
    endloop
  endfacet
  facet normal -0.982288 -0.187379 0
    outer loop
      vertex 15.8738 2.00533 -6
      vertex 15.4973 3.97904 4
      vertex 15.4973 3.97904 -6
    endloop
  endfacet
  facet normal -0.982288 -0.187379 0
    outer loop
      vertex 15.4973 3.97904 4
      vertex 15.8738 2.00533 -6
      vertex 15.8738 2.00533 4
    endloop
  endfacet
  facet normal -0.770517 -0.637419 0
    outer loop
      vertex 12.9443 9.40456 -6
      vertex 11.6635 10.9528 4
      vertex 11.6635 10.9528 -6
    endloop
  endfacet
  facet normal -0.770517 -0.637419 0
    outer loop
      vertex 11.6635 10.9528 4
      vertex 12.9443 9.40456 -6
      vertex 12.9443 9.40456 4
    endloop
  endfacet
  facet normal -0.844335 -0.535816 0
    outer loop
      vertex 14.0209 7.70806 -6
      vertex 12.9443 9.40456 4
      vertex 12.9443 9.40456 -6
    endloop
  endfacet
  facet normal -0.844335 -0.535816 0
    outer loop
      vertex 12.9443 9.40456 4
      vertex 14.0209 7.70806 -6
      vertex 14.0209 7.70806 4
    endloop
  endfacet
  facet normal -0.125318 -0.992117 0
    outer loop
      vertex 1.00465 15.9684 -6
      vertex 2.9981 15.7166 4
      vertex 1.00465 15.9684 4
    endloop
  endfacet
  facet normal -0.125318 -0.992117 -0
    outer loop
      vertex 2.9981 15.7166 4
      vertex 1.00465 15.9684 -6
      vertex 2.9981 15.7166 -6
    endloop
  endfacet
  facet normal -0.58777 -0.809028 0
    outer loop
      vertex 8.57323 13.5092 -6
      vertex 10.1988 12.3282 4
      vertex 8.57323 13.5092 4
    endloop
  endfacet
  facet normal -0.58777 -0.809028 -0
    outer loop
      vertex 10.1988 12.3282 4
      vertex 8.57323 13.5092 -6
      vertex 10.1988 12.3282 -6
    endloop
  endfacet
  facet normal 0.844335 -0.535816 0
    outer loop
      vertex -14.0209 7.70806 4
      vertex -12.9443 9.40456 -6
      vertex -12.9443 9.40456 4
    endloop
  endfacet
  facet normal 0.844335 -0.535816 0
    outer loop
      vertex -12.9443 9.40456 -6
      vertex -14.0209 7.70806 4
      vertex -14.0209 7.70806 -6
    endloop
  endfacet
  facet normal 0.770517 -0.637419 0
    outer loop
      vertex -12.9443 9.40456 4
      vertex -11.6635 10.9528 -6
      vertex -11.6635 10.9528 4
    endloop
  endfacet
  facet normal 0.770517 -0.637419 0
    outer loop
      vertex -11.6635 10.9528 -6
      vertex -12.9443 9.40456 4
      vertex -12.9443 9.40456 -6
    endloop
  endfacet
  facet normal 0.982288 -0.187379 0
    outer loop
      vertex -15.8738 2.00533 4
      vertex -15.4973 3.97904 -6
      vertex -15.4973 3.97904 4
    endloop
  endfacet
  facet normal 0.982288 -0.187379 0
    outer loop
      vertex -15.4973 3.97904 -6
      vertex -15.8738 2.00533 4
      vertex -15.8738 2.00533 -6
    endloop
  endfacet
  facet normal 0 0 1
    outer loop
      vertex 20.5 0 6
      vertex 22.5 0 6
      vertex 22.3226 2.82 6
    endloop
  endfacet
  facet normal 0 0 1
    outer loop
      vertex 20.3384 2.56933 6
      vertex 22.3226 2.82 6
      vertex 21.7931 5.59552 6
    endloop
  endfacet
  facet normal 0 0 1
    outer loop
      vertex 22.5 0 6
      vertex 20.5 0 6
      vertex 22.3226 -2.82 6
    endloop
  endfacet
  facet normal 0 0 1
    outer loop
      vertex 19.856 5.09814 6
      vertex 21.7931 5.59552 6
      vertex 20.92 8.2828 6
    endloop
  endfacet
  facet normal -0 0 1
    outer loop
      vertex 20.3384 -2.56933 6
      vertex 22.3226 -2.82 6
      vertex 20.5 0 6
    endloop
  endfacet
  facet normal 0 0 1
    outer loop
      vertex 22.3226 -2.82 6
      vertex 20.3384 -2.56933 6
      vertex 21.7931 -5.59552 6
    endloop
  endfacet
  facet normal 0 0 1
    outer loop
      vertex 22.3226 2.82 6
      vertex 20.3384 2.56933 6
      vertex 20.5 0 6
    endloop
  endfacet
  facet normal 0 0 1
    outer loop
      vertex 21.7931 5.59552 6
      vertex 19.856 5.09814 6
      vertex 20.3384 2.56933 6
    endloop
  endfacet
  facet normal 0 0 1
    outer loop
      vertex 19.0604 7.54655 6
      vertex 20.92 8.2828 6
      vertex 19.7169 10.8395 6
    endloop
  endfacet
  facet normal 0 0 1
    outer loop
      vertex 20.92 8.2828 6
      vertex 19.0604 7.54655 6
      vertex 19.856 5.09814 6
    endloop
  endfacet
  facet normal 0 0 1
    outer loop
      vertex 17.9643 9.87595 6
      vertex 19.7169 10.8395 6
      vertex 18.2029 13.2252 6
    endloop
  endfacet
  facet normal 0 0 1
    outer loop
      vertex 19.7169 10.8395 6
      vertex 17.9643 9.87595 6
      vertex 19.0604 7.54655 6
    endloop
  endfacet
  facet normal 0 0 1
    outer loop
      vertex 18.2029 13.2252 6
      vertex 16.5848 12.0496 6
      vertex 17.9643 9.87595 6
    endloop
  endfacet
  facet normal 0 0 1
    outer loop
      vertex 16.4018 15.4023 6
      vertex 16.5848 12.0496 6
      vertex 18.2029 13.2252 6
    endloop
  endfacet
  facet normal 0 0 1
    outer loop
      vertex 16.4018 15.4023 6
      vertex 14.9439 14.0332 6
      vertex 16.5848 12.0496 6
    endloop
  endfacet
  facet normal 0 0 1
    outer loop
      vertex 14.342 17.3365 6
      vertex 14.9439 14.0332 6
      vertex 16.4018 15.4023 6
    endloop
  endfacet
  facet normal 0 0 1
    outer loop
      vertex 14.342 17.3365 6
      vertex 13.0672 15.7955 6
      vertex 14.9439 14.0332 6
    endloop
  endfacet
  facet normal 0 0 1
    outer loop
      vertex 12.0561 18.9974 6
      vertex 13.0672 15.7955 6
      vertex 14.342 17.3365 6
    endloop
  endfacet
  facet normal 0 0 1
    outer loop
      vertex 12.0561 18.9974 6
      vertex 10.9844 17.3087 6
      vertex 13.0672 15.7955 6
    endloop
  endfacet
  facet normal 0 0 1
    outer loop
      vertex 9.58003 20.3586 6
      vertex 10.9844 17.3087 6
      vertex 12.0561 18.9974 6
    endloop
  endfacet
  facet normal 0 0 1
    outer loop
      vertex 9.58003 20.3586 6
      vertex 8.72847 18.549 6
      vertex 10.9844 17.3087 6
    endloop
  endfacet
  facet normal 0 0 1
    outer loop
      vertex 6.95288 21.3988 6
      vertex 8.72847 18.549 6
      vertex 9.58003 20.3586 6
    endloop
  endfacet
  facet normal 0 0 1
    outer loop
      vertex 6.95288 21.3988 6
      vertex 6.33485 19.4967 6
      vertex 8.72847 18.549 6
    endloop
  endfacet
  facet normal 0 0 1
    outer loop
      vertex 4.21608 22.1015 6
      vertex 6.33485 19.4967 6
      vertex 6.95288 21.3988 6
    endloop
  endfacet
  facet normal 0 0 1
    outer loop
      vertex 4.21608 22.1015 6
      vertex 3.84132 20.1369 6
      vertex 6.33485 19.4967 6
    endloop
  endfacet
  facet normal 0 0 1
    outer loop
      vertex 1.41279 22.4556 6
      vertex 3.84132 20.1369 6
      vertex 4.21608 22.1015 6
    endloop
  endfacet
  facet normal 0 0 1
    outer loop
      vertex 1.41279 22.4556 6
      vertex 1.2872 20.4595 6
      vertex 3.84132 20.1369 6
    endloop
  endfacet
  facet normal 0 0 1
    outer loop
      vertex 1.41279 22.4556 6
      vertex -1.2872 20.4595 6
      vertex 1.2872 20.4595 6
    endloop
  endfacet
  facet normal -0 0 1
    outer loop
      vertex -1.41279 22.4556 6
      vertex -1.2872 20.4595 6
      vertex 1.41279 22.4556 6
    endloop
  endfacet
  facet normal 0 0 1
    outer loop
      vertex -1.41279 22.4556 6
      vertex -3.84132 20.1369 6
      vertex -1.2872 20.4595 6
    endloop
  endfacet
  facet normal -0 0 1
    outer loop
      vertex -4.21608 22.1015 6
      vertex -3.84132 20.1369 6
      vertex -1.41279 22.4556 6
    endloop
  endfacet
  facet normal 0 0 1
    outer loop
      vertex -4.21608 22.1015 6
      vertex -6.33485 19.4967 6
      vertex -3.84132 20.1369 6
    endloop
  endfacet
  facet normal -0 0 1
    outer loop
      vertex -6.95288 21.3988 6
      vertex -6.33485 19.4967 6
      vertex -4.21608 22.1015 6
    endloop
  endfacet
  facet normal 0 0 1
    outer loop
      vertex -6.95288 21.3988 6
      vertex -8.72847 18.549 6
      vertex -6.33485 19.4967 6
    endloop
  endfacet
  facet normal -0 0 1
    outer loop
      vertex -9.58003 20.3586 6
      vertex -8.72847 18.549 6
      vertex -6.95288 21.3988 6
    endloop
  endfacet
  facet normal 0 0 1
    outer loop
      vertex -9.58003 20.3586 6
      vertex -10.9844 17.3087 6
      vertex -8.72847 18.549 6
    endloop
  endfacet
  facet normal -0 0 1
    outer loop
      vertex -12.0561 18.9974 6
      vertex -10.9844 17.3087 6
      vertex -9.58003 20.3586 6
    endloop
  endfacet
  facet normal 0 0 1
    outer loop
      vertex -12.0561 18.9974 6
      vertex -13.0672 15.7955 6
      vertex -10.9844 17.3087 6
    endloop
  endfacet
  facet normal -0 0 1
    outer loop
      vertex -14.342 17.3365 6
      vertex -13.0672 15.7955 6
      vertex -12.0561 18.9974 6
    endloop
  endfacet
  facet normal 0 0 1
    outer loop
      vertex -14.342 17.3365 6
      vertex -14.9439 14.0332 6
      vertex -13.0672 15.7955 6
    endloop
  endfacet
  facet normal -0 0 1
    outer loop
      vertex -16.4018 15.4023 6
      vertex -14.9439 14.0332 6
      vertex -14.342 17.3365 6
    endloop
  endfacet
  facet normal 0 0 1
    outer loop
      vertex -16.4018 15.4023 6
      vertex -16.5848 12.0496 6
      vertex -14.9439 14.0332 6
    endloop
  endfacet
  facet normal -0 0 1
    outer loop
      vertex -18.2029 13.2252 6
      vertex -16.5848 12.0496 6
      vertex -16.4018 15.4023 6
    endloop
  endfacet
  facet normal 0 0 1
    outer loop
      vertex -16.5848 12.0496 6
      vertex -18.2029 13.2252 6
      vertex -17.9643 9.87595 6
    endloop
  endfacet
  facet normal -0 0 1
    outer loop
      vertex -19.7169 10.8395 6
      vertex -17.9643 9.87595 6
      vertex -18.2029 13.2252 6
    endloop
  endfacet
  facet normal 0 0 1
    outer loop
      vertex -17.9643 9.87595 6
      vertex -19.7169 10.8395 6
      vertex -19.0604 7.54655 6
    endloop
  endfacet
  facet normal -0 0 1
    outer loop
      vertex -20.92 8.2828 6
      vertex -19.0604 7.54655 6
      vertex -19.7169 10.8395 6
    endloop
  endfacet
  facet normal 0 0 1
    outer loop
      vertex -19.0604 7.54655 6
      vertex -20.92 8.2828 6
      vertex -19.856 5.09814 6
    endloop
  endfacet
  facet normal 0 0 1
    outer loop
      vertex -19.856 5.09814 6
      vertex -21.7931 5.59552 6
      vertex -20.3384 2.56933 6
    endloop
  endfacet
  facet normal -0 0 1
    outer loop
      vertex -21.7931 5.59552 6
      vertex -19.856 5.09814 6
      vertex -20.92 8.2828 6
    endloop
  endfacet
  facet normal -0 0 1
    outer loop
      vertex 19.856 -5.09814 6
      vertex 21.7931 -5.59552 6
      vertex 20.3384 -2.56933 6
    endloop
  endfacet
  facet normal 0 0 1
    outer loop
      vertex 21.7931 -5.59552 6
      vertex 19.856 -5.09814 6
      vertex 20.92 -8.2828 6
    endloop
  endfacet
  facet normal -0 0 1
    outer loop
      vertex 19.0604 -7.54655 6
      vertex 20.92 -8.2828 6
      vertex 19.856 -5.09814 6
    endloop
  endfacet
  facet normal 0 0 1
    outer loop
      vertex 20.92 -8.2828 6
      vertex 19.0604 -7.54655 6
      vertex 19.7169 -10.8395 6
    endloop
  endfacet
  facet normal -0 0 1
    outer loop
      vertex 17.9643 -9.87595 6
      vertex 19.7169 -10.8395 6
      vertex 19.0604 -7.54655 6
    endloop
  endfacet
  facet normal 0 0 1
    outer loop
      vertex 19.7169 -10.8395 6
      vertex 17.9643 -9.87595 6
      vertex 18.2029 -13.2252 6
    endloop
  endfacet
  facet normal -0 0 1
    outer loop
      vertex 16.5848 -12.0496 6
      vertex 18.2029 -13.2252 6
      vertex 17.9643 -9.87595 6
    endloop
  endfacet
  facet normal 0 0 1
    outer loop
      vertex 16.5848 -12.0496 6
      vertex 16.4018 -15.4023 6
      vertex 18.2029 -13.2252 6
    endloop
  endfacet
  facet normal -0 0 1
    outer loop
      vertex 14.9439 -14.0332 6
      vertex 16.4018 -15.4023 6
      vertex 16.5848 -12.0496 6
    endloop
  endfacet
  facet normal 0 0 1
    outer loop
      vertex 14.9439 -14.0332 6
      vertex 14.342 -17.3365 6
      vertex 16.4018 -15.4023 6
    endloop
  endfacet
  facet normal -0 0 1
    outer loop
      vertex 13.0672 -15.7955 6
      vertex 14.342 -17.3365 6
      vertex 14.9439 -14.0332 6
    endloop
  endfacet
  facet normal 0 0 1
    outer loop
      vertex 13.0672 -15.7955 6
      vertex 12.0561 -18.9974 6
      vertex 14.342 -17.3365 6
    endloop
  endfacet
  facet normal -0 0 1
    outer loop
      vertex 10.9844 -17.3087 6
      vertex 12.0561 -18.9974 6
      vertex 13.0672 -15.7955 6
    endloop
  endfacet
  facet normal 0 0 1
    outer loop
      vertex 10.9844 -17.3087 6
      vertex 9.58003 -20.3586 6
      vertex 12.0561 -18.9974 6
    endloop
  endfacet
  facet normal -0 0 1
    outer loop
      vertex 8.72847 -18.549 6
      vertex 9.58003 -20.3586 6
      vertex 10.9844 -17.3087 6
    endloop
  endfacet
  facet normal 0 0 1
    outer loop
      vertex 8.72847 -18.549 6
      vertex 6.95288 -21.3988 6
      vertex 9.58003 -20.3586 6
    endloop
  endfacet
  facet normal -0 0 1
    outer loop
      vertex 6.33485 -19.4967 6
      vertex 6.95288 -21.3988 6
      vertex 8.72847 -18.549 6
    endloop
  endfacet
  facet normal 0 0 1
    outer loop
      vertex 6.33485 -19.4967 6
      vertex 4.21608 -22.1015 6
      vertex 6.95288 -21.3988 6
    endloop
  endfacet
  facet normal -0 0 1
    outer loop
      vertex 3.84132 -20.1369 6
      vertex 4.21608 -22.1015 6
      vertex 6.33485 -19.4967 6
    endloop
  endfacet
  facet normal 0 0 1
    outer loop
      vertex 3.84132 -20.1369 6
      vertex 1.41279 -22.4556 6
      vertex 4.21608 -22.1015 6
    endloop
  endfacet
  facet normal -0 0 1
    outer loop
      vertex 1.2872 -20.4595 6
      vertex 1.41279 -22.4556 6
      vertex 3.84132 -20.1369 6
    endloop
  endfacet
  facet normal -0 0 1
    outer loop
      vertex -1.2872 -20.4595 6
      vertex 1.41279 -22.4556 6
      vertex 1.2872 -20.4595 6
    endloop
  endfacet
  facet normal 0 0 1
    outer loop
      vertex -1.2872 -20.4595 6
      vertex -1.41279 -22.4556 6
      vertex 1.41279 -22.4556 6
    endloop
  endfacet
  facet normal 0 0 1
    outer loop
      vertex -3.84132 -20.1369 6
      vertex -1.41279 -22.4556 6
      vertex -1.2872 -20.4595 6
    endloop
  endfacet
  facet normal 0 0 1
    outer loop
      vertex -3.84132 -20.1369 6
      vertex -4.21608 -22.1015 6
      vertex -1.41279 -22.4556 6
    endloop
  endfacet
  facet normal 0 0 1
    outer loop
      vertex -6.33485 -19.4967 6
      vertex -4.21608 -22.1015 6
      vertex -3.84132 -20.1369 6
    endloop
  endfacet
  facet normal 0 0 1
    outer loop
      vertex -6.33485 -19.4967 6
      vertex -6.95288 -21.3988 6
      vertex -4.21608 -22.1015 6
    endloop
  endfacet
  facet normal 0 0 1
    outer loop
      vertex -8.72847 -18.549 6
      vertex -6.95288 -21.3988 6
      vertex -6.33485 -19.4967 6
    endloop
  endfacet
  facet normal 0 0 1
    outer loop
      vertex -8.72847 -18.549 6
      vertex -9.58003 -20.3586 6
      vertex -6.95288 -21.3988 6
    endloop
  endfacet
  facet normal 0 0 1
    outer loop
      vertex -10.9844 -17.3087 6
      vertex -9.58003 -20.3586 6
      vertex -8.72847 -18.549 6
    endloop
  endfacet
  facet normal 0 0 1
    outer loop
      vertex -10.9844 -17.3087 6
      vertex -12.0561 -18.9974 6
      vertex -9.58003 -20.3586 6
    endloop
  endfacet
  facet normal 0 0 1
    outer loop
      vertex -13.0672 -15.7955 6
      vertex -12.0561 -18.9974 6
      vertex -10.9844 -17.3087 6
    endloop
  endfacet
  facet normal 0 0 1
    outer loop
      vertex -13.0672 -15.7955 6
      vertex -14.342 -17.3365 6
      vertex -12.0561 -18.9974 6
    endloop
  endfacet
  facet normal 0 0 1
    outer loop
      vertex -14.9439 -14.0332 6
      vertex -14.342 -17.3365 6
      vertex -13.0672 -15.7955 6
    endloop
  endfacet
  facet normal 0 0 1
    outer loop
      vertex -14.9439 -14.0332 6
      vertex -16.4018 -15.4023 6
      vertex -14.342 -17.3365 6
    endloop
  endfacet
  facet normal 0 0 1
    outer loop
      vertex -16.5848 -12.0496 6
      vertex -16.4018 -15.4023 6
      vertex -14.9439 -14.0332 6
    endloop
  endfacet
  facet normal 0 0 1
    outer loop
      vertex -18.2029 -13.2252 6
      vertex -16.5848 -12.0496 6
      vertex -17.9643 -9.87595 6
    endloop
  endfacet
  facet normal 0 0 1
    outer loop
      vertex -16.5848 -12.0496 6
      vertex -18.2029 -13.2252 6
      vertex -16.4018 -15.4023 6
    endloop
  endfacet
  facet normal 0 0 1
    outer loop
      vertex -19.7169 -10.8395 6
      vertex -17.9643 -9.87595 6
      vertex -19.0604 -7.54655 6
    endloop
  endfacet
  facet normal 0 0 1
    outer loop
      vertex -17.9643 -9.87595 6
      vertex -19.7169 -10.8395 6
      vertex -18.2029 -13.2252 6
    endloop
  endfacet
  facet normal 0 0 1
    outer loop
      vertex -20.92 -8.2828 6
      vertex -19.0604 -7.54655 6
      vertex -19.856 -5.09814 6
    endloop
  endfacet
  facet normal 0 0 1
    outer loop
      vertex -21.7931 -5.59552 6
      vertex -19.856 -5.09814 6
      vertex -20.3384 -2.56933 6
    endloop
  endfacet
  facet normal 0 0 1
    outer loop
      vertex -19.0604 -7.54655 6
      vertex -20.92 -8.2828 6
      vertex -19.7169 -10.8395 6
    endloop
  endfacet
  facet normal 0 0 1
    outer loop
      vertex -22.3226 -2.82 6
      vertex -20.3384 -2.56933 6
      vertex -20.5 0 6
    endloop
  endfacet
  facet normal -0 0 1
    outer loop
      vertex -22.3226 2.82 6
      vertex -20.3384 2.56933 6
      vertex -21.7931 5.59552 6
    endloop
  endfacet
  facet normal 0 0 1
    outer loop
      vertex -20.3384 2.56933 6
      vertex -22.3226 2.82 6
      vertex -20.5 0 6
    endloop
  endfacet
  facet normal 0 0 1
    outer loop
      vertex -19.856 -5.09814 6
      vertex -21.7931 -5.59552 6
      vertex -20.92 -8.2828 6
    endloop
  endfacet
  facet normal 0 0 1
    outer loop
      vertex -22.5 0 6
      vertex -20.5 0 6
      vertex -22.3226 2.82 6
    endloop
  endfacet
  facet normal 0 0 1
    outer loop
      vertex -20.3384 -2.56933 6
      vertex -22.3226 -2.82 6
      vertex -21.7931 -5.59552 6
    endloop
  endfacet
  facet normal 0 0 1
    outer loop
      vertex -20.5 0 6
      vertex -22.5 0 6
      vertex -22.3226 -2.82 6
    endloop
  endfacet
  facet normal 0.481759 -0.876304 0
    outer loop
      vertex -8.57323 13.5092 -6
      vertex -6.81247 14.4772 4
      vertex -8.57323 13.5092 4
    endloop
  endfacet
  facet normal 0.481759 -0.876304 0
    outer loop
      vertex -6.81247 14.4772 4
      vertex -8.57323 13.5092 -6
      vertex -6.81247 14.4772 -6
    endloop
  endfacet
  facet normal 0.58777 -0.809028 0
    outer loop
      vertex -10.1988 12.3282 -6
      vertex -8.57323 13.5092 4
      vertex -10.1988 12.3282 4
    endloop
  endfacet
  facet normal 0.58777 -0.809028 0
    outer loop
      vertex -8.57323 13.5092 4
      vertex -10.1988 12.3282 -6
      vertex -8.57323 13.5092 -6
    endloop
  endfacet
  facet normal 0.248694 -0.968582 0
    outer loop
      vertex -4.94427 15.2169 -6
      vertex -2.9981 15.7166 4
      vertex -4.94427 15.2169 4
    endloop
  endfacet
  facet normal 0.248694 -0.968582 0
    outer loop
      vertex -2.9981 15.7166 4
      vertex -4.94427 15.2169 -6
      vertex -2.9981 15.7166 -6
    endloop
  endfacet
  facet normal -0.998026 0.062808 0
    outer loop
      vertex 15.8738 -2.00533 -6
      vertex 16 0 4
      vertex 16 0 -6
    endloop
  endfacet
  facet normal -0.998026 0.062808 0
    outer loop
      vertex 16 0 4
      vertex 15.8738 -2.00533 -6
      vertex 15.8738 -2.00533 4
    endloop
  endfacet
  facet normal -0.904831 0.425772 0
    outer loop
      vertex 14.0209 -7.70806 -6
      vertex 14.8764 -5.88999 4
      vertex 14.8764 -5.88999 -6
    endloop
  endfacet
  facet normal -0.904831 0.425772 0
    outer loop
      vertex 14.8764 -5.88999 4
      vertex 14.0209 -7.70806 -6
      vertex 14.0209 -7.70806 4
    endloop
  endfacet
  facet normal 0.684535 0.72898 -0
    outer loop
      vertex -10.1988 -12.3282 -6
      vertex -11.6635 -10.9528 4
      vertex -10.1988 -12.3282 4
    endloop
  endfacet
  facet normal 0.684535 0.72898 0
    outer loop
      vertex -11.6635 -10.9528 4
      vertex -10.1988 -12.3282 -6
      vertex -11.6635 -10.9528 -6
    endloop
  endfacet
  facet normal 0.904831 0.425772 0
    outer loop
      vertex -14.0209 -7.70806 4
      vertex -14.8764 -5.88999 -6
      vertex -14.8764 -5.88999 4
    endloop
  endfacet
  facet normal 0.904831 0.425772 0
    outer loop
      vertex -14.8764 -5.88999 -6
      vertex -14.0209 -7.70806 4
      vertex -14.0209 -7.70806 -6
    endloop
  endfacet
  facet normal 0.844335 0.535816 0
    outer loop
      vertex -12.9443 -9.40456 4
      vertex -14.0209 -7.70806 -6
      vertex -14.0209 -7.70806 4
    endloop
  endfacet
  facet normal 0.844335 0.535816 0
    outer loop
      vertex -14.0209 -7.70806 -6
      vertex -12.9443 -9.40456 4
      vertex -12.9443 -9.40456 -6
    endloop
  endfacet
  facet normal 0 0 -1
    outer loop
      vertex 16 0 -6
      vertex 22.5 0 -6
      vertex 22.3226 -2.82 -6
    endloop
  endfacet
  facet normal 0 0 -1
    outer loop
      vertex 15.8738 -2.00533 -6
      vertex 22.3226 -2.82 -6
      vertex 21.7931 -5.59552 -6
    endloop
  endfacet
  facet normal 0 0 -1
    outer loop
      vertex 22.5 0 -6
      vertex 16 0 -6
      vertex 22.3226 2.82 -6
    endloop
  endfacet
  facet normal 0 0 -1
    outer loop
      vertex 15.4973 -3.97904 -6
      vertex 21.7931 -5.59552 -6
      vertex 20.92 -8.2828 -6
    endloop
  endfacet
  facet normal 0 0 -1
    outer loop
      vertex 15.8738 2.00533 -6
      vertex 22.3226 2.82 -6
      vertex 16 0 -6
    endloop
  endfacet
  facet normal 0 0 -1
    outer loop
      vertex 14.8764 -5.88999 -6
      vertex 20.92 -8.2828 -6
      vertex 19.7169 -10.8395 -6
    endloop
  endfacet
  facet normal -0 0 -1
    outer loop
      vertex 22.3226 2.82 -6
      vertex 15.8738 2.00533 -6
      vertex 21.7931 5.59552 -6
    endloop
  endfacet
  facet normal 0 0 -1
    outer loop
      vertex 14.0209 -7.70806 -6
      vertex 19.7169 -10.8395 -6
      vertex 18.2029 -13.2252 -6
    endloop
  endfacet
  facet normal 0 0 -1
    outer loop
      vertex 15.4973 3.97904 -6
      vertex 21.7931 5.59552 -6
      vertex 15.8738 2.00533 -6
    endloop
  endfacet
  facet normal 0 0 -1
    outer loop
      vertex 12.9443 -9.40456 -6
      vertex 18.2029 -13.2252 -6
      vertex 16.4018 -15.4023 -6
    endloop
  endfacet
  facet normal -0 0 -1
    outer loop
      vertex 21.7931 5.59552 -6
      vertex 15.4973 3.97904 -6
      vertex 20.92 8.2828 -6
    endloop
  endfacet
  facet normal 0 0 -1
    outer loop
      vertex 14.8764 5.88999 -6
      vertex 20.92 8.2828 -6
      vertex 15.4973 3.97904 -6
    endloop
  endfacet
  facet normal 0 0 -1
    outer loop
      vertex 22.3226 -2.82 -6
      vertex 15.8738 -2.00533 -6
      vertex 16 0 -6
    endloop
  endfacet
  facet normal 0 0 -1
    outer loop
      vertex 21.7931 -5.59552 -6
      vertex 15.4973 -3.97904 -6
      vertex 15.8738 -2.00533 -6
    endloop
  endfacet
  facet normal 0 0 -1
    outer loop
      vertex 20.92 -8.2828 -6
      vertex 14.8764 -5.88999 -6
      vertex 15.4973 -3.97904 -6
    endloop
  endfacet
  facet normal 0 0 -1
    outer loop
      vertex 11.6635 -10.9528 -6
      vertex 16.4018 -15.4023 -6
      vertex 14.342 -17.3365 -6
    endloop
  endfacet
  facet normal 0 0 -1
    outer loop
      vertex 19.7169 -10.8395 -6
      vertex 14.0209 -7.70806 -6
      vertex 14.8764 -5.88999 -6
    endloop
  endfacet
  facet normal 0 0 -1
    outer loop
      vertex 18.2029 -13.2252 -6
      vertex 12.9443 -9.40456 -6
      vertex 14.0209 -7.70806 -6
    endloop
  endfacet
  facet normal 0 0 -1
    outer loop
      vertex 10.1988 -12.3282 -6
      vertex 14.342 -17.3365 -6
      vertex 12.0561 -18.9974 -6
    endloop
  endfacet
  facet normal 0 0 -1
    outer loop
      vertex 16.4018 -15.4023 -6
      vertex 11.6635 -10.9528 -6
      vertex 12.9443 -9.40456 -6
    endloop
  endfacet
  facet normal 0 0 -1
    outer loop
      vertex 14.342 -17.3365 -6
      vertex 10.1988 -12.3282 -6
      vertex 11.6635 -10.9528 -6
    endloop
  endfacet
  facet normal 0 0 -1
    outer loop
      vertex 8.57323 -13.5092 -6
      vertex 12.0561 -18.9974 -6
      vertex 9.58003 -20.3586 -6
    endloop
  endfacet
  facet normal 0 0 -1
    outer loop
      vertex 12.0561 -18.9974 -6
      vertex 8.57323 -13.5092 -6
      vertex 10.1988 -12.3282 -6
    endloop
  endfacet
  facet normal 0 0 -1
    outer loop
      vertex 6.81247 -14.4772 -6
      vertex 9.58003 -20.3586 -6
      vertex 6.95288 -21.3988 -6
    endloop
  endfacet
  facet normal 0 0 -1
    outer loop
      vertex 9.58003 -20.3586 -6
      vertex 6.81247 -14.4772 -6
      vertex 8.57323 -13.5092 -6
    endloop
  endfacet
  facet normal 0 0 -1
    outer loop
      vertex 6.95288 -21.3988 -6
      vertex 4.94427 -15.2169 -6
      vertex 6.81247 -14.4772 -6
    endloop
  endfacet
  facet normal 0 0 -1
    outer loop
      vertex 4.21608 -22.1015 -6
      vertex 4.94427 -15.2169 -6
      vertex 6.95288 -21.3988 -6
    endloop
  endfacet
  facet normal 0 0 -1
    outer loop
      vertex 4.21608 -22.1015 -6
      vertex 2.9981 -15.7166 -6
      vertex 4.94427 -15.2169 -6
    endloop
  endfacet
  facet normal 0 0 -1
    outer loop
      vertex 1.41279 -22.4556 -6
      vertex 2.9981 -15.7166 -6
      vertex 4.21608 -22.1015 -6
    endloop
  endfacet
  facet normal 0 0 -1
    outer loop
      vertex 1.41279 -22.4556 -6
      vertex 1.00465 -15.9684 -6
      vertex 2.9981 -15.7166 -6
    endloop
  endfacet
  facet normal 0 0 -1
    outer loop
      vertex 1.41279 -22.4556 -6
      vertex -1.00465 -15.9684 -6
      vertex 1.00465 -15.9684 -6
    endloop
  endfacet
  facet normal 0 0 -1
    outer loop
      vertex -1.41279 -22.4556 -6
      vertex -1.00465 -15.9684 -6
      vertex 1.41279 -22.4556 -6
    endloop
  endfacet
  facet normal 0 0 -1
    outer loop
      vertex -1.41279 -22.4556 -6
      vertex -2.9981 -15.7166 -6
      vertex -1.00465 -15.9684 -6
    endloop
  endfacet
  facet normal 0 0 -1
    outer loop
      vertex -4.21608 -22.1015 -6
      vertex -2.9981 -15.7166 -6
      vertex -1.41279 -22.4556 -6
    endloop
  endfacet
  facet normal 0 0 -1
    outer loop
      vertex -4.21608 -22.1015 -6
      vertex -4.94427 -15.2169 -6
      vertex -2.9981 -15.7166 -6
    endloop
  endfacet
  facet normal 0 0 -1
    outer loop
      vertex -6.95288 -21.3988 -6
      vertex -4.94427 -15.2169 -6
      vertex -4.21608 -22.1015 -6
    endloop
  endfacet
  facet normal -0 0 -1
    outer loop
      vertex -4.94427 -15.2169 -6
      vertex -6.95288 -21.3988 -6
      vertex -6.81247 -14.4772 -6
    endloop
  endfacet
  facet normal 0 0 -1
    outer loop
      vertex -9.58003 -20.3586 -6
      vertex -6.81247 -14.4772 -6
      vertex -6.95288 -21.3988 -6
    endloop
  endfacet
  facet normal -0 0 -1
    outer loop
      vertex -6.81247 -14.4772 -6
      vertex -9.58003 -20.3586 -6
      vertex -8.57323 -13.5092 -6
    endloop
  endfacet
  facet normal 0 0 -1
    outer loop
      vertex -12.0561 -18.9974 -6
      vertex -8.57323 -13.5092 -6
      vertex -9.58003 -20.3586 -6
    endloop
  endfacet
  facet normal -0 0 -1
    outer loop
      vertex -8.57323 -13.5092 -6
      vertex -12.0561 -18.9974 -6
      vertex -10.1988 -12.3282 -6
    endloop
  endfacet
  facet normal 0 0 -1
    outer loop
      vertex -14.342 -17.3365 -6
      vertex -10.1988 -12.3282 -6
      vertex -12.0561 -18.9974 -6
    endloop
  endfacet
  facet normal -0 0 -1
    outer loop
      vertex -10.1988 -12.3282 -6
      vertex -14.342 -17.3365 -6
      vertex -11.6635 -10.9528 -6
    endloop
  endfacet
  facet normal 0 0 -1
    outer loop
      vertex -16.4018 -15.4023 -6
      vertex -11.6635 -10.9528 -6
      vertex -14.342 -17.3365 -6
    endloop
  endfacet
  facet normal -0 0 -1
    outer loop
      vertex -11.6635 -10.9528 -6
      vertex -16.4018 -15.4023 -6
      vertex -12.9443 -9.40456 -6
    endloop
  endfacet
  facet normal 0 0 -1
    outer loop
      vertex -18.2029 -13.2252 -6
      vertex -12.9443 -9.40456 -6
      vertex -16.4018 -15.4023 -6
    endloop
  endfacet
  facet normal -0 0 -1
    outer loop
      vertex -12.9443 -9.40456 -6
      vertex -18.2029 -13.2252 -6
      vertex -14.0209 -7.70806 -6
    endloop
  endfacet
  facet normal 0 0 -1
    outer loop
      vertex -19.7169 -10.8395 -6
      vertex -14.0209 -7.70806 -6
      vertex -18.2029 -13.2252 -6
    endloop
  endfacet
  facet normal 0 0 -1
    outer loop
      vertex -20.92 -8.2828 -6
      vertex -14.8764 -5.88999 -6
      vertex -19.7169 -10.8395 -6
    endloop
  endfacet
  facet normal -0 0 -1
    outer loop
      vertex -14.0209 -7.70806 -6
      vertex -19.7169 -10.8395 -6
      vertex -14.8764 -5.88999 -6
    endloop
  endfacet
  facet normal -0 0 -1
    outer loop
      vertex 20.92 8.2828 -6
      vertex 14.8764 5.88999 -6
      vertex 19.7169 10.8395 -6
    endloop
  endfacet
  facet normal 0 0 -1
    outer loop
      vertex 14.0209 7.70806 -6
      vertex 19.7169 10.8395 -6
      vertex 14.8764 5.88999 -6
    endloop
  endfacet
  facet normal -0 0 -1
    outer loop
      vertex 19.7169 10.8395 -6
      vertex 14.0209 7.70806 -6
      vertex 18.2029 13.2252 -6
    endloop
  endfacet
  facet normal 0 0 -1
    outer loop
      vertex 12.9443 9.40456 -6
      vertex 18.2029 13.2252 -6
      vertex 14.0209 7.70806 -6
    endloop
  endfacet
  facet normal -0 0 -1
    outer loop
      vertex 18.2029 13.2252 -6
      vertex 12.9443 9.40456 -6
      vertex 16.4018 15.4023 -6
    endloop
  endfacet
  facet normal 0 0 -1
    outer loop
      vertex 11.6635 10.9528 -6
      vertex 16.4018 15.4023 -6
      vertex 12.9443 9.40456 -6
    endloop
  endfacet
  facet normal -0 0 -1
    outer loop
      vertex 16.4018 15.4023 -6
      vertex 11.6635 10.9528 -6
      vertex 14.342 17.3365 -6
    endloop
  endfacet
  facet normal 0 0 -1
    outer loop
      vertex 10.1988 12.3282 -6
      vertex 14.342 17.3365 -6
      vertex 11.6635 10.9528 -6
    endloop
  endfacet
  facet normal -0 0 -1
    outer loop
      vertex 14.342 17.3365 -6
      vertex 10.1988 12.3282 -6
      vertex 12.0561 18.9974 -6
    endloop
  endfacet
  facet normal 0 0 -1
    outer loop
      vertex 8.57323 13.5092 -6
      vertex 12.0561 18.9974 -6
      vertex 10.1988 12.3282 -6
    endloop
  endfacet
  facet normal -0 0 -1
    outer loop
      vertex 12.0561 18.9974 -6
      vertex 8.57323 13.5092 -6
      vertex 9.58003 20.3586 -6
    endloop
  endfacet
  facet normal 0 0 -1
    outer loop
      vertex 6.81247 14.4772 -6
      vertex 9.58003 20.3586 -6
      vertex 8.57323 13.5092 -6
    endloop
  endfacet
  facet normal -0 0 -1
    outer loop
      vertex 9.58003 20.3586 -6
      vertex 6.81247 14.4772 -6
      vertex 6.95288 21.3988 -6
    endloop
  endfacet
  facet normal 0 0 -1
    outer loop
      vertex 4.94427 15.2169 -6
      vertex 6.95288 21.3988 -6
      vertex 6.81247 14.4772 -6
    endloop
  endfacet
  facet normal 0 0 -1
    outer loop
      vertex 4.94427 15.2169 -6
      vertex 4.21608 22.1015 -6
      vertex 6.95288 21.3988 -6
    endloop
  endfacet
  facet normal 0 0 -1
    outer loop
      vertex 2.9981 15.7166 -6
      vertex 4.21608 22.1015 -6
      vertex 4.94427 15.2169 -6
    endloop
  endfacet
  facet normal 0 0 -1
    outer loop
      vertex 2.9981 15.7166 -6
      vertex 1.41279 22.4556 -6
      vertex 4.21608 22.1015 -6
    endloop
  endfacet
  facet normal 0 0 -1
    outer loop
      vertex 1.00465 15.9684 -6
      vertex 1.41279 22.4556 -6
      vertex 2.9981 15.7166 -6
    endloop
  endfacet
  facet normal 0 0 -1
    outer loop
      vertex -1.00465 15.9684 -6
      vertex 1.41279 22.4556 -6
      vertex 1.00465 15.9684 -6
    endloop
  endfacet
  facet normal 0 0 -1
    outer loop
      vertex -1.00465 15.9684 -6
      vertex -1.41279 22.4556 -6
      vertex 1.41279 22.4556 -6
    endloop
  endfacet
  facet normal 0 0 -1
    outer loop
      vertex -2.9981 15.7166 -6
      vertex -1.41279 22.4556 -6
      vertex -1.00465 15.9684 -6
    endloop
  endfacet
  facet normal 0 0 -1
    outer loop
      vertex -2.9981 15.7166 -6
      vertex -4.21608 22.1015 -6
      vertex -1.41279 22.4556 -6
    endloop
  endfacet
  facet normal 0 0 -1
    outer loop
      vertex -4.94427 15.2169 -6
      vertex -4.21608 22.1015 -6
      vertex -2.9981 15.7166 -6
    endloop
  endfacet
  facet normal 0 0 -1
    outer loop
      vertex -6.95288 21.3988 -6
      vertex -4.94427 15.2169 -6
      vertex -6.81247 14.4772 -6
    endloop
  endfacet
  facet normal 0 0 -1
    outer loop
      vertex -4.94427 15.2169 -6
      vertex -6.95288 21.3988 -6
      vertex -4.21608 22.1015 -6
    endloop
  endfacet
  facet normal 0 0 -1
    outer loop
      vertex -9.58003 20.3586 -6
      vertex -6.81247 14.4772 -6
      vertex -8.57323 13.5092 -6
    endloop
  endfacet
  facet normal 0 0 -1
    outer loop
      vertex -6.81247 14.4772 -6
      vertex -9.58003 20.3586 -6
      vertex -6.95288 21.3988 -6
    endloop
  endfacet
  facet normal 0 0 -1
    outer loop
      vertex -12.0561 18.9974 -6
      vertex -8.57323 13.5092 -6
      vertex -10.1988 12.3282 -6
    endloop
  endfacet
  facet normal 0 0 -1
    outer loop
      vertex -14.342 17.3365 -6
      vertex -10.1988 12.3282 -6
      vertex -11.6635 10.9528 -6
    endloop
  endfacet
  facet normal 0 0 -1
    outer loop
      vertex -8.57323 13.5092 -6
      vertex -12.0561 18.9974 -6
      vertex -9.58003 20.3586 -6
    endloop
  endfacet
  facet normal 0 0 -1
    outer loop
      vertex -16.4018 15.4023 -6
      vertex -11.6635 10.9528 -6
      vertex -12.9443 9.40456 -6
    endloop
  endfacet
  facet normal 0 0 -1
    outer loop
      vertex -18.2029 13.2252 -6
      vertex -12.9443 9.40456 -6
      vertex -14.0209 7.70806 -6
    endloop
  endfacet
  facet normal 0 0 -1
    outer loop
      vertex -10.1988 12.3282 -6
      vertex -14.342 17.3365 -6
      vertex -12.0561 18.9974 -6
    endloop
  endfacet
  facet normal 0 0 -1
    outer loop
      vertex -19.7169 10.8395 -6
      vertex -14.0209 7.70806 -6
      vertex -14.8764 5.88999 -6
    endloop
  endfacet
  facet normal 0 0 -1
    outer loop
      vertex -20.92 8.2828 -6
      vertex -14.8764 5.88999 -6
      vertex -15.4973 3.97904 -6
    endloop
  endfacet
  facet normal 0 0 -1
    outer loop
      vertex -21.7931 5.59552 -6
      vertex -15.4973 3.97904 -6
      vertex -15.8738 2.00533 -6
    endloop
  endfacet
  facet normal 0 0 -1
    outer loop
      vertex -11.6635 10.9528 -6
      vertex -16.4018 15.4023 -6
      vertex -14.342 17.3365 -6
    endloop
  endfacet
  facet normal 0 0 -1
    outer loop
      vertex -22.3226 2.82 -6
      vertex -15.8738 2.00533 -6
      vertex -16 0 -6
    endloop
  endfacet
  facet normal -0 0 -1
    outer loop
      vertex -14.8764 -5.88999 -6
      vertex -20.92 -8.2828 -6
      vertex -15.4973 -3.97904 -6
    endloop
  endfacet
  facet normal 0 0 -1
    outer loop
      vertex -21.7931 -5.59552 -6
      vertex -15.4973 -3.97904 -6
      vertex -20.92 -8.2828 -6
    endloop
  endfacet
  facet normal 0 0 -1
    outer loop
      vertex -12.9443 9.40456 -6
      vertex -18.2029 13.2252 -6
      vertex -16.4018 15.4023 -6
    endloop
  endfacet
  facet normal -0 0 -1
    outer loop
      vertex -15.4973 -3.97904 -6
      vertex -21.7931 -5.59552 -6
      vertex -15.8738 -2.00533 -6
    endloop
  endfacet
  facet normal 0 0 -1
    outer loop
      vertex -14.0209 7.70806 -6
      vertex -19.7169 10.8395 -6
      vertex -18.2029 13.2252 -6
    endloop
  endfacet
  facet normal 0 0 -1
    outer loop
      vertex -22.3226 -2.82 -6
      vertex -15.8738 -2.00533 -6
      vertex -21.7931 -5.59552 -6
    endloop
  endfacet
  facet normal 0 0 -1
    outer loop
      vertex -14.8764 5.88999 -6
      vertex -20.92 8.2828 -6
      vertex -19.7169 10.8395 -6
    endloop
  endfacet
  facet normal -0 0 -1
    outer loop
      vertex -15.8738 -2.00533 -6
      vertex -22.3226 -2.82 -6
      vertex -16 0 -6
    endloop
  endfacet
  facet normal 0 0 -1
    outer loop
      vertex -15.4973 3.97904 -6
      vertex -21.7931 5.59552 -6
      vertex -20.92 8.2828 -6
    endloop
  endfacet
  facet normal 0 0 -1
    outer loop
      vertex -22.5 0 -6
      vertex -16 0 -6
      vertex -22.3226 -2.82 -6
    endloop
  endfacet
  facet normal 0 0 -1
    outer loop
      vertex -15.8738 2.00533 -6
      vertex -22.3226 2.82 -6
      vertex -21.7931 5.59552 -6
    endloop
  endfacet
  facet normal 0 0 -1
    outer loop
      vertex -16 0 -6
      vertex -22.5 0 -6
      vertex -22.3226 2.82 -6
    endloop
  endfacet
  facet normal -0.481759 0.876304 0
    outer loop
      vertex 8.57323 -13.5092 -6
      vertex 6.81247 -14.4772 4
      vertex 8.57323 -13.5092 4
    endloop
  endfacet
  facet normal -0.481759 0.876304 0
    outer loop
      vertex 6.81247 -14.4772 4
      vertex 8.57323 -13.5092 -6
      vertex 6.81247 -14.4772 -6
    endloop
  endfacet
  facet normal -0.951057 0.309015 0
    outer loop
      vertex 14.8764 -5.88999 -6
      vertex 15.4973 -3.97904 4
      vertex 15.4973 -3.97904 -6
    endloop
  endfacet
  facet normal -0.951057 0.309015 0
    outer loop
      vertex 15.4973 -3.97904 4
      vertex 14.8764 -5.88999 -6
      vertex 14.8764 -5.88999 4
    endloop
  endfacet
  facet normal 0.770517 0.637419 0
    outer loop
      vertex -11.6635 -10.9528 4
      vertex -12.9443 -9.40456 -6
      vertex -12.9443 -9.40456 4
    endloop
  endfacet
  facet normal 0.770517 0.637419 0
    outer loop
      vertex -12.9443 -9.40456 -6
      vertex -11.6635 -10.9528 4
      vertex -11.6635 -10.9528 -6
    endloop
  endfacet
  facet normal 0.951057 0.309015 0
    outer loop
      vertex -14.8764 -5.88999 4
      vertex -15.4973 -3.97904 -6
      vertex -15.4973 -3.97904 4
    endloop
  endfacet
  facet normal 0.951057 0.309015 0
    outer loop
      vertex -15.4973 -3.97904 -6
      vertex -14.8764 -5.88999 4
      vertex -14.8764 -5.88999 -6
    endloop
  endfacet
  facet normal -0.684535 0.72898 0
    outer loop
      vertex 11.6635 -10.9528 -6
      vertex 10.1988 -12.3282 4
      vertex 11.6635 -10.9528 4
    endloop
  endfacet
  facet normal -0.684535 0.72898 0
    outer loop
      vertex 10.1988 -12.3282 4
      vertex 11.6635 -10.9528 -6
      vertex 10.1988 -12.3282 -6
    endloop
  endfacet
  facet normal -0.368136 0.929772 0
    outer loop
      vertex 6.81247 -14.4772 -6
      vertex 4.94427 -15.2169 4
      vertex 6.81247 -14.4772 4
    endloop
  endfacet
  facet normal -0.368136 0.929772 0
    outer loop
      vertex 4.94427 -15.2169 4
      vertex 6.81247 -14.4772 -6
      vertex 4.94427 -15.2169 -6
    endloop
  endfacet
  facet normal -0.248694 0.968582 0
    outer loop
      vertex 4.94427 -15.2169 -6
      vertex 2.9981 -15.7166 4
      vertex 4.94427 -15.2169 4
    endloop
  endfacet
  facet normal -0.248694 0.968582 0
    outer loop
      vertex 2.9981 -15.7166 4
      vertex 4.94427 -15.2169 -6
      vertex 2.9981 -15.7166 -6
    endloop
  endfacet
  facet normal -0.982288 0.187379 0
    outer loop
      vertex 15.4973 -3.97904 -6
      vertex 15.8738 -2.00533 4
      vertex 15.8738 -2.00533 -6
    endloop
  endfacet
  facet normal -0.982288 0.187379 0
    outer loop
      vertex 15.8738 -2.00533 4
      vertex 15.4973 -3.97904 -6
      vertex 15.4973 -3.97904 4
    endloop
  endfacet
  facet normal -0.844335 0.535816 0
    outer loop
      vertex 12.9443 -9.40456 -6
      vertex 14.0209 -7.70806 4
      vertex 14.0209 -7.70806 -6
    endloop
  endfacet
  facet normal -0.844335 0.535816 0
    outer loop
      vertex 14.0209 -7.70806 4
      vertex 12.9443 -9.40456 -6
      vertex 12.9443 -9.40456 4
    endloop
  endfacet
  facet normal -0.770517 0.637419 0
    outer loop
      vertex 11.6635 -10.9528 -6
      vertex 12.9443 -9.40456 4
      vertex 12.9443 -9.40456 -6
    endloop
  endfacet
  facet normal -0.770517 0.637419 0
    outer loop
      vertex 12.9443 -9.40456 4
      vertex 11.6635 -10.9528 -6
      vertex 11.6635 -10.9528 4
    endloop
  endfacet
  facet normal 0.125318 0.992117 -0
    outer loop
      vertex -1.00465 -15.9684 -6
      vertex -2.9981 -15.7166 4
      vertex -1.00465 -15.9684 4
    endloop
  endfacet
  facet normal 0.125318 0.992117 0
    outer loop
      vertex -2.9981 -15.7166 4
      vertex -1.00465 -15.9684 -6
      vertex -2.9981 -15.7166 -6
    endloop
  endfacet
  facet normal 0.248694 0.968582 -0
    outer loop
      vertex -2.9981 -15.7166 -6
      vertex -4.94427 -15.2169 4
      vertex -2.9981 -15.7166 4
    endloop
  endfacet
  facet normal 0.248694 0.968582 0
    outer loop
      vertex -4.94427 -15.2169 4
      vertex -2.9981 -15.7166 -6
      vertex -4.94427 -15.2169 -6
    endloop
  endfacet
  facet normal 0.982288 0.187379 0
    outer loop
      vertex -15.4973 -3.97904 4
      vertex -15.8738 -2.00533 -6
      vertex -15.8738 -2.00533 4
    endloop
  endfacet
  facet normal 0.982288 0.187379 0
    outer loop
      vertex -15.8738 -2.00533 -6
      vertex -15.4973 -3.97904 4
      vertex -15.4973 -3.97904 -6
    endloop
  endfacet
  facet normal 0.998026 0.062808 0
    outer loop
      vertex -15.8738 -2.00533 4
      vertex -16 0 -6
      vertex -16 0 4
    endloop
  endfacet
  facet normal 0.998026 0.062808 0
    outer loop
      vertex -16 0 -6
      vertex -15.8738 -2.00533 4
      vertex -15.8738 -2.00533 -6
    endloop
  endfacet
  facet normal -0.58777 0.809028 0
    outer loop
      vertex 10.1988 -12.3282 -6
      vertex 8.57323 -13.5092 4
      vertex 10.1988 -12.3282 4
    endloop
  endfacet
  facet normal -0.58777 0.809028 0
    outer loop
      vertex 8.57323 -13.5092 4
      vertex 10.1988 -12.3282 -6
      vertex 8.57323 -13.5092 -6
    endloop
  endfacet
  facet normal 0.368136 0.929772 -0
    outer loop
      vertex -4.94427 -15.2169 -6
      vertex -6.81247 -14.4772 4
      vertex -4.94427 -15.2169 4
    endloop
  endfacet
  facet normal 0.368136 0.929772 0
    outer loop
      vertex -6.81247 -14.4772 4
      vertex -4.94427 -15.2169 -6
      vertex -6.81247 -14.4772 -6
    endloop
  endfacet
  facet normal 0.481759 0.876304 -0
    outer loop
      vertex -6.81247 -14.4772 -6
      vertex -8.57323 -13.5092 4
      vertex -6.81247 -14.4772 4
    endloop
  endfacet
  facet normal 0.481759 0.876304 0
    outer loop
      vertex -8.57323 -13.5092 4
      vertex -6.81247 -14.4772 -6
      vertex -8.57323 -13.5092 -6
    endloop
  endfacet
  facet normal 0.58777 0.809028 -0
    outer loop
      vertex -8.57323 -13.5092 -6
      vertex -10.1988 -12.3282 4
      vertex -8.57323 -13.5092 4
    endloop
  endfacet
  facet normal 0.58777 0.809028 0
    outer loop
      vertex -10.1988 -12.3282 4
      vertex -8.57323 -13.5092 -6
      vertex -10.1988 -12.3282 -6
    endloop
  endfacet
  facet normal -0.998028 -0.0627717 0
    outer loop
      vertex 20.5 0 4
      vertex 20.3384 2.56933 6
      vertex 20.3384 2.56933 4
    endloop
  endfacet
  facet normal -0.998028 -0.0627717 0
    outer loop
      vertex 20.3384 2.56933 6
      vertex 20.5 0 4
      vertex 20.5 0 6
    endloop
  endfacet
  facet normal 0.998028 -0.0627717 0
    outer loop
      vertex -20.5 0 6
      vertex -20.3384 2.56933 4
      vertex -20.3384 2.56933 6
    endloop
  endfacet
  facet normal 0.998028 -0.0627717 0
    outer loop
      vertex -20.3384 2.56933 4
      vertex -20.5 0 6
      vertex -20.5 0 4
    endloop
  endfacet
  facet normal 0 -1 0
    outer loop
      vertex -1.2872 20.4595 4
      vertex 1.2872 20.4595 6
      vertex -1.2872 20.4595 6
    endloop
  endfacet
  facet normal 0 -1 -0
    outer loop
      vertex 1.2872 20.4595 6
      vertex -1.2872 20.4595 4
      vertex 1.2872 20.4595 4
    endloop
  endfacet
  facet normal 0 1 -0
    outer loop
      vertex 1.2872 -20.4595 4
      vertex -1.2872 -20.4595 6
      vertex 1.2872 -20.4595 6
    endloop
  endfacet
  facet normal 0 1 0
    outer loop
      vertex -1.2872 -20.4595 6
      vertex 1.2872 -20.4595 4
      vertex -1.2872 -20.4595 4
    endloop
  endfacet
  facet normal -0.684539 -0.728976 0
    outer loop
      vertex 13.0672 15.7955 4
      vertex 14.9439 14.0332 6
      vertex 13.0672 15.7955 6
    endloop
  endfacet
  facet normal -0.684539 -0.728976 -0
    outer loop
      vertex 14.9439 14.0332 6
      vertex 13.0672 15.7955 4
      vertex 14.9439 14.0332 4
    endloop
  endfacet
  facet normal 0.684539 -0.728976 0
    outer loop
      vertex -14.9439 14.0332 4
      vertex -13.0672 15.7955 6
      vertex -14.9439 14.0332 6
    endloop
  endfacet
  facet normal 0.684539 -0.728976 0
    outer loop
      vertex -13.0672 15.7955 6
      vertex -14.9439 14.0332 4
      vertex -13.0672 15.7955 4
    endloop
  endfacet
  facet normal 0.368124 -0.929777 0
    outer loop
      vertex -8.72847 18.549 4
      vertex -6.33485 19.4967 6
      vertex -8.72847 18.549 6
    endloop
  endfacet
  facet normal 0.368124 -0.929777 0
    outer loop
      vertex -6.33485 19.4967 6
      vertex -8.72847 18.549 4
      vertex -6.33485 19.4967 4
    endloop
  endfacet
  facet normal -0.904832 -0.425769 0
    outer loop
      vertex 19.0604 7.54655 4
      vertex 17.9643 9.87595 6
      vertex 17.9643 9.87595 4
    endloop
  endfacet
  facet normal -0.904832 -0.425769 0
    outer loop
      vertex 17.9643 9.87595 6
      vertex 19.0604 7.54655 4
      vertex 19.0604 7.54655 6
    endloop
  endfacet
  facet normal -0.982287 -0.187383 0
    outer loop
      vertex 20.3384 2.56933 4
      vertex 19.856 5.09814 6
      vertex 19.856 5.09814 4
    endloop
  endfacet
  facet normal -0.982287 -0.187383 0
    outer loop
      vertex 19.856 5.09814 6
      vertex 20.3384 2.56933 4
      vertex 20.3384 2.56933 6
    endloop
  endfacet
  facet normal -0.368124 -0.929777 0
    outer loop
      vertex 6.33485 19.4967 4
      vertex 8.72847 18.549 6
      vertex 6.33485 19.4967 6
    endloop
  endfacet
  facet normal -0.368124 -0.929777 -0
    outer loop
      vertex 8.72847 18.549 6
      vertex 6.33485 19.4967 4
      vertex 8.72847 18.549 4
    endloop
  endfacet
  facet normal -0.248679 -0.968586 0
    outer loop
      vertex 3.84132 20.1369 4
      vertex 6.33485 19.4967 6
      vertex 3.84132 20.1369 6
    endloop
  endfacet
  facet normal -0.248679 -0.968586 -0
    outer loop
      vertex 6.33485 19.4967 6
      vertex 3.84132 20.1369 4
      vertex 6.33485 19.4967 4
    endloop
  endfacet
  facet normal -0.481781 -0.876292 0
    outer loop
      vertex 8.72847 18.549 4
      vertex 10.9844 17.3087 6
      vertex 8.72847 18.549 6
    endloop
  endfacet
  facet normal -0.481781 -0.876292 -0
    outer loop
      vertex 10.9844 17.3087 6
      vertex 8.72847 18.549 4
      vertex 10.9844 17.3087 4
    endloop
  endfacet
  facet normal 0.904832 -0.425769 0
    outer loop
      vertex -19.0604 7.54655 6
      vertex -17.9643 9.87595 4
      vertex -17.9643 9.87595 6
    endloop
  endfacet
  facet normal 0.904832 -0.425769 0
    outer loop
      vertex -17.9643 9.87595 4
      vertex -19.0604 7.54655 6
      vertex -19.0604 7.54655 4
    endloop
  endfacet
  facet normal 0.12531 -0.992118 0
    outer loop
      vertex -3.84132 20.1369 4
      vertex -1.2872 20.4595 6
      vertex -3.84132 20.1369 6
    endloop
  endfacet
  facet normal 0.12531 -0.992118 0
    outer loop
      vertex -1.2872 20.4595 6
      vertex -3.84132 20.1369 4
      vertex -1.2872 20.4595 4
    endloop
  endfacet
  facet normal -0.982287 0.187383 0
    outer loop
      vertex 19.856 -5.09814 4
      vertex 20.3384 -2.56933 6
      vertex 20.3384 -2.56933 4
    endloop
  endfacet
  facet normal -0.982287 0.187383 0
    outer loop
      vertex 20.3384 -2.56933 6
      vertex 19.856 -5.09814 4
      vertex 19.856 -5.09814 6
    endloop
  endfacet
  facet normal 0 0 1
    outer loop
      vertex 16 0 4
      vertex 20.5 0 4
      vertex 20.3384 2.56933 4
    endloop
  endfacet
  facet normal 0 0 1
    outer loop
      vertex 15.8738 2.00533 4
      vertex 20.3384 2.56933 4
      vertex 19.856 5.09814 4
    endloop
  endfacet
  facet normal 0 0 1
    outer loop
      vertex 20.5 0 4
      vertex 16 0 4
      vertex 20.3384 -2.56933 4
    endloop
  endfacet
  facet normal 0 0 1
    outer loop
      vertex 15.4973 3.97904 4
      vertex 19.856 5.09814 4
      vertex 19.0604 7.54655 4
    endloop
  endfacet
  facet normal -0 0 1
    outer loop
      vertex 15.8738 -2.00533 4
      vertex 20.3384 -2.56933 4
      vertex 16 0 4
    endloop
  endfacet
  facet normal 0 0 1
    outer loop
      vertex 14.8764 5.88999 4
      vertex 19.0604 7.54655 4
      vertex 17.9643 9.87595 4
    endloop
  endfacet
  facet normal 0 0 1
    outer loop
      vertex 20.3384 -2.56933 4
      vertex 15.8738 -2.00533 4
      vertex 19.856 -5.09814 4
    endloop
  endfacet
  facet normal 0 0 1
    outer loop
      vertex 14.0209 7.70806 4
      vertex 17.9643 9.87595 4
      vertex 16.5848 12.0496 4
    endloop
  endfacet
  facet normal -0 0 1
    outer loop
      vertex 15.4973 -3.97904 4
      vertex 19.856 -5.09814 4
      vertex 15.8738 -2.00533 4
    endloop
  endfacet
  facet normal 0 0 1
    outer loop
      vertex 19.856 -5.09814 4
      vertex 15.4973 -3.97904 4
      vertex 19.0604 -7.54655 4
    endloop
  endfacet
  facet normal 0 0 1
    outer loop
      vertex 20.3384 2.56933 4
      vertex 15.8738 2.00533 4
      vertex 16 0 4
    endloop
  endfacet
  facet normal 0 0 1
    outer loop
      vertex 19.856 5.09814 4
      vertex 15.4973 3.97904 4
      vertex 15.8738 2.00533 4
    endloop
  endfacet
  facet normal 0 0 1
    outer loop
      vertex 12.9443 9.40456 4
      vertex 16.5848 12.0496 4
      vertex 14.9439 14.0332 4
    endloop
  endfacet
  facet normal 0 0 1
    outer loop
      vertex 19.0604 7.54655 4
      vertex 14.8764 5.88999 4
      vertex 15.4973 3.97904 4
    endloop
  endfacet
  facet normal 0 0 1
    outer loop
      vertex 17.9643 9.87595 4
      vertex 14.0209 7.70806 4
      vertex 14.8764 5.88999 4
    endloop
  endfacet
  facet normal 0 0 1
    outer loop
      vertex 11.6635 10.9528 4
      vertex 14.9439 14.0332 4
      vertex 13.0672 15.7955 4
    endloop
  endfacet
  facet normal 0 0 1
    outer loop
      vertex 16.5848 12.0496 4
      vertex 12.9443 9.40456 4
      vertex 14.0209 7.70806 4
    endloop
  endfacet
  facet normal 0 0 1
    outer loop
      vertex 14.9439 14.0332 4
      vertex 11.6635 10.9528 4
      vertex 12.9443 9.40456 4
    endloop
  endfacet
  facet normal 0 0 1
    outer loop
      vertex 10.1988 12.3282 4
      vertex 13.0672 15.7955 4
      vertex 10.9844 17.3087 4
    endloop
  endfacet
  facet normal 0 0 1
    outer loop
      vertex 13.0672 15.7955 4
      vertex 10.1988 12.3282 4
      vertex 11.6635 10.9528 4
    endloop
  endfacet
  facet normal 0 0 1
    outer loop
      vertex 8.57323 13.5092 4
      vertex 10.9844 17.3087 4
      vertex 8.72847 18.549 4
    endloop
  endfacet
  facet normal 0 0 1
    outer loop
      vertex 10.9844 17.3087 4
      vertex 8.57323 13.5092 4
      vertex 10.1988 12.3282 4
    endloop
  endfacet
  facet normal 0 0 1
    outer loop
      vertex 8.72847 18.549 4
      vertex 6.81247 14.4772 4
      vertex 8.57323 13.5092 4
    endloop
  endfacet
  facet normal 0 0 1
    outer loop
      vertex 6.33485 19.4967 4
      vertex 6.81247 14.4772 4
      vertex 8.72847 18.549 4
    endloop
  endfacet
  facet normal 0 0 1
    outer loop
      vertex 6.33485 19.4967 4
      vertex 4.94427 15.2169 4
      vertex 6.81247 14.4772 4
    endloop
  endfacet
  facet normal 0 0 1
    outer loop
      vertex 3.84132 20.1369 4
      vertex 4.94427 15.2169 4
      vertex 6.33485 19.4967 4
    endloop
  endfacet
  facet normal 0 0 1
    outer loop
      vertex 3.84132 20.1369 4
      vertex 2.9981 15.7166 4
      vertex 4.94427 15.2169 4
    endloop
  endfacet
  facet normal 0 0 1
    outer loop
      vertex 1.2872 20.4595 4
      vertex 2.9981 15.7166 4
      vertex 3.84132 20.1369 4
    endloop
  endfacet
  facet normal 0 0 1
    outer loop
      vertex 1.2872 20.4595 4
      vertex 1.00465 15.9684 4
      vertex 2.9981 15.7166 4
    endloop
  endfacet
  facet normal 0 0 1
    outer loop
      vertex 1.2872 20.4595 4
      vertex -1.00465 15.9684 4
      vertex 1.00465 15.9684 4
    endloop
  endfacet
  facet normal -0 0 1
    outer loop
      vertex -1.2872 20.4595 4
      vertex -1.00465 15.9684 4
      vertex 1.2872 20.4595 4
    endloop
  endfacet
  facet normal 0 0 1
    outer loop
      vertex -1.2872 20.4595 4
      vertex -2.9981 15.7166 4
      vertex -1.00465 15.9684 4
    endloop
  endfacet
  facet normal -0 0 1
    outer loop
      vertex -3.84132 20.1369 4
      vertex -2.9981 15.7166 4
      vertex -1.2872 20.4595 4
    endloop
  endfacet
  facet normal 0 0 1
    outer loop
      vertex -3.84132 20.1369 4
      vertex -4.94427 15.2169 4
      vertex -2.9981 15.7166 4
    endloop
  endfacet
  facet normal -0 0 1
    outer loop
      vertex -6.33485 19.4967 4
      vertex -4.94427 15.2169 4
      vertex -3.84132 20.1369 4
    endloop
  endfacet
  facet normal 0 0 1
    outer loop
      vertex -6.33485 19.4967 4
      vertex -6.81247 14.4772 4
      vertex -4.94427 15.2169 4
    endloop
  endfacet
  facet normal -0 0 1
    outer loop
      vertex -8.72847 18.549 4
      vertex -6.81247 14.4772 4
      vertex -6.33485 19.4967 4
    endloop
  endfacet
  facet normal 0 0 1
    outer loop
      vertex -6.81247 14.4772 4
      vertex -8.72847 18.549 4
      vertex -8.57323 13.5092 4
    endloop
  endfacet
  facet normal -0 0 1
    outer loop
      vertex -10.9844 17.3087 4
      vertex -8.57323 13.5092 4
      vertex -8.72847 18.549 4
    endloop
  endfacet
  facet normal 0 0 1
    outer loop
      vertex -8.57323 13.5092 4
      vertex -10.9844 17.3087 4
      vertex -10.1988 12.3282 4
    endloop
  endfacet
  facet normal -0 0 1
    outer loop
      vertex -13.0672 15.7955 4
      vertex -10.1988 12.3282 4
      vertex -10.9844 17.3087 4
    endloop
  endfacet
  facet normal 0 0 1
    outer loop
      vertex -10.1988 12.3282 4
      vertex -13.0672 15.7955 4
      vertex -11.6635 10.9528 4
    endloop
  endfacet
  facet normal -0 0 1
    outer loop
      vertex -14.9439 14.0332 4
      vertex -11.6635 10.9528 4
      vertex -13.0672 15.7955 4
    endloop
  endfacet
  facet normal 0 0 1
    outer loop
      vertex -11.6635 10.9528 4
      vertex -14.9439 14.0332 4
      vertex -12.9443 9.40456 4
    endloop
  endfacet
  facet normal -0 0 1
    outer loop
      vertex -16.5848 12.0496 4
      vertex -12.9443 9.40456 4
      vertex -14.9439 14.0332 4
    endloop
  endfacet
  facet normal 0 0 1
    outer loop
      vertex -12.9443 9.40456 4
      vertex -16.5848 12.0496 4
      vertex -14.0209 7.70806 4
    endloop
  endfacet
  facet normal -0 0 1
    outer loop
      vertex -17.9643 9.87595 4
      vertex -14.0209 7.70806 4
      vertex -16.5848 12.0496 4
    endloop
  endfacet
  facet normal 0 0 1
    outer loop
      vertex -14.0209 7.70806 4
      vertex -17.9643 9.87595 4
      vertex -14.8764 5.88999 4
    endloop
  endfacet
  facet normal 0 0 1
    outer loop
      vertex -14.8764 5.88999 4
      vertex -19.0604 7.54655 4
      vertex -15.4973 3.97904 4
    endloop
  endfacet
  facet normal -0 0 1
    outer loop
      vertex -19.0604 7.54655 4
      vertex -14.8764 5.88999 4
      vertex -17.9643 9.87595 4
    endloop
  endfacet
  facet normal -0 0 1
    outer loop
      vertex 14.8764 -5.88999 4
      vertex 19.0604 -7.54655 4
      vertex 15.4973 -3.97904 4
    endloop
  endfacet
  facet normal 0 0 1
    outer loop
      vertex 19.0604 -7.54655 4
      vertex 14.8764 -5.88999 4
      vertex 17.9643 -9.87595 4
    endloop
  endfacet
  facet normal -0 0 1
    outer loop
      vertex 14.0209 -7.70806 4
      vertex 17.9643 -9.87595 4
      vertex 14.8764 -5.88999 4
    endloop
  endfacet
  facet normal 0 0 1
    outer loop
      vertex 17.9643 -9.87595 4
      vertex 14.0209 -7.70806 4
      vertex 16.5848 -12.0496 4
    endloop
  endfacet
  facet normal -0 0 1
    outer loop
      vertex 12.9443 -9.40456 4
      vertex 16.5848 -12.0496 4
      vertex 14.0209 -7.70806 4
    endloop
  endfacet
  facet normal 0 0 1
    outer loop
      vertex 16.5848 -12.0496 4
      vertex 12.9443 -9.40456 4
      vertex 14.9439 -14.0332 4
    endloop
  endfacet
  facet normal -0 0 1
    outer loop
      vertex 11.6635 -10.9528 4
      vertex 14.9439 -14.0332 4
      vertex 12.9443 -9.40456 4
    endloop
  endfacet
  facet normal 0 0 1
    outer loop
      vertex 14.9439 -14.0332 4
      vertex 11.6635 -10.9528 4
      vertex 13.0672 -15.7955 4
    endloop
  endfacet
  facet normal -0 0 1
    outer loop
      vertex 10.1988 -12.3282 4
      vertex 13.0672 -15.7955 4
      vertex 11.6635 -10.9528 4
    endloop
  endfacet
  facet normal 0 0 1
    outer loop
      vertex 13.0672 -15.7955 4
      vertex 10.1988 -12.3282 4
      vertex 10.9844 -17.3087 4
    endloop
  endfacet
  facet normal -0 0 1
    outer loop
      vertex 8.57323 -13.5092 4
      vertex 10.9844 -17.3087 4
      vertex 10.1988 -12.3282 4
    endloop
  endfacet
  facet normal 0 0 1
    outer loop
      vertex 10.9844 -17.3087 4
      vertex 8.57323 -13.5092 4
      vertex 8.72847 -18.549 4
    endloop
  endfacet
  facet normal -0 0 1
    outer loop
      vertex 6.81247 -14.4772 4
      vertex 8.72847 -18.549 4
      vertex 8.57323 -13.5092 4
    endloop
  endfacet
  facet normal 0 0 1
    outer loop
      vertex 6.81247 -14.4772 4
      vertex 6.33485 -19.4967 4
      vertex 8.72847 -18.549 4
    endloop
  endfacet
  facet normal -0 0 1
    outer loop
      vertex 4.94427 -15.2169 4
      vertex 6.33485 -19.4967 4
      vertex 6.81247 -14.4772 4
    endloop
  endfacet
  facet normal 0 0 1
    outer loop
      vertex 4.94427 -15.2169 4
      vertex 3.84132 -20.1369 4
      vertex 6.33485 -19.4967 4
    endloop
  endfacet
  facet normal -0 0 1
    outer loop
      vertex 2.9981 -15.7166 4
      vertex 3.84132 -20.1369 4
      vertex 4.94427 -15.2169 4
    endloop
  endfacet
  facet normal 0 0 1
    outer loop
      vertex 2.9981 -15.7166 4
      vertex 1.2872 -20.4595 4
      vertex 3.84132 -20.1369 4
    endloop
  endfacet
  facet normal -0 0 1
    outer loop
      vertex 1.00465 -15.9684 4
      vertex 1.2872 -20.4595 4
      vertex 2.9981 -15.7166 4
    endloop
  endfacet
  facet normal -0 0 1
    outer loop
      vertex -1.00465 -15.9684 4
      vertex 1.2872 -20.4595 4
      vertex 1.00465 -15.9684 4
    endloop
  endfacet
  facet normal 0 0 1
    outer loop
      vertex -1.00465 -15.9684 4
      vertex -1.2872 -20.4595 4
      vertex 1.2872 -20.4595 4
    endloop
  endfacet
  facet normal 0 0 1
    outer loop
      vertex -2.9981 -15.7166 4
      vertex -1.2872 -20.4595 4
      vertex -1.00465 -15.9684 4
    endloop
  endfacet
  facet normal 0 0 1
    outer loop
      vertex -2.9981 -15.7166 4
      vertex -3.84132 -20.1369 4
      vertex -1.2872 -20.4595 4
    endloop
  endfacet
  facet normal 0 0 1
    outer loop
      vertex -4.94427 -15.2169 4
      vertex -3.84132 -20.1369 4
      vertex -2.9981 -15.7166 4
    endloop
  endfacet
  facet normal 0 0 1
    outer loop
      vertex -4.94427 -15.2169 4
      vertex -6.33485 -19.4967 4
      vertex -3.84132 -20.1369 4
    endloop
  endfacet
  facet normal 0 0 1
    outer loop
      vertex -6.81247 -14.4772 4
      vertex -6.33485 -19.4967 4
      vertex -4.94427 -15.2169 4
    endloop
  endfacet
  facet normal 0 0 1
    outer loop
      vertex -8.72847 -18.549 4
      vertex -6.81247 -14.4772 4
      vertex -8.57323 -13.5092 4
    endloop
  endfacet
  facet normal 0 0 1
    outer loop
      vertex -6.81247 -14.4772 4
      vertex -8.72847 -18.549 4
      vertex -6.33485 -19.4967 4
    endloop
  endfacet
  facet normal 0 0 1
    outer loop
      vertex -10.9844 -17.3087 4
      vertex -8.57323 -13.5092 4
      vertex -10.1988 -12.3282 4
    endloop
  endfacet
  facet normal 0 0 1
    outer loop
      vertex -8.57323 -13.5092 4
      vertex -10.9844 -17.3087 4
      vertex -8.72847 -18.549 4
    endloop
  endfacet
  facet normal 0 0 1
    outer loop
      vertex -13.0672 -15.7955 4
      vertex -10.1988 -12.3282 4
      vertex -11.6635 -10.9528 4
    endloop
  endfacet
  facet normal 0 0 1
    outer loop
      vertex -14.9439 -14.0332 4
      vertex -11.6635 -10.9528 4
      vertex -12.9443 -9.40456 4
    endloop
  endfacet
  facet normal 0 0 1
    outer loop
      vertex -10.1988 -12.3282 4
      vertex -13.0672 -15.7955 4
      vertex -10.9844 -17.3087 4
    endloop
  endfacet
  facet normal 0 0 1
    outer loop
      vertex -16.5848 -12.0496 4
      vertex -12.9443 -9.40456 4
      vertex -14.0209 -7.70806 4
    endloop
  endfacet
  facet normal 0 0 1
    outer loop
      vertex -17.9643 -9.87595 4
      vertex -14.0209 -7.70806 4
      vertex -14.8764 -5.88999 4
    endloop
  endfacet
  facet normal 0 0 1
    outer loop
      vertex -11.6635 -10.9528 4
      vertex -14.9439 -14.0332 4
      vertex -13.0672 -15.7955 4
    endloop
  endfacet
  facet normal 0 0 1
    outer loop
      vertex -19.0604 -7.54655 4
      vertex -14.8764 -5.88999 4
      vertex -15.4973 -3.97904 4
    endloop
  endfacet
  facet normal 0 0 1
    outer loop
      vertex -19.856 -5.09814 4
      vertex -15.4973 -3.97904 4
      vertex -15.8738 -2.00533 4
    endloop
  endfacet
  facet normal 0 0 1
    outer loop
      vertex -12.9443 -9.40456 4
      vertex -16.5848 -12.0496 4
      vertex -14.9439 -14.0332 4
    endloop
  endfacet
  facet normal 0 0 1
    outer loop
      vertex -20.3384 -2.56933 4
      vertex -15.8738 -2.00533 4
      vertex -16 0 4
    endloop
  endfacet
  facet normal -0 0 1
    outer loop
      vertex -19.856 5.09814 4
      vertex -15.4973 3.97904 4
      vertex -19.0604 7.54655 4
    endloop
  endfacet
  facet normal 0 0 1
    outer loop
      vertex -15.4973 3.97904 4
      vertex -19.856 5.09814 4
      vertex -15.8738 2.00533 4
    endloop
  endfacet
  facet normal 0 0 1
    outer loop
      vertex -14.0209 -7.70806 4
      vertex -17.9643 -9.87595 4
      vertex -16.5848 -12.0496 4
    endloop
  endfacet
  facet normal -0 0 1
    outer loop
      vertex -20.3384 2.56933 4
      vertex -15.8738 2.00533 4
      vertex -19.856 5.09814 4
    endloop
  endfacet
  facet normal 0 0 1
    outer loop
      vertex -14.8764 -5.88999 4
      vertex -19.0604 -7.54655 4
      vertex -17.9643 -9.87595 4
    endloop
  endfacet
  facet normal 0 0 1
    outer loop
      vertex -15.8738 2.00533 4
      vertex -20.3384 2.56933 4
      vertex -16 0 4
    endloop
  endfacet
  facet normal 0 0 1
    outer loop
      vertex -15.4973 -3.97904 4
      vertex -19.856 -5.09814 4
      vertex -19.0604 -7.54655 4
    endloop
  endfacet
  facet normal 0 0 1
    outer loop
      vertex -20.5 0 4
      vertex -16 0 4
      vertex -20.3384 2.56933 4
    endloop
  endfacet
  facet normal 0 0 1
    outer loop
      vertex -15.8738 -2.00533 4
      vertex -20.3384 -2.56933 4
      vertex -19.856 -5.09814 4
    endloop
  endfacet
  facet normal 0 0 1
    outer loop
      vertex -16 0 4
      vertex -20.5 0 4
      vertex -20.3384 -2.56933 4
    endloop
  endfacet
  facet normal -0.12531 0.992118 0
    outer loop
      vertex 3.84132 -20.1369 4
      vertex 1.2872 -20.4595 6
      vertex 3.84132 -20.1369 6
    endloop
  endfacet
  facet normal -0.12531 0.992118 0
    outer loop
      vertex 1.2872 -20.4595 6
      vertex 3.84132 -20.1369 4
      vertex 1.2872 -20.4595 4
    endloop
  endfacet
  facet normal -0.951049 -0.309039 0
    outer loop
      vertex 19.856 5.09814 4
      vertex 19.0604 7.54655 6
      vertex 19.0604 7.54655 4
    endloop
  endfacet
  facet normal -0.951049 -0.309039 0
    outer loop
      vertex 19.0604 7.54655 6
      vertex 19.856 5.09814 4
      vertex 19.856 5.09814 6
    endloop
  endfacet
  facet normal -0.770528 -0.637406 0
    outer loop
      vertex 16.5848 12.0496 4
      vertex 14.9439 14.0332 6
      vertex 14.9439 14.0332 4
    endloop
  endfacet
  facet normal -0.770528 -0.637406 0
    outer loop
      vertex 14.9439 14.0332 6
      vertex 16.5848 12.0496 4
      vertex 16.5848 12.0496 6
    endloop
  endfacet
  facet normal -0.844317 -0.535843 0
    outer loop
      vertex 17.9643 9.87595 4
      vertex 16.5848 12.0496 6
      vertex 16.5848 12.0496 4
    endloop
  endfacet
  facet normal -0.844317 -0.535843 0
    outer loop
      vertex 16.5848 12.0496 6
      vertex 17.9643 9.87595 4
      vertex 17.9643 9.87595 6
    endloop
  endfacet
  facet normal -0.12531 -0.992118 0
    outer loop
      vertex 1.2872 20.4595 4
      vertex 3.84132 20.1369 6
      vertex 1.2872 20.4595 6
    endloop
  endfacet
  facet normal -0.12531 -0.992118 -0
    outer loop
      vertex 3.84132 20.1369 6
      vertex 1.2872 20.4595 4
      vertex 3.84132 20.1369 4
    endloop
  endfacet
  facet normal -0.587774 -0.809025 0
    outer loop
      vertex 10.9844 17.3087 4
      vertex 13.0672 15.7955 6
      vertex 10.9844 17.3087 6
    endloop
  endfacet
  facet normal -0.587774 -0.809025 -0
    outer loop
      vertex 13.0672 15.7955 6
      vertex 10.9844 17.3087 4
      vertex 13.0672 15.7955 4
    endloop
  endfacet
  facet normal 0.844317 -0.535843 0
    outer loop
      vertex -17.9643 9.87595 6
      vertex -16.5848 12.0496 4
      vertex -16.5848 12.0496 6
    endloop
  endfacet
  facet normal 0.844317 -0.535843 0
    outer loop
      vertex -16.5848 12.0496 4
      vertex -17.9643 9.87595 6
      vertex -17.9643 9.87595 4
    endloop
  endfacet
  facet normal 0.770528 -0.637406 0
    outer loop
      vertex -16.5848 12.0496 6
      vertex -14.9439 14.0332 4
      vertex -14.9439 14.0332 6
    endloop
  endfacet
  facet normal 0.770528 -0.637406 0
    outer loop
      vertex -14.9439 14.0332 4
      vertex -16.5848 12.0496 6
      vertex -16.5848 12.0496 4
    endloop
  endfacet
  facet normal 0.951049 -0.309039 0
    outer loop
      vertex -19.856 5.09814 6
      vertex -19.0604 7.54655 4
      vertex -19.0604 7.54655 6
    endloop
  endfacet
  facet normal 0.951049 -0.309039 0
    outer loop
      vertex -19.0604 7.54655 4
      vertex -19.856 5.09814 6
      vertex -19.856 5.09814 4
    endloop
  endfacet
  facet normal 0.982287 -0.187383 0
    outer loop
      vertex -20.3384 2.56933 6
      vertex -19.856 5.09814 4
      vertex -19.856 5.09814 6
    endloop
  endfacet
  facet normal 0.982287 -0.187383 0
    outer loop
      vertex -19.856 5.09814 4
      vertex -20.3384 2.56933 6
      vertex -20.3384 2.56933 4
    endloop
  endfacet
  facet normal 0.481781 -0.876292 0
    outer loop
      vertex -10.9844 17.3087 4
      vertex -8.72847 18.549 6
      vertex -10.9844 17.3087 6
    endloop
  endfacet
  facet normal 0.481781 -0.876292 0
    outer loop
      vertex -8.72847 18.549 6
      vertex -10.9844 17.3087 4
      vertex -8.72847 18.549 4
    endloop
  endfacet
  facet normal 0.587774 -0.809025 0
    outer loop
      vertex -13.0672 15.7955 4
      vertex -10.9844 17.3087 6
      vertex -13.0672 15.7955 6
    endloop
  endfacet
  facet normal 0.587774 -0.809025 0
    outer loop
      vertex -10.9844 17.3087 6
      vertex -13.0672 15.7955 4
      vertex -10.9844 17.3087 4
    endloop
  endfacet
  facet normal 0.248679 -0.968586 0
    outer loop
      vertex -6.33485 19.4967 4
      vertex -3.84132 20.1369 6
      vertex -6.33485 19.4967 6
    endloop
  endfacet
  facet normal 0.248679 -0.968586 0
    outer loop
      vertex -3.84132 20.1369 6
      vertex -6.33485 19.4967 4
      vertex -3.84132 20.1369 4
    endloop
  endfacet
  facet normal -0.998028 0.0627717 0
    outer loop
      vertex 20.3384 -2.56933 4
      vertex 20.5 0 6
      vertex 20.5 0 4
    endloop
  endfacet
  facet normal -0.998028 0.0627717 0
    outer loop
      vertex 20.5 0 6
      vertex 20.3384 -2.56933 4
      vertex 20.3384 -2.56933 6
    endloop
  endfacet
  facet normal 0.684539 0.728976 -0
    outer loop
      vertex -13.0672 -15.7955 4
      vertex -14.9439 -14.0332 6
      vertex -13.0672 -15.7955 6
    endloop
  endfacet
  facet normal 0.684539 0.728976 0
    outer loop
      vertex -14.9439 -14.0332 6
      vertex -13.0672 -15.7955 4
      vertex -14.9439 -14.0332 4
    endloop
  endfacet
  facet normal 0.904832 0.425769 0
    outer loop
      vertex -17.9643 -9.87595 6
      vertex -19.0604 -7.54655 4
      vertex -19.0604 -7.54655 6
    endloop
  endfacet
  facet normal 0.904832 0.425769 0
    outer loop
      vertex -19.0604 -7.54655 4
      vertex -17.9643 -9.87595 6
      vertex -17.9643 -9.87595 4
    endloop
  endfacet
  facet normal 0.844317 0.535843 0
    outer loop
      vertex -16.5848 -12.0496 6
      vertex -17.9643 -9.87595 4
      vertex -17.9643 -9.87595 6
    endloop
  endfacet
  facet normal 0.844317 0.535843 0
    outer loop
      vertex -17.9643 -9.87595 4
      vertex -16.5848 -12.0496 6
      vertex -16.5848 -12.0496 4
    endloop
  endfacet
  facet normal 0.998028 0.0627717 0
    outer loop
      vertex -20.3384 -2.56933 6
      vertex -20.5 0 4
      vertex -20.5 0 6
    endloop
  endfacet
  facet normal 0.998028 0.0627717 0
    outer loop
      vertex -20.5 0 4
      vertex -20.3384 -2.56933 6
      vertex -20.3384 -2.56933 4
    endloop
  endfacet
  facet normal -0.481781 0.876292 0
    outer loop
      vertex 10.9844 -17.3087 4
      vertex 8.72847 -18.549 6
      vertex 10.9844 -17.3087 6
    endloop
  endfacet
  facet normal -0.481781 0.876292 0
    outer loop
      vertex 8.72847 -18.549 6
      vertex 10.9844 -17.3087 4
      vertex 8.72847 -18.549 4
    endloop
  endfacet
  facet normal -0.770528 0.637406 0
    outer loop
      vertex 14.9439 -14.0332 4
      vertex 16.5848 -12.0496 6
      vertex 16.5848 -12.0496 4
    endloop
  endfacet
  facet normal -0.770528 0.637406 0
    outer loop
      vertex 16.5848 -12.0496 6
      vertex 14.9439 -14.0332 4
      vertex 14.9439 -14.0332 6
    endloop
  endfacet
  facet normal -0.904832 0.425769 0
    outer loop
      vertex 17.9643 -9.87595 4
      vertex 19.0604 -7.54655 6
      vertex 19.0604 -7.54655 4
    endloop
  endfacet
  facet normal -0.904832 0.425769 0
    outer loop
      vertex 19.0604 -7.54655 6
      vertex 17.9643 -9.87595 4
      vertex 17.9643 -9.87595 6
    endloop
  endfacet
  facet normal 0.770528 0.637406 0
    outer loop
      vertex -14.9439 -14.0332 6
      vertex -16.5848 -12.0496 4
      vertex -16.5848 -12.0496 6
    endloop
  endfacet
  facet normal 0.770528 0.637406 0
    outer loop
      vertex -16.5848 -12.0496 4
      vertex -14.9439 -14.0332 6
      vertex -14.9439 -14.0332 4
    endloop
  endfacet
  facet normal 0.982287 0.187383 0
    outer loop
      vertex -19.856 -5.09814 6
      vertex -20.3384 -2.56933 4
      vertex -20.3384 -2.56933 6
    endloop
  endfacet
  facet normal 0.982287 0.187383 0
    outer loop
      vertex -20.3384 -2.56933 4
      vertex -19.856 -5.09814 6
      vertex -19.856 -5.09814 4
    endloop
  endfacet
  facet normal 0.951049 0.309039 0
    outer loop
      vertex -19.0604 -7.54655 6
      vertex -19.856 -5.09814 4
      vertex -19.856 -5.09814 6
    endloop
  endfacet
  facet normal 0.951049 0.309039 0
    outer loop
      vertex -19.856 -5.09814 4
      vertex -19.0604 -7.54655 6
      vertex -19.0604 -7.54655 4
    endloop
  endfacet
  facet normal -0.684539 0.728976 0
    outer loop
      vertex 14.9439 -14.0332 4
      vertex 13.0672 -15.7955 6
      vertex 14.9439 -14.0332 6
    endloop
  endfacet
  facet normal -0.684539 0.728976 0
    outer loop
      vertex 13.0672 -15.7955 6
      vertex 14.9439 -14.0332 4
      vertex 13.0672 -15.7955 4
    endloop
  endfacet
  facet normal -0.368124 0.929777 0
    outer loop
      vertex 8.72847 -18.549 4
      vertex 6.33485 -19.4967 6
      vertex 8.72847 -18.549 6
    endloop
  endfacet
  facet normal -0.368124 0.929777 0
    outer loop
      vertex 6.33485 -19.4967 6
      vertex 8.72847 -18.549 4
      vertex 6.33485 -19.4967 4
    endloop
  endfacet
  facet normal -0.248679 0.968586 0
    outer loop
      vertex 6.33485 -19.4967 4
      vertex 3.84132 -20.1369 6
      vertex 6.33485 -19.4967 6
    endloop
  endfacet
  facet normal -0.248679 0.968586 0
    outer loop
      vertex 3.84132 -20.1369 6
      vertex 6.33485 -19.4967 4
      vertex 3.84132 -20.1369 4
    endloop
  endfacet
  facet normal -0.844317 0.535843 0
    outer loop
      vertex 16.5848 -12.0496 4
      vertex 17.9643 -9.87595 6
      vertex 17.9643 -9.87595 4
    endloop
  endfacet
  facet normal -0.844317 0.535843 0
    outer loop
      vertex 17.9643 -9.87595 6
      vertex 16.5848 -12.0496 4
      vertex 16.5848 -12.0496 6
    endloop
  endfacet
  facet normal -0.951049 0.309039 0
    outer loop
      vertex 19.0604 -7.54655 4
      vertex 19.856 -5.09814 6
      vertex 19.856 -5.09814 4
    endloop
  endfacet
  facet normal -0.951049 0.309039 0
    outer loop
      vertex 19.856 -5.09814 6
      vertex 19.0604 -7.54655 4
      vertex 19.0604 -7.54655 6
    endloop
  endfacet
  facet normal 0.368124 0.929777 -0
    outer loop
      vertex -6.33485 -19.4967 4
      vertex -8.72847 -18.549 6
      vertex -6.33485 -19.4967 6
    endloop
  endfacet
  facet normal 0.368124 0.929777 0
    outer loop
      vertex -8.72847 -18.549 6
      vertex -6.33485 -19.4967 4
      vertex -8.72847 -18.549 4
    endloop
  endfacet
  facet normal 0.587774 0.809025 -0
    outer loop
      vertex -10.9844 -17.3087 4
      vertex -13.0672 -15.7955 6
      vertex -10.9844 -17.3087 6
    endloop
  endfacet
  facet normal 0.587774 0.809025 0
    outer loop
      vertex -13.0672 -15.7955 6
      vertex -10.9844 -17.3087 4
      vertex -13.0672 -15.7955 4
    endloop
  endfacet
  facet normal 0.248679 0.968586 -0
    outer loop
      vertex -3.84132 -20.1369 4
      vertex -6.33485 -19.4967 6
      vertex -3.84132 -20.1369 6
    endloop
  endfacet
  facet normal 0.248679 0.968586 0
    outer loop
      vertex -6.33485 -19.4967 6
      vertex -3.84132 -20.1369 4
      vertex -6.33485 -19.4967 4
    endloop
  endfacet
  facet normal -0.587774 0.809025 0
    outer loop
      vertex 13.0672 -15.7955 4
      vertex 10.9844 -17.3087 6
      vertex 13.0672 -15.7955 6
    endloop
  endfacet
  facet normal -0.587774 0.809025 0
    outer loop
      vertex 10.9844 -17.3087 6
      vertex 13.0672 -15.7955 4
      vertex 10.9844 -17.3087 4
    endloop
  endfacet
  facet normal 0.481781 0.876292 -0
    outer loop
      vertex -8.72847 -18.549 4
      vertex -10.9844 -17.3087 6
      vertex -8.72847 -18.549 6
    endloop
  endfacet
  facet normal 0.481781 0.876292 0
    outer loop
      vertex -10.9844 -17.3087 6
      vertex -8.72847 -18.549 4
      vertex -10.9844 -17.3087 4
    endloop
  endfacet
  facet normal 0.12531 0.992118 -0
    outer loop
      vertex -1.2872 -20.4595 4
      vertex -3.84132 -20.1369 6
      vertex -1.2872 -20.4595 6
    endloop
  endfacet
  facet normal 0.12531 0.992118 0
    outer loop
      vertex -3.84132 -20.1369 6
      vertex -1.2872 -20.4595 4
      vertex -3.84132 -20.1369 4
    endloop
  endfacet
  facet normal 0.998027 0.0627837 0
    outer loop
      vertex 22.5 0 6
      vertex 22.3226 2.82 -6
      vertex 22.3226 2.82 6
    endloop
  endfacet
  facet normal 0.998027 0.0627837 0
    outer loop
      vertex 22.3226 2.82 -6
      vertex 22.5 0 6
      vertex 22.5 0 -6
    endloop
  endfacet
  facet normal -0.998027 0.0627837 0
    outer loop
      vertex -22.5 0 -6
      vertex -22.3226 2.82 6
      vertex -22.3226 2.82 -6
    endloop
  endfacet
  facet normal -0.998027 0.0627837 0
    outer loop
      vertex -22.3226 2.82 6
      vertex -22.5 0 -6
      vertex -22.5 0 6
    endloop
  endfacet
  facet normal 0 1 -0
    outer loop
      vertex 1.41279 22.4556 -6
      vertex -1.41279 22.4556 6
      vertex 1.41279 22.4556 6
    endloop
  endfacet
  facet normal 0 1 0
    outer loop
      vertex -1.41279 22.4556 6
      vertex 1.41279 22.4556 -6
      vertex -1.41279 22.4556 -6
    endloop
  endfacet
  facet normal 0 -1 0
    outer loop
      vertex -1.41279 -22.4556 -6
      vertex 1.41279 -22.4556 6
      vertex -1.41279 -22.4556 6
    endloop
  endfacet
  facet normal 0 -1 -0
    outer loop
      vertex 1.41279 -22.4556 6
      vertex -1.41279 -22.4556 -6
      vertex 1.41279 -22.4556 -6
    endloop
  endfacet
  facet normal 0.684532 0.728983 -0
    outer loop
      vertex 16.4018 15.4023 -6
      vertex 14.342 17.3365 6
      vertex 16.4018 15.4023 6
    endloop
  endfacet
  facet normal 0.684532 0.728983 0
    outer loop
      vertex 14.342 17.3365 6
      vertex 16.4018 15.4023 -6
      vertex 14.342 17.3365 -6
    endloop
  endfacet
  facet normal -0.684532 0.728983 0
    outer loop
      vertex -14.342 17.3365 -6
      vertex -16.4018 15.4023 6
      vertex -14.342 17.3365 6
    endloop
  endfacet
  facet normal -0.684532 0.728983 0
    outer loop
      vertex -16.4018 15.4023 6
      vertex -14.342 17.3365 -6
      vertex -16.4018 15.4023 -6
    endloop
  endfacet
  facet normal -0.368136 0.929772 0
    outer loop
      vertex -6.95288 21.3988 -6
      vertex -9.58003 20.3586 6
      vertex -6.95288 21.3988 6
    endloop
  endfacet
  facet normal -0.368136 0.929772 0
    outer loop
      vertex -9.58003 20.3586 6
      vertex -6.95288 21.3988 -6
      vertex -9.58003 20.3586 -6
    endloop
  endfacet
  facet normal 0.904826 0.425782 0
    outer loop
      vertex 20.92 8.2828 6
      vertex 19.7169 10.8395 -6
      vertex 19.7169 10.8395 6
    endloop
  endfacet
  facet normal 0.904826 0.425782 0
    outer loop
      vertex 19.7169 10.8395 -6
      vertex 20.92 8.2828 6
      vertex 20.92 8.2828 -6
    endloop
  endfacet
  facet normal 0.368136 0.929772 -0
    outer loop
      vertex 9.58003 20.3586 -6
      vertex 6.95288 21.3988 6
      vertex 9.58003 20.3586 6
    endloop
  endfacet
  facet normal 0.368136 0.929772 0
    outer loop
      vertex 6.95288 21.3988 6
      vertex 9.58003 20.3586 -6
      vertex 6.95288 21.3988 -6
    endloop
  endfacet
  facet normal 0.481745 0.876311 -0
    outer loop
      vertex 12.0561 18.9974 -6
      vertex 9.58003 20.3586 6
      vertex 12.0561 18.9974 6
    endloop
  endfacet
  facet normal 0.481745 0.876311 0
    outer loop
      vertex 9.58003 20.3586 6
      vertex 12.0561 18.9974 -6
      vertex 9.58003 20.3586 -6
    endloop
  endfacet
  facet normal -0.904826 0.425782 0
    outer loop
      vertex -20.92 8.2828 -6
      vertex -19.7169 10.8395 6
      vertex -19.7169 10.8395 -6
    endloop
  endfacet
  facet normal -0.904826 0.425782 0
    outer loop
      vertex -19.7169 10.8395 6
      vertex -20.92 8.2828 -6
      vertex -20.92 8.2828 6
    endloop
  endfacet
  facet normal -0.248693 0.968582 0
    outer loop
      vertex -4.21608 22.1015 -6
      vertex -6.95288 21.3988 6
      vertex -4.21608 22.1015 6
    endloop
  endfacet
  facet normal -0.248693 0.968582 0
    outer loop
      vertex -6.95288 21.3988 6
      vertex -4.21608 22.1015 -6
      vertex -6.95288 21.3988 -6
    endloop
  endfacet
  facet normal -0.770505 -0.637434 0
    outer loop
      vertex -16.4018 -15.4023 -6
      vertex -18.2029 -13.2252 6
      vertex -18.2029 -13.2252 -6
    endloop
  endfacet
  facet normal -0.770505 -0.637434 0
    outer loop
      vertex -18.2029 -13.2252 6
      vertex -16.4018 -15.4023 -6
      vertex -16.4018 -15.4023 6
    endloop
  endfacet
  facet normal 0.12532 -0.992116 0
    outer loop
      vertex 1.41279 -22.4556 -6
      vertex 4.21608 -22.1015 6
      vertex 1.41279 -22.4556 6
    endloop
  endfacet
  facet normal 0.12532 -0.992116 0
    outer loop
      vertex 4.21608 -22.1015 6
      vertex 1.41279 -22.4556 -6
      vertex 4.21608 -22.1015 -6
    endloop
  endfacet
  facet normal 0.951062 0.309001 0
    outer loop
      vertex 21.7931 5.59552 6
      vertex 20.92 8.2828 -6
      vertex 20.92 8.2828 6
    endloop
  endfacet
  facet normal 0.951062 0.309001 0
    outer loop
      vertex 20.92 8.2828 -6
      vertex 21.7931 5.59552 6
      vertex 21.7931 5.59552 -6
    endloop
  endfacet
  facet normal 0.982285 0.187395 0
    outer loop
      vertex 22.3226 2.82 6
      vertex 21.7931 5.59552 -6
      vertex 21.7931 5.59552 6
    endloop
  endfacet
  facet normal 0.982285 0.187395 0
    outer loop
      vertex 21.7931 5.59552 -6
      vertex 22.3226 2.82 6
      vertex 22.3226 2.82 -6
    endloop
  endfacet
  facet normal 0.770505 0.637434 0
    outer loop
      vertex 18.2029 13.2252 6
      vertex 16.4018 15.4023 -6
      vertex 16.4018 15.4023 6
    endloop
  endfacet
  facet normal 0.770505 0.637434 0
    outer loop
      vertex 16.4018 15.4023 -6
      vertex 18.2029 13.2252 6
      vertex 18.2029 13.2252 -6
    endloop
  endfacet
  facet normal 0.84433 0.535824 0
    outer loop
      vertex 19.7169 10.8395 6
      vertex 18.2029 13.2252 -6
      vertex 18.2029 13.2252 6
    endloop
  endfacet
  facet normal 0.84433 0.535824 0
    outer loop
      vertex 18.2029 13.2252 -6
      vertex 19.7169 10.8395 6
      vertex 19.7169 10.8395 -6
    endloop
  endfacet
  facet normal 0.248693 0.968582 -0
    outer loop
      vertex 6.95288 21.3988 -6
      vertex 4.21608 22.1015 6
      vertex 6.95288 21.3988 6
    endloop
  endfacet
  facet normal 0.248693 0.968582 0
    outer loop
      vertex 4.21608 22.1015 6
      vertex 6.95288 21.3988 -6
      vertex 4.21608 22.1015 -6
    endloop
  endfacet
  facet normal 0.12532 0.992116 -0
    outer loop
      vertex 4.21608 22.1015 -6
      vertex 1.41279 22.4556 6
      vertex 4.21608 22.1015 6
    endloop
  endfacet
  facet normal 0.12532 0.992116 0
    outer loop
      vertex 1.41279 22.4556 6
      vertex 4.21608 22.1015 -6
      vertex 1.41279 22.4556 -6
    endloop
  endfacet
  facet normal 0.587808 0.809001 -0
    outer loop
      vertex 14.342 17.3365 -6
      vertex 12.0561 18.9974 6
      vertex 14.342 17.3365 6
    endloop
  endfacet
  facet normal 0.587808 0.809001 0
    outer loop
      vertex 12.0561 18.9974 6
      vertex 14.342 17.3365 -6
      vertex 12.0561 18.9974 -6
    endloop
  endfacet
  facet normal -0.84433 0.535824 0
    outer loop
      vertex -19.7169 10.8395 -6
      vertex -18.2029 13.2252 6
      vertex -18.2029 13.2252 -6
    endloop
  endfacet
  facet normal -0.84433 0.535824 0
    outer loop
      vertex -18.2029 13.2252 6
      vertex -19.7169 10.8395 -6
      vertex -19.7169 10.8395 6
    endloop
  endfacet
  facet normal -0.770505 0.637434 0
    outer loop
      vertex -18.2029 13.2252 -6
      vertex -16.4018 15.4023 6
      vertex -16.4018 15.4023 -6
    endloop
  endfacet
  facet normal -0.770505 0.637434 0
    outer loop
      vertex -16.4018 15.4023 6
      vertex -18.2029 13.2252 -6
      vertex -18.2029 13.2252 6
    endloop
  endfacet
  facet normal -0.951062 0.309001 0
    outer loop
      vertex -21.7931 5.59552 -6
      vertex -20.92 8.2828 6
      vertex -20.92 8.2828 -6
    endloop
  endfacet
  facet normal -0.951062 0.309001 0
    outer loop
      vertex -20.92 8.2828 6
      vertex -21.7931 5.59552 -6
      vertex -21.7931 5.59552 6
    endloop
  endfacet
  facet normal -0.982285 0.187395 0
    outer loop
      vertex -22.3226 2.82 -6
      vertex -21.7931 5.59552 6
      vertex -21.7931 5.59552 -6
    endloop
  endfacet
  facet normal -0.982285 0.187395 0
    outer loop
      vertex -21.7931 5.59552 6
      vertex -22.3226 2.82 -6
      vertex -22.3226 2.82 6
    endloop
  endfacet
  facet normal -0.481745 0.876311 0
    outer loop
      vertex -9.58003 20.3586 -6
      vertex -12.0561 18.9974 6
      vertex -9.58003 20.3586 6
    endloop
  endfacet
  facet normal -0.481745 0.876311 0
    outer loop
      vertex -12.0561 18.9974 6
      vertex -9.58003 20.3586 -6
      vertex -12.0561 18.9974 -6
    endloop
  endfacet
  facet normal -0.587808 0.809001 0
    outer loop
      vertex -12.0561 18.9974 -6
      vertex -14.342 17.3365 6
      vertex -12.0561 18.9974 6
    endloop
  endfacet
  facet normal -0.587808 0.809001 0
    outer loop
      vertex -14.342 17.3365 6
      vertex -12.0561 18.9974 -6
      vertex -14.342 17.3365 -6
    endloop
  endfacet
  facet normal -0.12532 0.992116 0
    outer loop
      vertex -1.41279 22.4556 -6
      vertex -4.21608 22.1015 6
      vertex -1.41279 22.4556 6
    endloop
  endfacet
  facet normal -0.12532 0.992116 0
    outer loop
      vertex -4.21608 22.1015 6
      vertex -1.41279 22.4556 -6
      vertex -4.21608 22.1015 -6
    endloop
  endfacet
  facet normal 0.998027 -0.0627837 0
    outer loop
      vertex 22.3226 -2.82 6
      vertex 22.5 0 -6
      vertex 22.5 0 6
    endloop
  endfacet
  facet normal 0.998027 -0.0627837 0
    outer loop
      vertex 22.5 0 -6
      vertex 22.3226 -2.82 6
      vertex 22.3226 -2.82 -6
    endloop
  endfacet
  facet normal 0.684532 -0.728983 0
    outer loop
      vertex 14.342 -17.3365 -6
      vertex 16.4018 -15.4023 6
      vertex 14.342 -17.3365 6
    endloop
  endfacet
  facet normal 0.684532 -0.728983 0
    outer loop
      vertex 16.4018 -15.4023 6
      vertex 14.342 -17.3365 -6
      vertex 16.4018 -15.4023 -6
    endloop
  endfacet
  facet normal 0.904826 -0.425782 0
    outer loop
      vertex 19.7169 -10.8395 6
      vertex 20.92 -8.2828 -6
      vertex 20.92 -8.2828 6
    endloop
  endfacet
  facet normal 0.904826 -0.425782 0
    outer loop
      vertex 20.92 -8.2828 -6
      vertex 19.7169 -10.8395 6
      vertex 19.7169 -10.8395 -6
    endloop
  endfacet
  facet normal -0.998027 -0.0627837 0
    outer loop
      vertex -22.3226 -2.82 -6
      vertex -22.5 0 6
      vertex -22.5 0 -6
    endloop
  endfacet
  facet normal -0.998027 -0.0627837 0
    outer loop
      vertex -22.5 0 6
      vertex -22.3226 -2.82 -6
      vertex -22.3226 -2.82 6
    endloop
  endfacet
  facet normal 0.951062 -0.309001 0
    outer loop
      vertex 20.92 -8.2828 6
      vertex 21.7931 -5.59552 -6
      vertex 21.7931 -5.59552 6
    endloop
  endfacet
  facet normal 0.951062 -0.309001 0
    outer loop
      vertex 21.7931 -5.59552 -6
      vertex 20.92 -8.2828 6
      vertex 20.92 -8.2828 -6
    endloop
  endfacet
  facet normal 0.770505 -0.637434 0
    outer loop
      vertex 16.4018 -15.4023 6
      vertex 18.2029 -13.2252 -6
      vertex 18.2029 -13.2252 6
    endloop
  endfacet
  facet normal 0.770505 -0.637434 0
    outer loop
      vertex 18.2029 -13.2252 -6
      vertex 16.4018 -15.4023 6
      vertex 16.4018 -15.4023 -6
    endloop
  endfacet
  facet normal -0.684532 -0.728983 0
    outer loop
      vertex -16.4018 -15.4023 -6
      vertex -14.342 -17.3365 6
      vertex -16.4018 -15.4023 6
    endloop
  endfacet
  facet normal -0.684532 -0.728983 -0
    outer loop
      vertex -14.342 -17.3365 6
      vertex -16.4018 -15.4023 -6
      vertex -14.342 -17.3365 -6
    endloop
  endfacet
  facet normal -0.84433 -0.535824 0
    outer loop
      vertex -18.2029 -13.2252 -6
      vertex -19.7169 -10.8395 6
      vertex -19.7169 -10.8395 -6
    endloop
  endfacet
  facet normal -0.84433 -0.535824 0
    outer loop
      vertex -19.7169 -10.8395 6
      vertex -18.2029 -13.2252 -6
      vertex -18.2029 -13.2252 6
    endloop
  endfacet
  facet normal 0.368136 -0.929772 0
    outer loop
      vertex 6.95288 -21.3988 -6
      vertex 9.58003 -20.3586 6
      vertex 6.95288 -21.3988 6
    endloop
  endfacet
  facet normal 0.368136 -0.929772 0
    outer loop
      vertex 9.58003 -20.3586 6
      vertex 6.95288 -21.3988 -6
      vertex 9.58003 -20.3586 -6
    endloop
  endfacet
  facet normal 0.248693 -0.968582 0
    outer loop
      vertex 4.21608 -22.1015 -6
      vertex 6.95288 -21.3988 6
      vertex 4.21608 -22.1015 6
    endloop
  endfacet
  facet normal 0.248693 -0.968582 0
    outer loop
      vertex 6.95288 -21.3988 6
      vertex 4.21608 -22.1015 -6
      vertex 6.95288 -21.3988 -6
    endloop
  endfacet
  facet normal 0.982285 -0.187395 0
    outer loop
      vertex 21.7931 -5.59552 6
      vertex 22.3226 -2.82 -6
      vertex 22.3226 -2.82 6
    endloop
  endfacet
  facet normal 0.982285 -0.187395 0
    outer loop
      vertex 22.3226 -2.82 -6
      vertex 21.7931 -5.59552 6
      vertex 21.7931 -5.59552 -6
    endloop
  endfacet
  facet normal 0.587808 -0.809001 0
    outer loop
      vertex 12.0561 -18.9974 -6
      vertex 14.342 -17.3365 6
      vertex 12.0561 -18.9974 6
    endloop
  endfacet
  facet normal 0.587808 -0.809001 0
    outer loop
      vertex 14.342 -17.3365 6
      vertex 12.0561 -18.9974 -6
      vertex 14.342 -17.3365 -6
    endloop
  endfacet
  facet normal 0.481745 -0.876311 0
    outer loop
      vertex 9.58003 -20.3586 -6
      vertex 12.0561 -18.9974 6
      vertex 9.58003 -20.3586 6
    endloop
  endfacet
  facet normal 0.481745 -0.876311 0
    outer loop
      vertex 12.0561 -18.9974 6
      vertex 9.58003 -20.3586 -6
      vertex 12.0561 -18.9974 -6
    endloop
  endfacet
  facet normal 0.84433 -0.535824 0
    outer loop
      vertex 18.2029 -13.2252 6
      vertex 19.7169 -10.8395 -6
      vertex 19.7169 -10.8395 6
    endloop
  endfacet
  facet normal 0.84433 -0.535824 0
    outer loop
      vertex 19.7169 -10.8395 -6
      vertex 18.2029 -13.2252 6
      vertex 18.2029 -13.2252 -6
    endloop
  endfacet
  facet normal -0.368136 -0.929772 0
    outer loop
      vertex -9.58003 -20.3586 -6
      vertex -6.95288 -21.3988 6
      vertex -9.58003 -20.3586 6
    endloop
  endfacet
  facet normal -0.368136 -0.929772 -0
    outer loop
      vertex -6.95288 -21.3988 6
      vertex -9.58003 -20.3586 -6
      vertex -6.95288 -21.3988 -6
    endloop
  endfacet
  facet normal -0.248693 -0.968582 0
    outer loop
      vertex -6.95288 -21.3988 -6
      vertex -4.21608 -22.1015 6
      vertex -6.95288 -21.3988 6
    endloop
  endfacet
  facet normal -0.248693 -0.968582 -0
    outer loop
      vertex -4.21608 -22.1015 6
      vertex -6.95288 -21.3988 -6
      vertex -4.21608 -22.1015 -6
    endloop
  endfacet
  facet normal -0.904826 -0.425782 0
    outer loop
      vertex -19.7169 -10.8395 -6
      vertex -20.92 -8.2828 6
      vertex -20.92 -8.2828 -6
    endloop
  endfacet
  facet normal -0.904826 -0.425782 0
    outer loop
      vertex -20.92 -8.2828 6
      vertex -19.7169 -10.8395 -6
      vertex -19.7169 -10.8395 6
    endloop
  endfacet
  facet normal -0.951062 -0.309001 0
    outer loop
      vertex -20.92 -8.2828 -6
      vertex -21.7931 -5.59552 6
      vertex -21.7931 -5.59552 -6
    endloop
  endfacet
  facet normal -0.951062 -0.309001 0
    outer loop
      vertex -21.7931 -5.59552 6
      vertex -20.92 -8.2828 -6
      vertex -20.92 -8.2828 6
    endloop
  endfacet
  facet normal -0.982285 -0.187395 0
    outer loop
      vertex -21.7931 -5.59552 -6
      vertex -22.3226 -2.82 6
      vertex -22.3226 -2.82 -6
    endloop
  endfacet
  facet normal -0.982285 -0.187395 0
    outer loop
      vertex -22.3226 -2.82 6
      vertex -21.7931 -5.59552 -6
      vertex -21.7931 -5.59552 6
    endloop
  endfacet
  facet normal -0.587808 -0.809001 0
    outer loop
      vertex -14.342 -17.3365 -6
      vertex -12.0561 -18.9974 6
      vertex -14.342 -17.3365 6
    endloop
  endfacet
  facet normal -0.587808 -0.809001 -0
    outer loop
      vertex -12.0561 -18.9974 6
      vertex -14.342 -17.3365 -6
      vertex -12.0561 -18.9974 -6
    endloop
  endfacet
  facet normal -0.481745 -0.876311 0
    outer loop
      vertex -12.0561 -18.9974 -6
      vertex -9.58003 -20.3586 6
      vertex -12.0561 -18.9974 6
    endloop
  endfacet
  facet normal -0.481745 -0.876311 -0
    outer loop
      vertex -9.58003 -20.3586 6
      vertex -12.0561 -18.9974 -6
      vertex -9.58003 -20.3586 -6
    endloop
  endfacet
  facet normal -0.12532 -0.992116 0
    outer loop
      vertex -4.21608 -22.1015 -6
      vertex -1.41279 -22.4556 6
      vertex -4.21608 -22.1015 6
    endloop
  endfacet
  facet normal -0.12532 -0.992116 -0
    outer loop
      vertex -1.41279 -22.4556 6
      vertex -4.21608 -22.1015 -6
      vertex -1.41279 -22.4556 -6
    endloop
  endfacet
endsolid OpenSCAD_Model
